G04 #@! TF.GenerationSoftware,KiCad,Pcbnew,5.1.8*
G04 #@! TF.CreationDate,2021-01-23T15:50:44+08:00*
G04 #@! TF.ProjectId,medicine_timer_pcb,6d656469-6369-46e6-955f-74696d65725f,rev?*
G04 #@! TF.SameCoordinates,Original*
G04 #@! TF.FileFunction,Legend,Bot*
G04 #@! TF.FilePolarity,Positive*
%FSLAX46Y46*%
G04 Gerber Fmt 4.6, Leading zero omitted, Abs format (unit mm)*
G04 Created by KiCad (PCBNEW 5.1.8) date 2021-01-23 15:50:44*
%MOMM*%
%LPD*%
G01*
G04 APERTURE LIST*
%ADD10C,0.150000*%
%ADD11C,0.120000*%
%ADD12O,1.450000X1.450000*%
G04 APERTURE END LIST*
D10*
X108009523Y-80452380D02*
X108009523Y-79452380D01*
X107676190Y-80166666D01*
X107342857Y-79452380D01*
X107342857Y-80452380D01*
X106485714Y-80404761D02*
X106580952Y-80452380D01*
X106771428Y-80452380D01*
X106866666Y-80404761D01*
X106914285Y-80309523D01*
X106914285Y-79928571D01*
X106866666Y-79833333D01*
X106771428Y-79785714D01*
X106580952Y-79785714D01*
X106485714Y-79833333D01*
X106438095Y-79928571D01*
X106438095Y-80023809D01*
X106914285Y-80119047D01*
X105580952Y-80452380D02*
X105580952Y-79452380D01*
X105580952Y-80404761D02*
X105676190Y-80452380D01*
X105866666Y-80452380D01*
X105961904Y-80404761D01*
X106009523Y-80357142D01*
X106057142Y-80261904D01*
X106057142Y-79976190D01*
X106009523Y-79880952D01*
X105961904Y-79833333D01*
X105866666Y-79785714D01*
X105676190Y-79785714D01*
X105580952Y-79833333D01*
X105104761Y-80452380D02*
X105104761Y-79785714D01*
X105104761Y-79452380D02*
X105152380Y-79500000D01*
X105104761Y-79547619D01*
X105057142Y-79500000D01*
X105104761Y-79452380D01*
X105104761Y-79547619D01*
X104200000Y-80404761D02*
X104295238Y-80452380D01*
X104485714Y-80452380D01*
X104580952Y-80404761D01*
X104628571Y-80357142D01*
X104676190Y-80261904D01*
X104676190Y-79976190D01*
X104628571Y-79880952D01*
X104580952Y-79833333D01*
X104485714Y-79785714D01*
X104295238Y-79785714D01*
X104200000Y-79833333D01*
X103771428Y-80452380D02*
X103771428Y-79785714D01*
X103771428Y-79452380D02*
X103819047Y-79500000D01*
X103771428Y-79547619D01*
X103723809Y-79500000D01*
X103771428Y-79452380D01*
X103771428Y-79547619D01*
X103295238Y-79785714D02*
X103295238Y-80452380D01*
X103295238Y-79880952D02*
X103247619Y-79833333D01*
X103152380Y-79785714D01*
X103009523Y-79785714D01*
X102914285Y-79833333D01*
X102866666Y-79928571D01*
X102866666Y-80452380D01*
X102009523Y-80404761D02*
X102104761Y-80452380D01*
X102295238Y-80452380D01*
X102390476Y-80404761D01*
X102438095Y-80309523D01*
X102438095Y-79928571D01*
X102390476Y-79833333D01*
X102295238Y-79785714D01*
X102104761Y-79785714D01*
X102009523Y-79833333D01*
X101961904Y-79928571D01*
X101961904Y-80023809D01*
X102438095Y-80119047D01*
X101771428Y-80547619D02*
X101009523Y-80547619D01*
X100914285Y-79785714D02*
X100533333Y-79785714D01*
X100771428Y-79452380D02*
X100771428Y-80309523D01*
X100723809Y-80404761D01*
X100628571Y-80452380D01*
X100533333Y-80452380D01*
X100200000Y-80452380D02*
X100200000Y-79785714D01*
X100200000Y-79452380D02*
X100247619Y-79500000D01*
X100200000Y-79547619D01*
X100152380Y-79500000D01*
X100200000Y-79452380D01*
X100200000Y-79547619D01*
X99723809Y-80452380D02*
X99723809Y-79785714D01*
X99723809Y-79880952D02*
X99676190Y-79833333D01*
X99580952Y-79785714D01*
X99438095Y-79785714D01*
X99342857Y-79833333D01*
X99295238Y-79928571D01*
X99295238Y-80452380D01*
X99295238Y-79928571D02*
X99247619Y-79833333D01*
X99152380Y-79785714D01*
X99009523Y-79785714D01*
X98914285Y-79833333D01*
X98866666Y-79928571D01*
X98866666Y-80452380D01*
X98009523Y-80404761D02*
X98104761Y-80452380D01*
X98295238Y-80452380D01*
X98390476Y-80404761D01*
X98438095Y-80309523D01*
X98438095Y-79928571D01*
X98390476Y-79833333D01*
X98295238Y-79785714D01*
X98104761Y-79785714D01*
X98009523Y-79833333D01*
X97961904Y-79928571D01*
X97961904Y-80023809D01*
X98438095Y-80119047D01*
X97533333Y-80452380D02*
X97533333Y-79785714D01*
X97533333Y-79976190D02*
X97485714Y-79880952D01*
X97438095Y-79833333D01*
X97342857Y-79785714D01*
X97247619Y-79785714D01*
X97152380Y-80547619D02*
X96390476Y-80547619D01*
X96295238Y-79452380D02*
X95961904Y-80452380D01*
X95628571Y-79452380D01*
X94771428Y-80452380D02*
X95342857Y-80452380D01*
X95057142Y-80452380D02*
X95057142Y-79452380D01*
X95152380Y-79595238D01*
X95247619Y-79690476D01*
X95342857Y-79738095D01*
X94342857Y-80357142D02*
X94295238Y-80404761D01*
X94342857Y-80452380D01*
X94390476Y-80404761D01*
X94342857Y-80357142D01*
X94342857Y-80452380D01*
X93676190Y-79452380D02*
X93580952Y-79452380D01*
X93485714Y-79500000D01*
X93438095Y-79547619D01*
X93390476Y-79642857D01*
X93342857Y-79833333D01*
X93342857Y-80071428D01*
X93390476Y-80261904D01*
X93438095Y-80357142D01*
X93485714Y-80404761D01*
X93580952Y-80452380D01*
X93676190Y-80452380D01*
X93771428Y-80404761D01*
X93819047Y-80357142D01*
X93866666Y-80261904D01*
X93914285Y-80071428D01*
X93914285Y-79833333D01*
X93866666Y-79642857D01*
X93819047Y-79547619D01*
X93771428Y-79500000D01*
X93676190Y-79452380D01*
D11*
X95500000Y-110635000D02*
X88900000Y-110635000D01*
X95500000Y-116115000D02*
X88900000Y-116115000D01*
X100000000Y-110575000D02*
X100000000Y-116175000D01*
X92512258Y-108402500D02*
X92037742Y-108402500D01*
X92512258Y-109447500D02*
X92037742Y-109447500D01*
X95484420Y-109435000D02*
X95765580Y-109435000D01*
X95484420Y-108415000D02*
X95765580Y-108415000D01*
X89040580Y-108415000D02*
X88759420Y-108415000D01*
X89040580Y-109435000D02*
X88759420Y-109435000D01*
D10*
X101501190Y-115776190D02*
X101501190Y-116252380D01*
X101834523Y-115252380D02*
X101501190Y-115776190D01*
X101167857Y-115252380D01*
X100310714Y-116252380D02*
X100882142Y-116252380D01*
X100596428Y-116252380D02*
X100596428Y-115252380D01*
X100691666Y-115395238D01*
X100786904Y-115490476D01*
X100882142Y-115538095D01*
X92441666Y-107947380D02*
X92775000Y-107471190D01*
X93013095Y-107947380D02*
X93013095Y-106947380D01*
X92632142Y-106947380D01*
X92536904Y-106995000D01*
X92489285Y-107042619D01*
X92441666Y-107137857D01*
X92441666Y-107280714D01*
X92489285Y-107375952D01*
X92536904Y-107423571D01*
X92632142Y-107471190D01*
X93013095Y-107471190D01*
X91870238Y-107375952D02*
X91965476Y-107328333D01*
X92013095Y-107280714D01*
X92060714Y-107185476D01*
X92060714Y-107137857D01*
X92013095Y-107042619D01*
X91965476Y-106995000D01*
X91870238Y-106947380D01*
X91679761Y-106947380D01*
X91584523Y-106995000D01*
X91536904Y-107042619D01*
X91489285Y-107137857D01*
X91489285Y-107185476D01*
X91536904Y-107280714D01*
X91584523Y-107328333D01*
X91679761Y-107375952D01*
X91870238Y-107375952D01*
X91965476Y-107423571D01*
X92013095Y-107471190D01*
X92060714Y-107566428D01*
X92060714Y-107756904D01*
X92013095Y-107852142D01*
X91965476Y-107899761D01*
X91870238Y-107947380D01*
X91679761Y-107947380D01*
X91584523Y-107899761D01*
X91536904Y-107852142D01*
X91489285Y-107756904D01*
X91489285Y-107566428D01*
X91536904Y-107471190D01*
X91584523Y-107423571D01*
X91679761Y-107375952D01*
X96341666Y-107907142D02*
X96389285Y-107954761D01*
X96532142Y-108002380D01*
X96627380Y-108002380D01*
X96770238Y-107954761D01*
X96865476Y-107859523D01*
X96913095Y-107764285D01*
X96960714Y-107573809D01*
X96960714Y-107430952D01*
X96913095Y-107240476D01*
X96865476Y-107145238D01*
X96770238Y-107050000D01*
X96627380Y-107002380D01*
X96532142Y-107002380D01*
X96389285Y-107050000D01*
X96341666Y-107097619D01*
X95484523Y-107002380D02*
X95675000Y-107002380D01*
X95770238Y-107050000D01*
X95817857Y-107097619D01*
X95913095Y-107240476D01*
X95960714Y-107430952D01*
X95960714Y-107811904D01*
X95913095Y-107907142D01*
X95865476Y-107954761D01*
X95770238Y-108002380D01*
X95579761Y-108002380D01*
X95484523Y-107954761D01*
X95436904Y-107907142D01*
X95389285Y-107811904D01*
X95389285Y-107573809D01*
X95436904Y-107478571D01*
X95484523Y-107430952D01*
X95579761Y-107383333D01*
X95770238Y-107383333D01*
X95865476Y-107430952D01*
X95913095Y-107478571D01*
X95960714Y-107573809D01*
X89066666Y-107852142D02*
X89114285Y-107899761D01*
X89257142Y-107947380D01*
X89352380Y-107947380D01*
X89495238Y-107899761D01*
X89590476Y-107804523D01*
X89638095Y-107709285D01*
X89685714Y-107518809D01*
X89685714Y-107375952D01*
X89638095Y-107185476D01*
X89590476Y-107090238D01*
X89495238Y-106995000D01*
X89352380Y-106947380D01*
X89257142Y-106947380D01*
X89114285Y-106995000D01*
X89066666Y-107042619D01*
X88161904Y-106947380D02*
X88638095Y-106947380D01*
X88685714Y-107423571D01*
X88638095Y-107375952D01*
X88542857Y-107328333D01*
X88304761Y-107328333D01*
X88209523Y-107375952D01*
X88161904Y-107423571D01*
X88114285Y-107518809D01*
X88114285Y-107756904D01*
X88161904Y-107852142D01*
X88209523Y-107899761D01*
X88304761Y-107947380D01*
X88542857Y-107947380D01*
X88638095Y-107899761D01*
X88685714Y-107852142D01*
%LPC*%
D12*
X83275000Y-87500000D03*
X83275000Y-89500000D03*
X83275000Y-91500000D03*
G36*
G01*
X84000000Y-92825000D02*
X84000000Y-94175000D01*
G75*
G02*
X83950000Y-94225000I-50000J0D01*
G01*
X82600000Y-94225000D01*
G75*
G02*
X82550000Y-94175000I0J50000D01*
G01*
X82550000Y-92825000D01*
G75*
G02*
X82600000Y-92775000I50000J0D01*
G01*
X83950000Y-92775000D01*
G75*
G02*
X84000000Y-92825000I0J-50000D01*
G01*
G37*
X87400000Y-87500000D03*
X87400000Y-89500000D03*
X87400000Y-91500000D03*
G36*
G01*
X88125000Y-92825000D02*
X88125000Y-94175000D01*
G75*
G02*
X88075000Y-94225000I-50000J0D01*
G01*
X86725000Y-94225000D01*
G75*
G02*
X86675000Y-94175000I0J50000D01*
G01*
X86675000Y-92825000D01*
G75*
G02*
X86725000Y-92775000I50000J0D01*
G01*
X88075000Y-92775000D01*
G75*
G02*
X88125000Y-92825000I0J-50000D01*
G01*
G37*
G36*
G01*
X88750000Y-110575000D02*
X88750000Y-116175000D01*
G75*
G02*
X88700000Y-116225000I-50000J0D01*
G01*
X84600000Y-116225000D01*
G75*
G02*
X84550000Y-116175000I0J50000D01*
G01*
X84550000Y-110575000D01*
G75*
G02*
X84600000Y-110525000I50000J0D01*
G01*
X88700000Y-110525000D01*
G75*
G02*
X88750000Y-110575000I0J-50000D01*
G01*
G37*
G36*
G01*
X99850000Y-110575000D02*
X99850000Y-116175000D01*
G75*
G02*
X99800000Y-116225000I-50000J0D01*
G01*
X95700000Y-116225000D01*
G75*
G02*
X95650000Y-116175000I0J50000D01*
G01*
X95650000Y-110575000D01*
G75*
G02*
X95700000Y-110525000I50000J0D01*
G01*
X99800000Y-110525000D01*
G75*
G02*
X99850000Y-110575000I0J-50000D01*
G01*
G37*
G36*
G01*
X91900000Y-108625000D02*
X91900000Y-109225000D01*
G75*
G02*
X91675000Y-109450000I-225000J0D01*
G01*
X91225000Y-109450000D01*
G75*
G02*
X91000000Y-109225000I0J225000D01*
G01*
X91000000Y-108625000D01*
G75*
G02*
X91225000Y-108400000I225000J0D01*
G01*
X91675000Y-108400000D01*
G75*
G02*
X91900000Y-108625000I0J-225000D01*
G01*
G37*
G36*
G01*
X93550000Y-108625000D02*
X93550000Y-109225000D01*
G75*
G02*
X93325000Y-109450000I-225000J0D01*
G01*
X92875000Y-109450000D01*
G75*
G02*
X92650000Y-109225000I0J225000D01*
G01*
X92650000Y-108625000D01*
G75*
G02*
X92875000Y-108400000I225000J0D01*
G01*
X93325000Y-108400000D01*
G75*
G02*
X93550000Y-108625000I0J-225000D01*
G01*
G37*
G36*
G01*
X95900000Y-109200000D02*
X95900000Y-108650000D01*
G75*
G02*
X96150000Y-108400000I250000J0D01*
G01*
X96650000Y-108400000D01*
G75*
G02*
X96900000Y-108650000I0J-250000D01*
G01*
X96900000Y-109200000D01*
G75*
G02*
X96650000Y-109450000I-250000J0D01*
G01*
X96150000Y-109450000D01*
G75*
G02*
X95900000Y-109200000I0J250000D01*
G01*
G37*
G36*
G01*
X94350000Y-109200000D02*
X94350000Y-108650000D01*
G75*
G02*
X94600000Y-108400000I250000J0D01*
G01*
X95100000Y-108400000D01*
G75*
G02*
X95350000Y-108650000I0J-250000D01*
G01*
X95350000Y-109200000D01*
G75*
G02*
X95100000Y-109450000I-250000J0D01*
G01*
X94600000Y-109450000D01*
G75*
G02*
X94350000Y-109200000I0J250000D01*
G01*
G37*
G36*
G01*
X88625000Y-108650000D02*
X88625000Y-109200000D01*
G75*
G02*
X88375000Y-109450000I-250000J0D01*
G01*
X87875000Y-109450000D01*
G75*
G02*
X87625000Y-109200000I0J250000D01*
G01*
X87625000Y-108650000D01*
G75*
G02*
X87875000Y-108400000I250000J0D01*
G01*
X88375000Y-108400000D01*
G75*
G02*
X88625000Y-108650000I0J-250000D01*
G01*
G37*
G36*
G01*
X90175000Y-108650000D02*
X90175000Y-109200000D01*
G75*
G02*
X89925000Y-109450000I-250000J0D01*
G01*
X89425000Y-109450000D01*
G75*
G02*
X89175000Y-109200000I0J250000D01*
G01*
X89175000Y-108650000D01*
G75*
G02*
X89425000Y-108400000I250000J0D01*
G01*
X89925000Y-108400000D01*
G75*
G02*
X90175000Y-108650000I0J-250000D01*
G01*
G37*
M02*
