G04 #@! TF.GenerationSoftware,KiCad,Pcbnew,5.1.8*
G04 #@! TF.CreationDate,2021-01-23T15:50:44+08:00*
G04 #@! TF.ProjectId,medicine_timer_pcb,6d656469-6369-46e6-955f-74696d65725f,rev?*
G04 #@! TF.SameCoordinates,Original*
G04 #@! TF.FileFunction,Paste,Bot*
G04 #@! TF.FilePolarity,Positive*
%FSLAX46Y46*%
G04 Gerber Fmt 4.6, Leading zero omitted, Abs format (unit mm)*
G04 Created by KiCad (PCBNEW 5.1.8) date 2021-01-23 15:50:44*
%MOMM*%
%LPD*%
G01*
G04 APERTURE LIST*
%ADD10R,4.100000X5.600000*%
G04 APERTURE END LIST*
D10*
X86650000Y-113375000D03*
X97750000Y-113375000D03*
G36*
G01*
X91850000Y-108650000D02*
X91850000Y-109200000D01*
G75*
G02*
X91650000Y-109400000I-200000J0D01*
G01*
X91250000Y-109400000D01*
G75*
G02*
X91050000Y-109200000I0J200000D01*
G01*
X91050000Y-108650000D01*
G75*
G02*
X91250000Y-108450000I200000J0D01*
G01*
X91650000Y-108450000D01*
G75*
G02*
X91850000Y-108650000I0J-200000D01*
G01*
G37*
G36*
G01*
X93500000Y-108650000D02*
X93500000Y-109200000D01*
G75*
G02*
X93300000Y-109400000I-200000J0D01*
G01*
X92900000Y-109400000D01*
G75*
G02*
X92700000Y-109200000I0J200000D01*
G01*
X92700000Y-108650000D01*
G75*
G02*
X92900000Y-108450000I200000J0D01*
G01*
X93300000Y-108450000D01*
G75*
G02*
X93500000Y-108650000I0J-200000D01*
G01*
G37*
G36*
G01*
X95950000Y-109175000D02*
X95950000Y-108675000D01*
G75*
G02*
X96175000Y-108450000I225000J0D01*
G01*
X96625000Y-108450000D01*
G75*
G02*
X96850000Y-108675000I0J-225000D01*
G01*
X96850000Y-109175000D01*
G75*
G02*
X96625000Y-109400000I-225000J0D01*
G01*
X96175000Y-109400000D01*
G75*
G02*
X95950000Y-109175000I0J225000D01*
G01*
G37*
G36*
G01*
X94400000Y-109175000D02*
X94400000Y-108675000D01*
G75*
G02*
X94625000Y-108450000I225000J0D01*
G01*
X95075000Y-108450000D01*
G75*
G02*
X95300000Y-108675000I0J-225000D01*
G01*
X95300000Y-109175000D01*
G75*
G02*
X95075000Y-109400000I-225000J0D01*
G01*
X94625000Y-109400000D01*
G75*
G02*
X94400000Y-109175000I0J225000D01*
G01*
G37*
G36*
G01*
X88575000Y-108675000D02*
X88575000Y-109175000D01*
G75*
G02*
X88350000Y-109400000I-225000J0D01*
G01*
X87900000Y-109400000D01*
G75*
G02*
X87675000Y-109175000I0J225000D01*
G01*
X87675000Y-108675000D01*
G75*
G02*
X87900000Y-108450000I225000J0D01*
G01*
X88350000Y-108450000D01*
G75*
G02*
X88575000Y-108675000I0J-225000D01*
G01*
G37*
G36*
G01*
X90125000Y-108675000D02*
X90125000Y-109175000D01*
G75*
G02*
X89900000Y-109400000I-225000J0D01*
G01*
X89450000Y-109400000D01*
G75*
G02*
X89225000Y-109175000I0J225000D01*
G01*
X89225000Y-108675000D01*
G75*
G02*
X89450000Y-108450000I225000J0D01*
G01*
X89900000Y-108450000D01*
G75*
G02*
X90125000Y-108675000I0J-225000D01*
G01*
G37*
M02*
