G04 #@! TF.GenerationSoftware,KiCad,Pcbnew,5.1.8*
G04 #@! TF.CreationDate,2021-01-23T15:50:45+08:00*
G04 #@! TF.ProjectId,medicine_timer_pcb,6d656469-6369-46e6-955f-74696d65725f,rev?*
G04 #@! TF.SameCoordinates,Original*
G04 #@! TF.FileFunction,Soldermask,Bot*
G04 #@! TF.FilePolarity,Negative*
%FSLAX46Y46*%
G04 Gerber Fmt 4.6, Leading zero omitted, Abs format (unit mm)*
G04 Created by KiCad (PCBNEW 5.1.8) date 2021-01-23 15:50:45*
%MOMM*%
%LPD*%
G01*
G04 APERTURE LIST*
%ADD10O,1.450000X1.450000*%
G04 APERTURE END LIST*
D10*
X83275000Y-87500000D03*
X83275000Y-89500000D03*
X83275000Y-91500000D03*
G36*
G01*
X84000000Y-92825000D02*
X84000000Y-94175000D01*
G75*
G02*
X83950000Y-94225000I-50000J0D01*
G01*
X82600000Y-94225000D01*
G75*
G02*
X82550000Y-94175000I0J50000D01*
G01*
X82550000Y-92825000D01*
G75*
G02*
X82600000Y-92775000I50000J0D01*
G01*
X83950000Y-92775000D01*
G75*
G02*
X84000000Y-92825000I0J-50000D01*
G01*
G37*
X87400000Y-87500000D03*
X87400000Y-89500000D03*
X87400000Y-91500000D03*
G36*
G01*
X88125000Y-92825000D02*
X88125000Y-94175000D01*
G75*
G02*
X88075000Y-94225000I-50000J0D01*
G01*
X86725000Y-94225000D01*
G75*
G02*
X86675000Y-94175000I0J50000D01*
G01*
X86675000Y-92825000D01*
G75*
G02*
X86725000Y-92775000I50000J0D01*
G01*
X88075000Y-92775000D01*
G75*
G02*
X88125000Y-92825000I0J-50000D01*
G01*
G37*
G36*
G01*
X88750000Y-110575000D02*
X88750000Y-116175000D01*
G75*
G02*
X88700000Y-116225000I-50000J0D01*
G01*
X84600000Y-116225000D01*
G75*
G02*
X84550000Y-116175000I0J50000D01*
G01*
X84550000Y-110575000D01*
G75*
G02*
X84600000Y-110525000I50000J0D01*
G01*
X88700000Y-110525000D01*
G75*
G02*
X88750000Y-110575000I0J-50000D01*
G01*
G37*
G36*
G01*
X99850000Y-110575000D02*
X99850000Y-116175000D01*
G75*
G02*
X99800000Y-116225000I-50000J0D01*
G01*
X95700000Y-116225000D01*
G75*
G02*
X95650000Y-116175000I0J50000D01*
G01*
X95650000Y-110575000D01*
G75*
G02*
X95700000Y-110525000I50000J0D01*
G01*
X99800000Y-110525000D01*
G75*
G02*
X99850000Y-110575000I0J-50000D01*
G01*
G37*
G36*
G01*
X91900000Y-108625000D02*
X91900000Y-109225000D01*
G75*
G02*
X91675000Y-109450000I-225000J0D01*
G01*
X91225000Y-109450000D01*
G75*
G02*
X91000000Y-109225000I0J225000D01*
G01*
X91000000Y-108625000D01*
G75*
G02*
X91225000Y-108400000I225000J0D01*
G01*
X91675000Y-108400000D01*
G75*
G02*
X91900000Y-108625000I0J-225000D01*
G01*
G37*
G36*
G01*
X93550000Y-108625000D02*
X93550000Y-109225000D01*
G75*
G02*
X93325000Y-109450000I-225000J0D01*
G01*
X92875000Y-109450000D01*
G75*
G02*
X92650000Y-109225000I0J225000D01*
G01*
X92650000Y-108625000D01*
G75*
G02*
X92875000Y-108400000I225000J0D01*
G01*
X93325000Y-108400000D01*
G75*
G02*
X93550000Y-108625000I0J-225000D01*
G01*
G37*
G36*
G01*
X95900000Y-109200000D02*
X95900000Y-108650000D01*
G75*
G02*
X96150000Y-108400000I250000J0D01*
G01*
X96650000Y-108400000D01*
G75*
G02*
X96900000Y-108650000I0J-250000D01*
G01*
X96900000Y-109200000D01*
G75*
G02*
X96650000Y-109450000I-250000J0D01*
G01*
X96150000Y-109450000D01*
G75*
G02*
X95900000Y-109200000I0J250000D01*
G01*
G37*
G36*
G01*
X94350000Y-109200000D02*
X94350000Y-108650000D01*
G75*
G02*
X94600000Y-108400000I250000J0D01*
G01*
X95100000Y-108400000D01*
G75*
G02*
X95350000Y-108650000I0J-250000D01*
G01*
X95350000Y-109200000D01*
G75*
G02*
X95100000Y-109450000I-250000J0D01*
G01*
X94600000Y-109450000D01*
G75*
G02*
X94350000Y-109200000I0J250000D01*
G01*
G37*
G36*
G01*
X88625000Y-108650000D02*
X88625000Y-109200000D01*
G75*
G02*
X88375000Y-109450000I-250000J0D01*
G01*
X87875000Y-109450000D01*
G75*
G02*
X87625000Y-109200000I0J250000D01*
G01*
X87625000Y-108650000D01*
G75*
G02*
X87875000Y-108400000I250000J0D01*
G01*
X88375000Y-108400000D01*
G75*
G02*
X88625000Y-108650000I0J-250000D01*
G01*
G37*
G36*
G01*
X90175000Y-108650000D02*
X90175000Y-109200000D01*
G75*
G02*
X89925000Y-109450000I-250000J0D01*
G01*
X89425000Y-109450000D01*
G75*
G02*
X89175000Y-109200000I0J250000D01*
G01*
X89175000Y-108650000D01*
G75*
G02*
X89425000Y-108400000I250000J0D01*
G01*
X89925000Y-108400000D01*
G75*
G02*
X90175000Y-108650000I0J-250000D01*
G01*
G37*
M02*
