G04 #@! TF.GenerationSoftware,KiCad,Pcbnew,5.1.8*
G04 #@! TF.CreationDate,2021-01-23T15:50:44+08:00*
G04 #@! TF.ProjectId,medicine_timer_pcb,6d656469-6369-46e6-955f-74696d65725f,rev?*
G04 #@! TF.SameCoordinates,Original*
G04 #@! TF.FileFunction,Paste,Top*
G04 #@! TF.FilePolarity,Positive*
%FSLAX46Y46*%
G04 Gerber Fmt 4.6, Leading zero omitted, Abs format (unit mm)*
G04 Created by KiCad (PCBNEW 5.1.8) date 2021-01-23 15:50:44*
%MOMM*%
%LPD*%
G01*
G04 APERTURE LIST*
%ADD10R,0.450000X1.380000*%
%ADD11R,1.425000X1.550000*%
%ADD12R,1.650000X1.100000*%
%ADD13R,1.000000X1.800000*%
%ADD14R,2.000000X2.200000*%
%ADD15C,2.000000*%
%ADD16R,0.900000X1.200000*%
%ADD17R,0.900000X0.800000*%
%ADD18R,1.600000X2.180000*%
%ADD19R,1.400000X1.600000*%
%ADD20R,0.650000X1.220000*%
G04 APERTURE END LIST*
D10*
X101300000Y-80260000D03*
X100650000Y-80260000D03*
X100000000Y-80260000D03*
X99350000Y-80260000D03*
X98700000Y-80260000D03*
D11*
X102487500Y-80175000D03*
X97512500Y-80175000D03*
D12*
X103375000Y-77700000D03*
X96625000Y-77700000D03*
D13*
X88850000Y-114300000D03*
X86350000Y-114300000D03*
D14*
X116500000Y-97500000D03*
D15*
X116500000Y-102500000D03*
G36*
G01*
X97800000Y-84875000D02*
X97800000Y-84325000D01*
G75*
G02*
X98000000Y-84125000I200000J0D01*
G01*
X98400000Y-84125000D01*
G75*
G02*
X98600000Y-84325000I0J-200000D01*
G01*
X98600000Y-84875000D01*
G75*
G02*
X98400000Y-85075000I-200000J0D01*
G01*
X98000000Y-85075000D01*
G75*
G02*
X97800000Y-84875000I0J200000D01*
G01*
G37*
G36*
G01*
X96150000Y-84875000D02*
X96150000Y-84325000D01*
G75*
G02*
X96350000Y-84125000I200000J0D01*
G01*
X96750000Y-84125000D01*
G75*
G02*
X96950000Y-84325000I0J-200000D01*
G01*
X96950000Y-84875000D01*
G75*
G02*
X96750000Y-85075000I-200000J0D01*
G01*
X96350000Y-85075000D01*
G75*
G02*
X96150000Y-84875000I0J200000D01*
G01*
G37*
D16*
X106225000Y-81750000D03*
X109525000Y-81750000D03*
G36*
G01*
X85650000Y-106950000D02*
X84325000Y-106950000D01*
G75*
G02*
X84250000Y-106875000I0J75000D01*
G01*
X84250000Y-106725000D01*
G75*
G02*
X84325000Y-106650000I75000J0D01*
G01*
X85650000Y-106650000D01*
G75*
G02*
X85725000Y-106725000I0J-75000D01*
G01*
X85725000Y-106875000D01*
G75*
G02*
X85650000Y-106950000I-75000J0D01*
G01*
G37*
G36*
G01*
X85650000Y-106450000D02*
X84325000Y-106450000D01*
G75*
G02*
X84250000Y-106375000I0J75000D01*
G01*
X84250000Y-106225000D01*
G75*
G02*
X84325000Y-106150000I75000J0D01*
G01*
X85650000Y-106150000D01*
G75*
G02*
X85725000Y-106225000I0J-75000D01*
G01*
X85725000Y-106375000D01*
G75*
G02*
X85650000Y-106450000I-75000J0D01*
G01*
G37*
G36*
G01*
X85650000Y-105950000D02*
X84325000Y-105950000D01*
G75*
G02*
X84250000Y-105875000I0J75000D01*
G01*
X84250000Y-105725000D01*
G75*
G02*
X84325000Y-105650000I75000J0D01*
G01*
X85650000Y-105650000D01*
G75*
G02*
X85725000Y-105725000I0J-75000D01*
G01*
X85725000Y-105875000D01*
G75*
G02*
X85650000Y-105950000I-75000J0D01*
G01*
G37*
G36*
G01*
X85650000Y-105450000D02*
X84325000Y-105450000D01*
G75*
G02*
X84250000Y-105375000I0J75000D01*
G01*
X84250000Y-105225000D01*
G75*
G02*
X84325000Y-105150000I75000J0D01*
G01*
X85650000Y-105150000D01*
G75*
G02*
X85725000Y-105225000I0J-75000D01*
G01*
X85725000Y-105375000D01*
G75*
G02*
X85650000Y-105450000I-75000J0D01*
G01*
G37*
G36*
G01*
X85650000Y-104950000D02*
X84325000Y-104950000D01*
G75*
G02*
X84250000Y-104875000I0J75000D01*
G01*
X84250000Y-104725000D01*
G75*
G02*
X84325000Y-104650000I75000J0D01*
G01*
X85650000Y-104650000D01*
G75*
G02*
X85725000Y-104725000I0J-75000D01*
G01*
X85725000Y-104875000D01*
G75*
G02*
X85650000Y-104950000I-75000J0D01*
G01*
G37*
G36*
G01*
X85650000Y-104450000D02*
X84325000Y-104450000D01*
G75*
G02*
X84250000Y-104375000I0J75000D01*
G01*
X84250000Y-104225000D01*
G75*
G02*
X84325000Y-104150000I75000J0D01*
G01*
X85650000Y-104150000D01*
G75*
G02*
X85725000Y-104225000I0J-75000D01*
G01*
X85725000Y-104375000D01*
G75*
G02*
X85650000Y-104450000I-75000J0D01*
G01*
G37*
G36*
G01*
X85650000Y-103950000D02*
X84325000Y-103950000D01*
G75*
G02*
X84250000Y-103875000I0J75000D01*
G01*
X84250000Y-103725000D01*
G75*
G02*
X84325000Y-103650000I75000J0D01*
G01*
X85650000Y-103650000D01*
G75*
G02*
X85725000Y-103725000I0J-75000D01*
G01*
X85725000Y-103875000D01*
G75*
G02*
X85650000Y-103950000I-75000J0D01*
G01*
G37*
G36*
G01*
X85650000Y-103450000D02*
X84325000Y-103450000D01*
G75*
G02*
X84250000Y-103375000I0J75000D01*
G01*
X84250000Y-103225000D01*
G75*
G02*
X84325000Y-103150000I75000J0D01*
G01*
X85650000Y-103150000D01*
G75*
G02*
X85725000Y-103225000I0J-75000D01*
G01*
X85725000Y-103375000D01*
G75*
G02*
X85650000Y-103450000I-75000J0D01*
G01*
G37*
G36*
G01*
X85650000Y-102950000D02*
X84325000Y-102950000D01*
G75*
G02*
X84250000Y-102875000I0J75000D01*
G01*
X84250000Y-102725000D01*
G75*
G02*
X84325000Y-102650000I75000J0D01*
G01*
X85650000Y-102650000D01*
G75*
G02*
X85725000Y-102725000I0J-75000D01*
G01*
X85725000Y-102875000D01*
G75*
G02*
X85650000Y-102950000I-75000J0D01*
G01*
G37*
G36*
G01*
X85650000Y-102450000D02*
X84325000Y-102450000D01*
G75*
G02*
X84250000Y-102375000I0J75000D01*
G01*
X84250000Y-102225000D01*
G75*
G02*
X84325000Y-102150000I75000J0D01*
G01*
X85650000Y-102150000D01*
G75*
G02*
X85725000Y-102225000I0J-75000D01*
G01*
X85725000Y-102375000D01*
G75*
G02*
X85650000Y-102450000I-75000J0D01*
G01*
G37*
G36*
G01*
X85650000Y-101950000D02*
X84325000Y-101950000D01*
G75*
G02*
X84250000Y-101875000I0J75000D01*
G01*
X84250000Y-101725000D01*
G75*
G02*
X84325000Y-101650000I75000J0D01*
G01*
X85650000Y-101650000D01*
G75*
G02*
X85725000Y-101725000I0J-75000D01*
G01*
X85725000Y-101875000D01*
G75*
G02*
X85650000Y-101950000I-75000J0D01*
G01*
G37*
G36*
G01*
X85650000Y-101450000D02*
X84325000Y-101450000D01*
G75*
G02*
X84250000Y-101375000I0J75000D01*
G01*
X84250000Y-101225000D01*
G75*
G02*
X84325000Y-101150000I75000J0D01*
G01*
X85650000Y-101150000D01*
G75*
G02*
X85725000Y-101225000I0J-75000D01*
G01*
X85725000Y-101375000D01*
G75*
G02*
X85650000Y-101450000I-75000J0D01*
G01*
G37*
G36*
G01*
X86475000Y-100625000D02*
X86325000Y-100625000D01*
G75*
G02*
X86250000Y-100550000I0J75000D01*
G01*
X86250000Y-99225000D01*
G75*
G02*
X86325000Y-99150000I75000J0D01*
G01*
X86475000Y-99150000D01*
G75*
G02*
X86550000Y-99225000I0J-75000D01*
G01*
X86550000Y-100550000D01*
G75*
G02*
X86475000Y-100625000I-75000J0D01*
G01*
G37*
G36*
G01*
X86975000Y-100625000D02*
X86825000Y-100625000D01*
G75*
G02*
X86750000Y-100550000I0J75000D01*
G01*
X86750000Y-99225000D01*
G75*
G02*
X86825000Y-99150000I75000J0D01*
G01*
X86975000Y-99150000D01*
G75*
G02*
X87050000Y-99225000I0J-75000D01*
G01*
X87050000Y-100550000D01*
G75*
G02*
X86975000Y-100625000I-75000J0D01*
G01*
G37*
G36*
G01*
X87475000Y-100625000D02*
X87325000Y-100625000D01*
G75*
G02*
X87250000Y-100550000I0J75000D01*
G01*
X87250000Y-99225000D01*
G75*
G02*
X87325000Y-99150000I75000J0D01*
G01*
X87475000Y-99150000D01*
G75*
G02*
X87550000Y-99225000I0J-75000D01*
G01*
X87550000Y-100550000D01*
G75*
G02*
X87475000Y-100625000I-75000J0D01*
G01*
G37*
G36*
G01*
X87975000Y-100625000D02*
X87825000Y-100625000D01*
G75*
G02*
X87750000Y-100550000I0J75000D01*
G01*
X87750000Y-99225000D01*
G75*
G02*
X87825000Y-99150000I75000J0D01*
G01*
X87975000Y-99150000D01*
G75*
G02*
X88050000Y-99225000I0J-75000D01*
G01*
X88050000Y-100550000D01*
G75*
G02*
X87975000Y-100625000I-75000J0D01*
G01*
G37*
G36*
G01*
X88475000Y-100625000D02*
X88325000Y-100625000D01*
G75*
G02*
X88250000Y-100550000I0J75000D01*
G01*
X88250000Y-99225000D01*
G75*
G02*
X88325000Y-99150000I75000J0D01*
G01*
X88475000Y-99150000D01*
G75*
G02*
X88550000Y-99225000I0J-75000D01*
G01*
X88550000Y-100550000D01*
G75*
G02*
X88475000Y-100625000I-75000J0D01*
G01*
G37*
G36*
G01*
X88975000Y-100625000D02*
X88825000Y-100625000D01*
G75*
G02*
X88750000Y-100550000I0J75000D01*
G01*
X88750000Y-99225000D01*
G75*
G02*
X88825000Y-99150000I75000J0D01*
G01*
X88975000Y-99150000D01*
G75*
G02*
X89050000Y-99225000I0J-75000D01*
G01*
X89050000Y-100550000D01*
G75*
G02*
X88975000Y-100625000I-75000J0D01*
G01*
G37*
G36*
G01*
X89475000Y-100625000D02*
X89325000Y-100625000D01*
G75*
G02*
X89250000Y-100550000I0J75000D01*
G01*
X89250000Y-99225000D01*
G75*
G02*
X89325000Y-99150000I75000J0D01*
G01*
X89475000Y-99150000D01*
G75*
G02*
X89550000Y-99225000I0J-75000D01*
G01*
X89550000Y-100550000D01*
G75*
G02*
X89475000Y-100625000I-75000J0D01*
G01*
G37*
G36*
G01*
X89975000Y-100625000D02*
X89825000Y-100625000D01*
G75*
G02*
X89750000Y-100550000I0J75000D01*
G01*
X89750000Y-99225000D01*
G75*
G02*
X89825000Y-99150000I75000J0D01*
G01*
X89975000Y-99150000D01*
G75*
G02*
X90050000Y-99225000I0J-75000D01*
G01*
X90050000Y-100550000D01*
G75*
G02*
X89975000Y-100625000I-75000J0D01*
G01*
G37*
G36*
G01*
X90475000Y-100625000D02*
X90325000Y-100625000D01*
G75*
G02*
X90250000Y-100550000I0J75000D01*
G01*
X90250000Y-99225000D01*
G75*
G02*
X90325000Y-99150000I75000J0D01*
G01*
X90475000Y-99150000D01*
G75*
G02*
X90550000Y-99225000I0J-75000D01*
G01*
X90550000Y-100550000D01*
G75*
G02*
X90475000Y-100625000I-75000J0D01*
G01*
G37*
G36*
G01*
X90975000Y-100625000D02*
X90825000Y-100625000D01*
G75*
G02*
X90750000Y-100550000I0J75000D01*
G01*
X90750000Y-99225000D01*
G75*
G02*
X90825000Y-99150000I75000J0D01*
G01*
X90975000Y-99150000D01*
G75*
G02*
X91050000Y-99225000I0J-75000D01*
G01*
X91050000Y-100550000D01*
G75*
G02*
X90975000Y-100625000I-75000J0D01*
G01*
G37*
G36*
G01*
X91475000Y-100625000D02*
X91325000Y-100625000D01*
G75*
G02*
X91250000Y-100550000I0J75000D01*
G01*
X91250000Y-99225000D01*
G75*
G02*
X91325000Y-99150000I75000J0D01*
G01*
X91475000Y-99150000D01*
G75*
G02*
X91550000Y-99225000I0J-75000D01*
G01*
X91550000Y-100550000D01*
G75*
G02*
X91475000Y-100625000I-75000J0D01*
G01*
G37*
G36*
G01*
X91975000Y-100625000D02*
X91825000Y-100625000D01*
G75*
G02*
X91750000Y-100550000I0J75000D01*
G01*
X91750000Y-99225000D01*
G75*
G02*
X91825000Y-99150000I75000J0D01*
G01*
X91975000Y-99150000D01*
G75*
G02*
X92050000Y-99225000I0J-75000D01*
G01*
X92050000Y-100550000D01*
G75*
G02*
X91975000Y-100625000I-75000J0D01*
G01*
G37*
G36*
G01*
X93975000Y-101450000D02*
X92650000Y-101450000D01*
G75*
G02*
X92575000Y-101375000I0J75000D01*
G01*
X92575000Y-101225000D01*
G75*
G02*
X92650000Y-101150000I75000J0D01*
G01*
X93975000Y-101150000D01*
G75*
G02*
X94050000Y-101225000I0J-75000D01*
G01*
X94050000Y-101375000D01*
G75*
G02*
X93975000Y-101450000I-75000J0D01*
G01*
G37*
G36*
G01*
X93975000Y-101950000D02*
X92650000Y-101950000D01*
G75*
G02*
X92575000Y-101875000I0J75000D01*
G01*
X92575000Y-101725000D01*
G75*
G02*
X92650000Y-101650000I75000J0D01*
G01*
X93975000Y-101650000D01*
G75*
G02*
X94050000Y-101725000I0J-75000D01*
G01*
X94050000Y-101875000D01*
G75*
G02*
X93975000Y-101950000I-75000J0D01*
G01*
G37*
G36*
G01*
X93975000Y-102450000D02*
X92650000Y-102450000D01*
G75*
G02*
X92575000Y-102375000I0J75000D01*
G01*
X92575000Y-102225000D01*
G75*
G02*
X92650000Y-102150000I75000J0D01*
G01*
X93975000Y-102150000D01*
G75*
G02*
X94050000Y-102225000I0J-75000D01*
G01*
X94050000Y-102375000D01*
G75*
G02*
X93975000Y-102450000I-75000J0D01*
G01*
G37*
G36*
G01*
X93975000Y-102950000D02*
X92650000Y-102950000D01*
G75*
G02*
X92575000Y-102875000I0J75000D01*
G01*
X92575000Y-102725000D01*
G75*
G02*
X92650000Y-102650000I75000J0D01*
G01*
X93975000Y-102650000D01*
G75*
G02*
X94050000Y-102725000I0J-75000D01*
G01*
X94050000Y-102875000D01*
G75*
G02*
X93975000Y-102950000I-75000J0D01*
G01*
G37*
G36*
G01*
X93975000Y-103450000D02*
X92650000Y-103450000D01*
G75*
G02*
X92575000Y-103375000I0J75000D01*
G01*
X92575000Y-103225000D01*
G75*
G02*
X92650000Y-103150000I75000J0D01*
G01*
X93975000Y-103150000D01*
G75*
G02*
X94050000Y-103225000I0J-75000D01*
G01*
X94050000Y-103375000D01*
G75*
G02*
X93975000Y-103450000I-75000J0D01*
G01*
G37*
G36*
G01*
X93975000Y-103950000D02*
X92650000Y-103950000D01*
G75*
G02*
X92575000Y-103875000I0J75000D01*
G01*
X92575000Y-103725000D01*
G75*
G02*
X92650000Y-103650000I75000J0D01*
G01*
X93975000Y-103650000D01*
G75*
G02*
X94050000Y-103725000I0J-75000D01*
G01*
X94050000Y-103875000D01*
G75*
G02*
X93975000Y-103950000I-75000J0D01*
G01*
G37*
G36*
G01*
X93975000Y-104450000D02*
X92650000Y-104450000D01*
G75*
G02*
X92575000Y-104375000I0J75000D01*
G01*
X92575000Y-104225000D01*
G75*
G02*
X92650000Y-104150000I75000J0D01*
G01*
X93975000Y-104150000D01*
G75*
G02*
X94050000Y-104225000I0J-75000D01*
G01*
X94050000Y-104375000D01*
G75*
G02*
X93975000Y-104450000I-75000J0D01*
G01*
G37*
G36*
G01*
X93975000Y-104950000D02*
X92650000Y-104950000D01*
G75*
G02*
X92575000Y-104875000I0J75000D01*
G01*
X92575000Y-104725000D01*
G75*
G02*
X92650000Y-104650000I75000J0D01*
G01*
X93975000Y-104650000D01*
G75*
G02*
X94050000Y-104725000I0J-75000D01*
G01*
X94050000Y-104875000D01*
G75*
G02*
X93975000Y-104950000I-75000J0D01*
G01*
G37*
G36*
G01*
X93975000Y-105450000D02*
X92650000Y-105450000D01*
G75*
G02*
X92575000Y-105375000I0J75000D01*
G01*
X92575000Y-105225000D01*
G75*
G02*
X92650000Y-105150000I75000J0D01*
G01*
X93975000Y-105150000D01*
G75*
G02*
X94050000Y-105225000I0J-75000D01*
G01*
X94050000Y-105375000D01*
G75*
G02*
X93975000Y-105450000I-75000J0D01*
G01*
G37*
G36*
G01*
X93975000Y-105950000D02*
X92650000Y-105950000D01*
G75*
G02*
X92575000Y-105875000I0J75000D01*
G01*
X92575000Y-105725000D01*
G75*
G02*
X92650000Y-105650000I75000J0D01*
G01*
X93975000Y-105650000D01*
G75*
G02*
X94050000Y-105725000I0J-75000D01*
G01*
X94050000Y-105875000D01*
G75*
G02*
X93975000Y-105950000I-75000J0D01*
G01*
G37*
G36*
G01*
X93975000Y-106450000D02*
X92650000Y-106450000D01*
G75*
G02*
X92575000Y-106375000I0J75000D01*
G01*
X92575000Y-106225000D01*
G75*
G02*
X92650000Y-106150000I75000J0D01*
G01*
X93975000Y-106150000D01*
G75*
G02*
X94050000Y-106225000I0J-75000D01*
G01*
X94050000Y-106375000D01*
G75*
G02*
X93975000Y-106450000I-75000J0D01*
G01*
G37*
G36*
G01*
X93975000Y-106950000D02*
X92650000Y-106950000D01*
G75*
G02*
X92575000Y-106875000I0J75000D01*
G01*
X92575000Y-106725000D01*
G75*
G02*
X92650000Y-106650000I75000J0D01*
G01*
X93975000Y-106650000D01*
G75*
G02*
X94050000Y-106725000I0J-75000D01*
G01*
X94050000Y-106875000D01*
G75*
G02*
X93975000Y-106950000I-75000J0D01*
G01*
G37*
G36*
G01*
X91975000Y-108950000D02*
X91825000Y-108950000D01*
G75*
G02*
X91750000Y-108875000I0J75000D01*
G01*
X91750000Y-107550000D01*
G75*
G02*
X91825000Y-107475000I75000J0D01*
G01*
X91975000Y-107475000D01*
G75*
G02*
X92050000Y-107550000I0J-75000D01*
G01*
X92050000Y-108875000D01*
G75*
G02*
X91975000Y-108950000I-75000J0D01*
G01*
G37*
G36*
G01*
X91475000Y-108950000D02*
X91325000Y-108950000D01*
G75*
G02*
X91250000Y-108875000I0J75000D01*
G01*
X91250000Y-107550000D01*
G75*
G02*
X91325000Y-107475000I75000J0D01*
G01*
X91475000Y-107475000D01*
G75*
G02*
X91550000Y-107550000I0J-75000D01*
G01*
X91550000Y-108875000D01*
G75*
G02*
X91475000Y-108950000I-75000J0D01*
G01*
G37*
G36*
G01*
X90975000Y-108950000D02*
X90825000Y-108950000D01*
G75*
G02*
X90750000Y-108875000I0J75000D01*
G01*
X90750000Y-107550000D01*
G75*
G02*
X90825000Y-107475000I75000J0D01*
G01*
X90975000Y-107475000D01*
G75*
G02*
X91050000Y-107550000I0J-75000D01*
G01*
X91050000Y-108875000D01*
G75*
G02*
X90975000Y-108950000I-75000J0D01*
G01*
G37*
G36*
G01*
X90475000Y-108950000D02*
X90325000Y-108950000D01*
G75*
G02*
X90250000Y-108875000I0J75000D01*
G01*
X90250000Y-107550000D01*
G75*
G02*
X90325000Y-107475000I75000J0D01*
G01*
X90475000Y-107475000D01*
G75*
G02*
X90550000Y-107550000I0J-75000D01*
G01*
X90550000Y-108875000D01*
G75*
G02*
X90475000Y-108950000I-75000J0D01*
G01*
G37*
G36*
G01*
X89975000Y-108950000D02*
X89825000Y-108950000D01*
G75*
G02*
X89750000Y-108875000I0J75000D01*
G01*
X89750000Y-107550000D01*
G75*
G02*
X89825000Y-107475000I75000J0D01*
G01*
X89975000Y-107475000D01*
G75*
G02*
X90050000Y-107550000I0J-75000D01*
G01*
X90050000Y-108875000D01*
G75*
G02*
X89975000Y-108950000I-75000J0D01*
G01*
G37*
G36*
G01*
X89475000Y-108950000D02*
X89325000Y-108950000D01*
G75*
G02*
X89250000Y-108875000I0J75000D01*
G01*
X89250000Y-107550000D01*
G75*
G02*
X89325000Y-107475000I75000J0D01*
G01*
X89475000Y-107475000D01*
G75*
G02*
X89550000Y-107550000I0J-75000D01*
G01*
X89550000Y-108875000D01*
G75*
G02*
X89475000Y-108950000I-75000J0D01*
G01*
G37*
G36*
G01*
X88975000Y-108950000D02*
X88825000Y-108950000D01*
G75*
G02*
X88750000Y-108875000I0J75000D01*
G01*
X88750000Y-107550000D01*
G75*
G02*
X88825000Y-107475000I75000J0D01*
G01*
X88975000Y-107475000D01*
G75*
G02*
X89050000Y-107550000I0J-75000D01*
G01*
X89050000Y-108875000D01*
G75*
G02*
X88975000Y-108950000I-75000J0D01*
G01*
G37*
G36*
G01*
X88475000Y-108950000D02*
X88325000Y-108950000D01*
G75*
G02*
X88250000Y-108875000I0J75000D01*
G01*
X88250000Y-107550000D01*
G75*
G02*
X88325000Y-107475000I75000J0D01*
G01*
X88475000Y-107475000D01*
G75*
G02*
X88550000Y-107550000I0J-75000D01*
G01*
X88550000Y-108875000D01*
G75*
G02*
X88475000Y-108950000I-75000J0D01*
G01*
G37*
G36*
G01*
X87975000Y-108950000D02*
X87825000Y-108950000D01*
G75*
G02*
X87750000Y-108875000I0J75000D01*
G01*
X87750000Y-107550000D01*
G75*
G02*
X87825000Y-107475000I75000J0D01*
G01*
X87975000Y-107475000D01*
G75*
G02*
X88050000Y-107550000I0J-75000D01*
G01*
X88050000Y-108875000D01*
G75*
G02*
X87975000Y-108950000I-75000J0D01*
G01*
G37*
G36*
G01*
X87475000Y-108950000D02*
X87325000Y-108950000D01*
G75*
G02*
X87250000Y-108875000I0J75000D01*
G01*
X87250000Y-107550000D01*
G75*
G02*
X87325000Y-107475000I75000J0D01*
G01*
X87475000Y-107475000D01*
G75*
G02*
X87550000Y-107550000I0J-75000D01*
G01*
X87550000Y-108875000D01*
G75*
G02*
X87475000Y-108950000I-75000J0D01*
G01*
G37*
G36*
G01*
X86975000Y-108950000D02*
X86825000Y-108950000D01*
G75*
G02*
X86750000Y-108875000I0J75000D01*
G01*
X86750000Y-107550000D01*
G75*
G02*
X86825000Y-107475000I75000J0D01*
G01*
X86975000Y-107475000D01*
G75*
G02*
X87050000Y-107550000I0J-75000D01*
G01*
X87050000Y-108875000D01*
G75*
G02*
X86975000Y-108950000I-75000J0D01*
G01*
G37*
G36*
G01*
X86475000Y-108950000D02*
X86325000Y-108950000D01*
G75*
G02*
X86250000Y-108875000I0J75000D01*
G01*
X86250000Y-107550000D01*
G75*
G02*
X86325000Y-107475000I75000J0D01*
G01*
X86475000Y-107475000D01*
G75*
G02*
X86550000Y-107550000I0J-75000D01*
G01*
X86550000Y-108875000D01*
G75*
G02*
X86475000Y-108950000I-75000J0D01*
G01*
G37*
D17*
X114875000Y-93125000D03*
X112875000Y-94075000D03*
X112875000Y-92175000D03*
D18*
X107450000Y-94185000D03*
X107450000Y-103365000D03*
D19*
X97750000Y-96000000D03*
X97750000Y-104000000D03*
X102250000Y-96000000D03*
X102250000Y-104000000D03*
D20*
X112950000Y-86165000D03*
X114850000Y-86165000D03*
X114850000Y-88785000D03*
X113900000Y-88785000D03*
X112950000Y-88785000D03*
G36*
G01*
X113750000Y-107175000D02*
X113750000Y-107725000D01*
G75*
G02*
X113550000Y-107925000I-200000J0D01*
G01*
X113150000Y-107925000D01*
G75*
G02*
X112950000Y-107725000I0J200000D01*
G01*
X112950000Y-107175000D01*
G75*
G02*
X113150000Y-106975000I200000J0D01*
G01*
X113550000Y-106975000D01*
G75*
G02*
X113750000Y-107175000I0J-200000D01*
G01*
G37*
G36*
G01*
X115400000Y-107175000D02*
X115400000Y-107725000D01*
G75*
G02*
X115200000Y-107925000I-200000J0D01*
G01*
X114800000Y-107925000D01*
G75*
G02*
X114600000Y-107725000I0J200000D01*
G01*
X114600000Y-107175000D01*
G75*
G02*
X114800000Y-106975000I200000J0D01*
G01*
X115200000Y-106975000D01*
G75*
G02*
X115400000Y-107175000I0J-200000D01*
G01*
G37*
G36*
G01*
X82275000Y-104800000D02*
X82825000Y-104800000D01*
G75*
G02*
X83025000Y-105000000I0J-200000D01*
G01*
X83025000Y-105400000D01*
G75*
G02*
X82825000Y-105600000I-200000J0D01*
G01*
X82275000Y-105600000D01*
G75*
G02*
X82075000Y-105400000I0J200000D01*
G01*
X82075000Y-105000000D01*
G75*
G02*
X82275000Y-104800000I200000J0D01*
G01*
G37*
G36*
G01*
X82275000Y-103150000D02*
X82825000Y-103150000D01*
G75*
G02*
X83025000Y-103350000I0J-200000D01*
G01*
X83025000Y-103750000D01*
G75*
G02*
X82825000Y-103950000I-200000J0D01*
G01*
X82275000Y-103950000D01*
G75*
G02*
X82075000Y-103750000I0J200000D01*
G01*
X82075000Y-103350000D01*
G75*
G02*
X82275000Y-103150000I200000J0D01*
G01*
G37*
G36*
G01*
X103250000Y-90550000D02*
X103250000Y-91100000D01*
G75*
G02*
X103050000Y-91300000I-200000J0D01*
G01*
X102650000Y-91300000D01*
G75*
G02*
X102450000Y-91100000I0J200000D01*
G01*
X102450000Y-90550000D01*
G75*
G02*
X102650000Y-90350000I200000J0D01*
G01*
X103050000Y-90350000D01*
G75*
G02*
X103250000Y-90550000I0J-200000D01*
G01*
G37*
G36*
G01*
X104900000Y-90550000D02*
X104900000Y-91100000D01*
G75*
G02*
X104700000Y-91300000I-200000J0D01*
G01*
X104300000Y-91300000D01*
G75*
G02*
X104100000Y-91100000I0J200000D01*
G01*
X104100000Y-90550000D01*
G75*
G02*
X104300000Y-90350000I200000J0D01*
G01*
X104700000Y-90350000D01*
G75*
G02*
X104900000Y-90550000I0J-200000D01*
G01*
G37*
G36*
G01*
X104700000Y-86775000D02*
X104150000Y-86775000D01*
G75*
G02*
X103950000Y-86575000I0J200000D01*
G01*
X103950000Y-86175000D01*
G75*
G02*
X104150000Y-85975000I200000J0D01*
G01*
X104700000Y-85975000D01*
G75*
G02*
X104900000Y-86175000I0J-200000D01*
G01*
X104900000Y-86575000D01*
G75*
G02*
X104700000Y-86775000I-200000J0D01*
G01*
G37*
G36*
G01*
X104700000Y-88425000D02*
X104150000Y-88425000D01*
G75*
G02*
X103950000Y-88225000I0J200000D01*
G01*
X103950000Y-87825000D01*
G75*
G02*
X104150000Y-87625000I200000J0D01*
G01*
X104700000Y-87625000D01*
G75*
G02*
X104900000Y-87825000I0J-200000D01*
G01*
X104900000Y-88225000D01*
G75*
G02*
X104700000Y-88425000I-200000J0D01*
G01*
G37*
G36*
G01*
X113725000Y-112675000D02*
X113725000Y-113225000D01*
G75*
G02*
X113525000Y-113425000I-200000J0D01*
G01*
X113125000Y-113425000D01*
G75*
G02*
X112925000Y-113225000I0J200000D01*
G01*
X112925000Y-112675000D01*
G75*
G02*
X113125000Y-112475000I200000J0D01*
G01*
X113525000Y-112475000D01*
G75*
G02*
X113725000Y-112675000I0J-200000D01*
G01*
G37*
G36*
G01*
X115375000Y-112675000D02*
X115375000Y-113225000D01*
G75*
G02*
X115175000Y-113425000I-200000J0D01*
G01*
X114775000Y-113425000D01*
G75*
G02*
X114575000Y-113225000I0J200000D01*
G01*
X114575000Y-112675000D01*
G75*
G02*
X114775000Y-112475000I200000J0D01*
G01*
X115175000Y-112475000D01*
G75*
G02*
X115375000Y-112675000I0J-200000D01*
G01*
G37*
G36*
G01*
X98400000Y-114025000D02*
X98400000Y-114575000D01*
G75*
G02*
X98200000Y-114775000I-200000J0D01*
G01*
X97800000Y-114775000D01*
G75*
G02*
X97600000Y-114575000I0J200000D01*
G01*
X97600000Y-114025000D01*
G75*
G02*
X97800000Y-113825000I200000J0D01*
G01*
X98200000Y-113825000D01*
G75*
G02*
X98400000Y-114025000I0J-200000D01*
G01*
G37*
G36*
G01*
X100050000Y-114025000D02*
X100050000Y-114575000D01*
G75*
G02*
X99850000Y-114775000I-200000J0D01*
G01*
X99450000Y-114775000D01*
G75*
G02*
X99250000Y-114575000I0J200000D01*
G01*
X99250000Y-114025000D01*
G75*
G02*
X99450000Y-113825000I200000J0D01*
G01*
X99850000Y-113825000D01*
G75*
G02*
X100050000Y-114025000I0J-200000D01*
G01*
G37*
G36*
G01*
X108300000Y-85025000D02*
X108300000Y-85575000D01*
G75*
G02*
X108100000Y-85775000I-200000J0D01*
G01*
X107700000Y-85775000D01*
G75*
G02*
X107500000Y-85575000I0J200000D01*
G01*
X107500000Y-85025000D01*
G75*
G02*
X107700000Y-84825000I200000J0D01*
G01*
X108100000Y-84825000D01*
G75*
G02*
X108300000Y-85025000I0J-200000D01*
G01*
G37*
G36*
G01*
X109950000Y-85025000D02*
X109950000Y-85575000D01*
G75*
G02*
X109750000Y-85775000I-200000J0D01*
G01*
X109350000Y-85775000D01*
G75*
G02*
X109150000Y-85575000I0J200000D01*
G01*
X109150000Y-85025000D01*
G75*
G02*
X109350000Y-84825000I200000J0D01*
G01*
X109750000Y-84825000D01*
G75*
G02*
X109950000Y-85025000I0J-200000D01*
G01*
G37*
G36*
G01*
X108300000Y-86750000D02*
X108300000Y-87300000D01*
G75*
G02*
X108100000Y-87500000I-200000J0D01*
G01*
X107700000Y-87500000D01*
G75*
G02*
X107500000Y-87300000I0J200000D01*
G01*
X107500000Y-86750000D01*
G75*
G02*
X107700000Y-86550000I200000J0D01*
G01*
X108100000Y-86550000D01*
G75*
G02*
X108300000Y-86750000I0J-200000D01*
G01*
G37*
G36*
G01*
X109950000Y-86750000D02*
X109950000Y-87300000D01*
G75*
G02*
X109750000Y-87500000I-200000J0D01*
G01*
X109350000Y-87500000D01*
G75*
G02*
X109150000Y-87300000I0J200000D01*
G01*
X109150000Y-86750000D01*
G75*
G02*
X109350000Y-86550000I200000J0D01*
G01*
X109750000Y-86550000D01*
G75*
G02*
X109950000Y-86750000I0J-200000D01*
G01*
G37*
G36*
G01*
X102656250Y-86825000D02*
X102143750Y-86825000D01*
G75*
G02*
X101925000Y-86606250I0J218750D01*
G01*
X101925000Y-86168750D01*
G75*
G02*
X102143750Y-85950000I218750J0D01*
G01*
X102656250Y-85950000D01*
G75*
G02*
X102875000Y-86168750I0J-218750D01*
G01*
X102875000Y-86606250D01*
G75*
G02*
X102656250Y-86825000I-218750J0D01*
G01*
G37*
G36*
G01*
X102656250Y-88400000D02*
X102143750Y-88400000D01*
G75*
G02*
X101925000Y-88181250I0J218750D01*
G01*
X101925000Y-87743750D01*
G75*
G02*
X102143750Y-87525000I218750J0D01*
G01*
X102656250Y-87525000D01*
G75*
G02*
X102875000Y-87743750I0J-218750D01*
G01*
X102875000Y-88181250D01*
G75*
G02*
X102656250Y-88400000I-218750J0D01*
G01*
G37*
G36*
G01*
X111062500Y-113231250D02*
X111062500Y-112718750D01*
G75*
G02*
X111281250Y-112500000I218750J0D01*
G01*
X111718750Y-112500000D01*
G75*
G02*
X111937500Y-112718750I0J-218750D01*
G01*
X111937500Y-113231250D01*
G75*
G02*
X111718750Y-113450000I-218750J0D01*
G01*
X111281250Y-113450000D01*
G75*
G02*
X111062500Y-113231250I0J218750D01*
G01*
G37*
G36*
G01*
X109487500Y-113231250D02*
X109487500Y-112718750D01*
G75*
G02*
X109706250Y-112500000I218750J0D01*
G01*
X110143750Y-112500000D01*
G75*
G02*
X110362500Y-112718750I0J-218750D01*
G01*
X110362500Y-113231250D01*
G75*
G02*
X110143750Y-113450000I-218750J0D01*
G01*
X109706250Y-113450000D01*
G75*
G02*
X109487500Y-113231250I0J218750D01*
G01*
G37*
G36*
G01*
X95568750Y-113912500D02*
X96081250Y-113912500D01*
G75*
G02*
X96300000Y-114131250I0J-218750D01*
G01*
X96300000Y-114568750D01*
G75*
G02*
X96081250Y-114787500I-218750J0D01*
G01*
X95568750Y-114787500D01*
G75*
G02*
X95350000Y-114568750I0J218750D01*
G01*
X95350000Y-114131250D01*
G75*
G02*
X95568750Y-113912500I218750J0D01*
G01*
G37*
G36*
G01*
X95568750Y-112337500D02*
X96081250Y-112337500D01*
G75*
G02*
X96300000Y-112556250I0J-218750D01*
G01*
X96300000Y-112993750D01*
G75*
G02*
X96081250Y-113212500I-218750J0D01*
G01*
X95568750Y-113212500D01*
G75*
G02*
X95350000Y-112993750I0J218750D01*
G01*
X95350000Y-112556250D01*
G75*
G02*
X95568750Y-112337500I218750J0D01*
G01*
G37*
G36*
G01*
X108375000Y-88518750D02*
X108375000Y-89031250D01*
G75*
G02*
X108156250Y-89250000I-218750J0D01*
G01*
X107718750Y-89250000D01*
G75*
G02*
X107500000Y-89031250I0J218750D01*
G01*
X107500000Y-88518750D01*
G75*
G02*
X107718750Y-88300000I218750J0D01*
G01*
X108156250Y-88300000D01*
G75*
G02*
X108375000Y-88518750I0J-218750D01*
G01*
G37*
G36*
G01*
X109950000Y-88518750D02*
X109950000Y-89031250D01*
G75*
G02*
X109731250Y-89250000I-218750J0D01*
G01*
X109293750Y-89250000D01*
G75*
G02*
X109075000Y-89031250I0J218750D01*
G01*
X109075000Y-88518750D01*
G75*
G02*
X109293750Y-88300000I218750J0D01*
G01*
X109731250Y-88300000D01*
G75*
G02*
X109950000Y-88518750I0J-218750D01*
G01*
G37*
G36*
G01*
X114500000Y-109525000D02*
X114500000Y-109025000D01*
G75*
G02*
X114725000Y-108800000I225000J0D01*
G01*
X115175000Y-108800000D01*
G75*
G02*
X115400000Y-109025000I0J-225000D01*
G01*
X115400000Y-109525000D01*
G75*
G02*
X115175000Y-109750000I-225000J0D01*
G01*
X114725000Y-109750000D01*
G75*
G02*
X114500000Y-109525000I0J225000D01*
G01*
G37*
G36*
G01*
X112950000Y-109525000D02*
X112950000Y-109025000D01*
G75*
G02*
X113175000Y-108800000I225000J0D01*
G01*
X113625000Y-108800000D01*
G75*
G02*
X113850000Y-109025000I0J-225000D01*
G01*
X113850000Y-109525000D01*
G75*
G02*
X113625000Y-109750000I-225000J0D01*
G01*
X113175000Y-109750000D01*
G75*
G02*
X112950000Y-109525000I0J225000D01*
G01*
G37*
G36*
G01*
X92625000Y-114550000D02*
X92625000Y-114050000D01*
G75*
G02*
X92850000Y-113825000I225000J0D01*
G01*
X93300000Y-113825000D01*
G75*
G02*
X93525000Y-114050000I0J-225000D01*
G01*
X93525000Y-114550000D01*
G75*
G02*
X93300000Y-114775000I-225000J0D01*
G01*
X92850000Y-114775000D01*
G75*
G02*
X92625000Y-114550000I0J225000D01*
G01*
G37*
G36*
G01*
X91075000Y-114550000D02*
X91075000Y-114050000D01*
G75*
G02*
X91300000Y-113825000I225000J0D01*
G01*
X91750000Y-113825000D01*
G75*
G02*
X91975000Y-114050000I0J-225000D01*
G01*
X91975000Y-114550000D01*
G75*
G02*
X91750000Y-114775000I-225000J0D01*
G01*
X91300000Y-114775000D01*
G75*
G02*
X91075000Y-114550000I0J225000D01*
G01*
G37*
G36*
G01*
X83850000Y-113150000D02*
X83350000Y-113150000D01*
G75*
G02*
X83125000Y-112925000I0J225000D01*
G01*
X83125000Y-112475000D01*
G75*
G02*
X83350000Y-112250000I225000J0D01*
G01*
X83850000Y-112250000D01*
G75*
G02*
X84075000Y-112475000I0J-225000D01*
G01*
X84075000Y-112925000D01*
G75*
G02*
X83850000Y-113150000I-225000J0D01*
G01*
G37*
G36*
G01*
X83850000Y-114700000D02*
X83350000Y-114700000D01*
G75*
G02*
X83125000Y-114475000I0J225000D01*
G01*
X83125000Y-114025000D01*
G75*
G02*
X83350000Y-113800000I225000J0D01*
G01*
X83850000Y-113800000D01*
G75*
G02*
X84075000Y-114025000I0J-225000D01*
G01*
X84075000Y-114475000D01*
G75*
G02*
X83850000Y-114700000I-225000J0D01*
G01*
G37*
G36*
G01*
X117500000Y-89850000D02*
X117000000Y-89850000D01*
G75*
G02*
X116775000Y-89625000I0J225000D01*
G01*
X116775000Y-89175000D01*
G75*
G02*
X117000000Y-88950000I225000J0D01*
G01*
X117500000Y-88950000D01*
G75*
G02*
X117725000Y-89175000I0J-225000D01*
G01*
X117725000Y-89625000D01*
G75*
G02*
X117500000Y-89850000I-225000J0D01*
G01*
G37*
G36*
G01*
X117500000Y-91400000D02*
X117000000Y-91400000D01*
G75*
G02*
X116775000Y-91175000I0J225000D01*
G01*
X116775000Y-90725000D01*
G75*
G02*
X117000000Y-90500000I225000J0D01*
G01*
X117500000Y-90500000D01*
G75*
G02*
X117725000Y-90725000I0J-225000D01*
G01*
X117725000Y-91175000D01*
G75*
G02*
X117500000Y-91400000I-225000J0D01*
G01*
G37*
G36*
G01*
X82775000Y-107575000D02*
X82275000Y-107575000D01*
G75*
G02*
X82050000Y-107350000I0J225000D01*
G01*
X82050000Y-106900000D01*
G75*
G02*
X82275000Y-106675000I225000J0D01*
G01*
X82775000Y-106675000D01*
G75*
G02*
X83000000Y-106900000I0J-225000D01*
G01*
X83000000Y-107350000D01*
G75*
G02*
X82775000Y-107575000I-225000J0D01*
G01*
G37*
G36*
G01*
X82775000Y-109125000D02*
X82275000Y-109125000D01*
G75*
G02*
X82050000Y-108900000I0J225000D01*
G01*
X82050000Y-108450000D01*
G75*
G02*
X82275000Y-108225000I225000J0D01*
G01*
X82775000Y-108225000D01*
G75*
G02*
X83000000Y-108450000I0J-225000D01*
G01*
X83000000Y-108900000D01*
G75*
G02*
X82775000Y-109125000I-225000J0D01*
G01*
G37*
G36*
G01*
X117000000Y-93725000D02*
X117500000Y-93725000D01*
G75*
G02*
X117725000Y-93950000I0J-225000D01*
G01*
X117725000Y-94400000D01*
G75*
G02*
X117500000Y-94625000I-225000J0D01*
G01*
X117000000Y-94625000D01*
G75*
G02*
X116775000Y-94400000I0J225000D01*
G01*
X116775000Y-93950000D01*
G75*
G02*
X117000000Y-93725000I225000J0D01*
G01*
G37*
G36*
G01*
X117000000Y-92175000D02*
X117500000Y-92175000D01*
G75*
G02*
X117725000Y-92400000I0J-225000D01*
G01*
X117725000Y-92850000D01*
G75*
G02*
X117500000Y-93075000I-225000J0D01*
G01*
X117000000Y-93075000D01*
G75*
G02*
X116775000Y-92850000I0J225000D01*
G01*
X116775000Y-92400000D01*
G75*
G02*
X117000000Y-92175000I225000J0D01*
G01*
G37*
G36*
G01*
X117000000Y-87125000D02*
X117500000Y-87125000D01*
G75*
G02*
X117725000Y-87350000I0J-225000D01*
G01*
X117725000Y-87800000D01*
G75*
G02*
X117500000Y-88025000I-225000J0D01*
G01*
X117000000Y-88025000D01*
G75*
G02*
X116775000Y-87800000I0J225000D01*
G01*
X116775000Y-87350000D01*
G75*
G02*
X117000000Y-87125000I225000J0D01*
G01*
G37*
G36*
G01*
X117000000Y-85575000D02*
X117500000Y-85575000D01*
G75*
G02*
X117725000Y-85800000I0J-225000D01*
G01*
X117725000Y-86250000D01*
G75*
G02*
X117500000Y-86475000I-225000J0D01*
G01*
X117000000Y-86475000D01*
G75*
G02*
X116775000Y-86250000I0J225000D01*
G01*
X116775000Y-85800000D01*
G75*
G02*
X117000000Y-85575000I225000J0D01*
G01*
G37*
M02*
