G04 #@! TF.GenerationSoftware,KiCad,Pcbnew,5.1.8*
G04 #@! TF.CreationDate,2021-01-23T15:50:45+08:00*
G04 #@! TF.ProjectId,medicine_timer_pcb,6d656469-6369-46e6-955f-74696d65725f,rev?*
G04 #@! TF.SameCoordinates,Original*
G04 #@! TF.FileFunction,Profile,NP*
%FSLAX46Y46*%
G04 Gerber Fmt 4.6, Leading zero omitted, Abs format (unit mm)*
G04 Created by KiCad (PCBNEW 5.1.8) date 2021-01-23 15:50:45*
%MOMM*%
%LPD*%
G01*
G04 APERTURE LIST*
G04 #@! TA.AperFunction,Profile*
%ADD10C,0.050000*%
G04 #@! TD*
G04 APERTURE END LIST*
D10*
X108300000Y-105600000D02*
X102400000Y-109300000D01*
X110000000Y-108200000D02*
X108300000Y-105600000D01*
X104000000Y-112000000D02*
X110000000Y-108200000D01*
X102400000Y-109300000D02*
X104000000Y-112000000D01*
X91200000Y-90700000D02*
X97300000Y-87200000D01*
X92800000Y-93500000D02*
X91200000Y-90700000D01*
X98800000Y-89900000D02*
X92800000Y-93500000D01*
X97300000Y-87200000D02*
X98800000Y-89900000D01*
X82400000Y-115800000D02*
X81100000Y-115800000D01*
X82400000Y-116900000D02*
X82400000Y-115800000D01*
X117600000Y-115800000D02*
X118900000Y-115800000D01*
X117600000Y-116900000D02*
X117600000Y-115800000D01*
X82400000Y-116900000D02*
X117600000Y-116900000D01*
X111202906Y-78769248D02*
G75*
G02*
X118899999Y-85200001I-11202906J-21230752D01*
G01*
X81098234Y-85248621D02*
G75*
G02*
X88800001Y-78800001I18901766J-14751379D01*
G01*
X111200000Y-76800000D02*
X111202906Y-78769248D01*
X88800000Y-76800000D02*
X88800000Y-78800000D01*
X88800000Y-76800000D02*
X111200000Y-76800000D01*
X118900000Y-115800000D02*
X118899999Y-85200001D01*
X81098234Y-85248621D02*
X81100000Y-115800000D01*
M02*
