G04 #@! TF.GenerationSoftware,KiCad,Pcbnew,5.1.8*
G04 #@! TF.CreationDate,2021-01-23T15:50:44+08:00*
G04 #@! TF.ProjectId,medicine_timer_pcb,6d656469-6369-46e6-955f-74696d65725f,rev?*
G04 #@! TF.SameCoordinates,Original*
G04 #@! TF.FileFunction,Soldermask,Top*
G04 #@! TF.FilePolarity,Negative*
%FSLAX46Y46*%
G04 Gerber Fmt 4.6, Leading zero omitted, Abs format (unit mm)*
G04 Created by KiCad (PCBNEW 5.1.8) date 2021-01-23 15:50:44*
%MOMM*%
%LPD*%
G01*
G04 APERTURE LIST*
%ADD10C,2.100000*%
%ADD11O,1.450000X1.450000*%
G04 APERTURE END LIST*
G36*
G01*
X101575000Y-79570000D02*
X101575000Y-80950000D01*
G75*
G02*
X101525000Y-81000000I-50000J0D01*
G01*
X101075000Y-81000000D01*
G75*
G02*
X101025000Y-80950000I0J50000D01*
G01*
X101025000Y-79570000D01*
G75*
G02*
X101075000Y-79520000I50000J0D01*
G01*
X101525000Y-79520000D01*
G75*
G02*
X101575000Y-79570000I0J-50000D01*
G01*
G37*
G36*
G01*
X100925000Y-79570000D02*
X100925000Y-80950000D01*
G75*
G02*
X100875000Y-81000000I-50000J0D01*
G01*
X100425000Y-81000000D01*
G75*
G02*
X100375000Y-80950000I0J50000D01*
G01*
X100375000Y-79570000D01*
G75*
G02*
X100425000Y-79520000I50000J0D01*
G01*
X100875000Y-79520000D01*
G75*
G02*
X100925000Y-79570000I0J-50000D01*
G01*
G37*
G36*
G01*
X100275000Y-79570000D02*
X100275000Y-80950000D01*
G75*
G02*
X100225000Y-81000000I-50000J0D01*
G01*
X99775000Y-81000000D01*
G75*
G02*
X99725000Y-80950000I0J50000D01*
G01*
X99725000Y-79570000D01*
G75*
G02*
X99775000Y-79520000I50000J0D01*
G01*
X100225000Y-79520000D01*
G75*
G02*
X100275000Y-79570000I0J-50000D01*
G01*
G37*
G36*
G01*
X99625000Y-79570000D02*
X99625000Y-80950000D01*
G75*
G02*
X99575000Y-81000000I-50000J0D01*
G01*
X99125000Y-81000000D01*
G75*
G02*
X99075000Y-80950000I0J50000D01*
G01*
X99075000Y-79570000D01*
G75*
G02*
X99125000Y-79520000I50000J0D01*
G01*
X99575000Y-79520000D01*
G75*
G02*
X99625000Y-79570000I0J-50000D01*
G01*
G37*
G36*
G01*
X98975000Y-79570000D02*
X98975000Y-80950000D01*
G75*
G02*
X98925000Y-81000000I-50000J0D01*
G01*
X98475000Y-81000000D01*
G75*
G02*
X98425000Y-80950000I0J50000D01*
G01*
X98425000Y-79570000D01*
G75*
G02*
X98475000Y-79520000I50000J0D01*
G01*
X98925000Y-79520000D01*
G75*
G02*
X98975000Y-79570000I0J-50000D01*
G01*
G37*
G36*
G01*
X103250000Y-79400000D02*
X103250000Y-80950000D01*
G75*
G02*
X103200000Y-81000000I-50000J0D01*
G01*
X101775000Y-81000000D01*
G75*
G02*
X101725000Y-80950000I0J50000D01*
G01*
X101725000Y-79400000D01*
G75*
G02*
X101775000Y-79350000I50000J0D01*
G01*
X103200000Y-79350000D01*
G75*
G02*
X103250000Y-79400000I0J-50000D01*
G01*
G37*
G36*
G01*
X98275000Y-79400000D02*
X98275000Y-80950000D01*
G75*
G02*
X98225000Y-81000000I-50000J0D01*
G01*
X96800000Y-81000000D01*
G75*
G02*
X96750000Y-80950000I0J50000D01*
G01*
X96750000Y-79400000D01*
G75*
G02*
X96800000Y-79350000I50000J0D01*
G01*
X98225000Y-79350000D01*
G75*
G02*
X98275000Y-79400000I0J-50000D01*
G01*
G37*
G36*
G01*
X104250000Y-77150000D02*
X104250000Y-78250000D01*
G75*
G02*
X104200000Y-78300000I-50000J0D01*
G01*
X102550000Y-78300000D01*
G75*
G02*
X102500000Y-78250000I0J50000D01*
G01*
X102500000Y-77150000D01*
G75*
G02*
X102550000Y-77100000I50000J0D01*
G01*
X104200000Y-77100000D01*
G75*
G02*
X104250000Y-77150000I0J-50000D01*
G01*
G37*
G36*
G01*
X97500000Y-77150000D02*
X97500000Y-78250000D01*
G75*
G02*
X97450000Y-78300000I-50000J0D01*
G01*
X95800000Y-78300000D01*
G75*
G02*
X95750000Y-78250000I0J50000D01*
G01*
X95750000Y-77150000D01*
G75*
G02*
X95800000Y-77100000I50000J0D01*
G01*
X97450000Y-77100000D01*
G75*
G02*
X97500000Y-77150000I0J-50000D01*
G01*
G37*
G36*
G01*
X89400000Y-113400000D02*
X89400000Y-115200000D01*
G75*
G02*
X89350000Y-115250000I-50000J0D01*
G01*
X88350000Y-115250000D01*
G75*
G02*
X88300000Y-115200000I0J50000D01*
G01*
X88300000Y-113400000D01*
G75*
G02*
X88350000Y-113350000I50000J0D01*
G01*
X89350000Y-113350000D01*
G75*
G02*
X89400000Y-113400000I0J-50000D01*
G01*
G37*
G36*
G01*
X86900000Y-113400000D02*
X86900000Y-115200000D01*
G75*
G02*
X86850000Y-115250000I-50000J0D01*
G01*
X85850000Y-115250000D01*
G75*
G02*
X85800000Y-115200000I0J50000D01*
G01*
X85800000Y-113400000D01*
G75*
G02*
X85850000Y-113350000I50000J0D01*
G01*
X86850000Y-113350000D01*
G75*
G02*
X86900000Y-113400000I0J-50000D01*
G01*
G37*
G36*
G01*
X117550000Y-96400000D02*
X117550000Y-98600000D01*
G75*
G02*
X117500000Y-98650000I-50000J0D01*
G01*
X115500000Y-98650000D01*
G75*
G02*
X115450000Y-98600000I0J50000D01*
G01*
X115450000Y-96400000D01*
G75*
G02*
X115500000Y-96350000I50000J0D01*
G01*
X117500000Y-96350000D01*
G75*
G02*
X117550000Y-96400000I0J-50000D01*
G01*
G37*
D10*
X116500000Y-102500000D03*
G36*
G01*
X97750000Y-84900000D02*
X97750000Y-84300000D01*
G75*
G02*
X97975000Y-84075000I225000J0D01*
G01*
X98425000Y-84075000D01*
G75*
G02*
X98650000Y-84300000I0J-225000D01*
G01*
X98650000Y-84900000D01*
G75*
G02*
X98425000Y-85125000I-225000J0D01*
G01*
X97975000Y-85125000D01*
G75*
G02*
X97750000Y-84900000I0J225000D01*
G01*
G37*
G36*
G01*
X96100000Y-84900000D02*
X96100000Y-84300000D01*
G75*
G02*
X96325000Y-84075000I225000J0D01*
G01*
X96775000Y-84075000D01*
G75*
G02*
X97000000Y-84300000I0J-225000D01*
G01*
X97000000Y-84900000D01*
G75*
G02*
X96775000Y-85125000I-225000J0D01*
G01*
X96325000Y-85125000D01*
G75*
G02*
X96100000Y-84900000I0J225000D01*
G01*
G37*
G36*
G01*
X106725000Y-81150000D02*
X106725000Y-82350000D01*
G75*
G02*
X106675000Y-82400000I-50000J0D01*
G01*
X105775000Y-82400000D01*
G75*
G02*
X105725000Y-82350000I0J50000D01*
G01*
X105725000Y-81150000D01*
G75*
G02*
X105775000Y-81100000I50000J0D01*
G01*
X106675000Y-81100000D01*
G75*
G02*
X106725000Y-81150000I0J-50000D01*
G01*
G37*
G36*
G01*
X110025000Y-81150000D02*
X110025000Y-82350000D01*
G75*
G02*
X109975000Y-82400000I-50000J0D01*
G01*
X109075000Y-82400000D01*
G75*
G02*
X109025000Y-82350000I0J50000D01*
G01*
X109025000Y-81150000D01*
G75*
G02*
X109075000Y-81100000I50000J0D01*
G01*
X109975000Y-81100000D01*
G75*
G02*
X110025000Y-81150000I0J-50000D01*
G01*
G37*
D11*
X83275000Y-87500000D03*
X83275000Y-89500000D03*
X83275000Y-91500000D03*
G36*
G01*
X84000000Y-92825000D02*
X84000000Y-94175000D01*
G75*
G02*
X83950000Y-94225000I-50000J0D01*
G01*
X82600000Y-94225000D01*
G75*
G02*
X82550000Y-94175000I0J50000D01*
G01*
X82550000Y-92825000D01*
G75*
G02*
X82600000Y-92775000I50000J0D01*
G01*
X83950000Y-92775000D01*
G75*
G02*
X84000000Y-92825000I0J-50000D01*
G01*
G37*
X87400000Y-87500000D03*
X87400000Y-89500000D03*
X87400000Y-91500000D03*
G36*
G01*
X88125000Y-92825000D02*
X88125000Y-94175000D01*
G75*
G02*
X88075000Y-94225000I-50000J0D01*
G01*
X86725000Y-94225000D01*
G75*
G02*
X86675000Y-94175000I0J50000D01*
G01*
X86675000Y-92825000D01*
G75*
G02*
X86725000Y-92775000I50000J0D01*
G01*
X88075000Y-92775000D01*
G75*
G02*
X88125000Y-92825000I0J-50000D01*
G01*
G37*
G36*
G01*
X85675000Y-107000000D02*
X84300000Y-107000000D01*
G75*
G02*
X84200000Y-106900000I0J100000D01*
G01*
X84200000Y-106700000D01*
G75*
G02*
X84300000Y-106600000I100000J0D01*
G01*
X85675000Y-106600000D01*
G75*
G02*
X85775000Y-106700000I0J-100000D01*
G01*
X85775000Y-106900000D01*
G75*
G02*
X85675000Y-107000000I-100000J0D01*
G01*
G37*
G36*
G01*
X85675000Y-106500000D02*
X84300000Y-106500000D01*
G75*
G02*
X84200000Y-106400000I0J100000D01*
G01*
X84200000Y-106200000D01*
G75*
G02*
X84300000Y-106100000I100000J0D01*
G01*
X85675000Y-106100000D01*
G75*
G02*
X85775000Y-106200000I0J-100000D01*
G01*
X85775000Y-106400000D01*
G75*
G02*
X85675000Y-106500000I-100000J0D01*
G01*
G37*
G36*
G01*
X85675000Y-106000000D02*
X84300000Y-106000000D01*
G75*
G02*
X84200000Y-105900000I0J100000D01*
G01*
X84200000Y-105700000D01*
G75*
G02*
X84300000Y-105600000I100000J0D01*
G01*
X85675000Y-105600000D01*
G75*
G02*
X85775000Y-105700000I0J-100000D01*
G01*
X85775000Y-105900000D01*
G75*
G02*
X85675000Y-106000000I-100000J0D01*
G01*
G37*
G36*
G01*
X85675000Y-105500000D02*
X84300000Y-105500000D01*
G75*
G02*
X84200000Y-105400000I0J100000D01*
G01*
X84200000Y-105200000D01*
G75*
G02*
X84300000Y-105100000I100000J0D01*
G01*
X85675000Y-105100000D01*
G75*
G02*
X85775000Y-105200000I0J-100000D01*
G01*
X85775000Y-105400000D01*
G75*
G02*
X85675000Y-105500000I-100000J0D01*
G01*
G37*
G36*
G01*
X85675000Y-105000000D02*
X84300000Y-105000000D01*
G75*
G02*
X84200000Y-104900000I0J100000D01*
G01*
X84200000Y-104700000D01*
G75*
G02*
X84300000Y-104600000I100000J0D01*
G01*
X85675000Y-104600000D01*
G75*
G02*
X85775000Y-104700000I0J-100000D01*
G01*
X85775000Y-104900000D01*
G75*
G02*
X85675000Y-105000000I-100000J0D01*
G01*
G37*
G36*
G01*
X85675000Y-104500000D02*
X84300000Y-104500000D01*
G75*
G02*
X84200000Y-104400000I0J100000D01*
G01*
X84200000Y-104200000D01*
G75*
G02*
X84300000Y-104100000I100000J0D01*
G01*
X85675000Y-104100000D01*
G75*
G02*
X85775000Y-104200000I0J-100000D01*
G01*
X85775000Y-104400000D01*
G75*
G02*
X85675000Y-104500000I-100000J0D01*
G01*
G37*
G36*
G01*
X85675000Y-104000000D02*
X84300000Y-104000000D01*
G75*
G02*
X84200000Y-103900000I0J100000D01*
G01*
X84200000Y-103700000D01*
G75*
G02*
X84300000Y-103600000I100000J0D01*
G01*
X85675000Y-103600000D01*
G75*
G02*
X85775000Y-103700000I0J-100000D01*
G01*
X85775000Y-103900000D01*
G75*
G02*
X85675000Y-104000000I-100000J0D01*
G01*
G37*
G36*
G01*
X85675000Y-103500000D02*
X84300000Y-103500000D01*
G75*
G02*
X84200000Y-103400000I0J100000D01*
G01*
X84200000Y-103200000D01*
G75*
G02*
X84300000Y-103100000I100000J0D01*
G01*
X85675000Y-103100000D01*
G75*
G02*
X85775000Y-103200000I0J-100000D01*
G01*
X85775000Y-103400000D01*
G75*
G02*
X85675000Y-103500000I-100000J0D01*
G01*
G37*
G36*
G01*
X85675000Y-103000000D02*
X84300000Y-103000000D01*
G75*
G02*
X84200000Y-102900000I0J100000D01*
G01*
X84200000Y-102700000D01*
G75*
G02*
X84300000Y-102600000I100000J0D01*
G01*
X85675000Y-102600000D01*
G75*
G02*
X85775000Y-102700000I0J-100000D01*
G01*
X85775000Y-102900000D01*
G75*
G02*
X85675000Y-103000000I-100000J0D01*
G01*
G37*
G36*
G01*
X85675000Y-102500000D02*
X84300000Y-102500000D01*
G75*
G02*
X84200000Y-102400000I0J100000D01*
G01*
X84200000Y-102200000D01*
G75*
G02*
X84300000Y-102100000I100000J0D01*
G01*
X85675000Y-102100000D01*
G75*
G02*
X85775000Y-102200000I0J-100000D01*
G01*
X85775000Y-102400000D01*
G75*
G02*
X85675000Y-102500000I-100000J0D01*
G01*
G37*
G36*
G01*
X85675000Y-102000000D02*
X84300000Y-102000000D01*
G75*
G02*
X84200000Y-101900000I0J100000D01*
G01*
X84200000Y-101700000D01*
G75*
G02*
X84300000Y-101600000I100000J0D01*
G01*
X85675000Y-101600000D01*
G75*
G02*
X85775000Y-101700000I0J-100000D01*
G01*
X85775000Y-101900000D01*
G75*
G02*
X85675000Y-102000000I-100000J0D01*
G01*
G37*
G36*
G01*
X85675000Y-101500000D02*
X84300000Y-101500000D01*
G75*
G02*
X84200000Y-101400000I0J100000D01*
G01*
X84200000Y-101200000D01*
G75*
G02*
X84300000Y-101100000I100000J0D01*
G01*
X85675000Y-101100000D01*
G75*
G02*
X85775000Y-101200000I0J-100000D01*
G01*
X85775000Y-101400000D01*
G75*
G02*
X85675000Y-101500000I-100000J0D01*
G01*
G37*
G36*
G01*
X86500000Y-100675000D02*
X86300000Y-100675000D01*
G75*
G02*
X86200000Y-100575000I0J100000D01*
G01*
X86200000Y-99200000D01*
G75*
G02*
X86300000Y-99100000I100000J0D01*
G01*
X86500000Y-99100000D01*
G75*
G02*
X86600000Y-99200000I0J-100000D01*
G01*
X86600000Y-100575000D01*
G75*
G02*
X86500000Y-100675000I-100000J0D01*
G01*
G37*
G36*
G01*
X87000000Y-100675000D02*
X86800000Y-100675000D01*
G75*
G02*
X86700000Y-100575000I0J100000D01*
G01*
X86700000Y-99200000D01*
G75*
G02*
X86800000Y-99100000I100000J0D01*
G01*
X87000000Y-99100000D01*
G75*
G02*
X87100000Y-99200000I0J-100000D01*
G01*
X87100000Y-100575000D01*
G75*
G02*
X87000000Y-100675000I-100000J0D01*
G01*
G37*
G36*
G01*
X87500000Y-100675000D02*
X87300000Y-100675000D01*
G75*
G02*
X87200000Y-100575000I0J100000D01*
G01*
X87200000Y-99200000D01*
G75*
G02*
X87300000Y-99100000I100000J0D01*
G01*
X87500000Y-99100000D01*
G75*
G02*
X87600000Y-99200000I0J-100000D01*
G01*
X87600000Y-100575000D01*
G75*
G02*
X87500000Y-100675000I-100000J0D01*
G01*
G37*
G36*
G01*
X88000000Y-100675000D02*
X87800000Y-100675000D01*
G75*
G02*
X87700000Y-100575000I0J100000D01*
G01*
X87700000Y-99200000D01*
G75*
G02*
X87800000Y-99100000I100000J0D01*
G01*
X88000000Y-99100000D01*
G75*
G02*
X88100000Y-99200000I0J-100000D01*
G01*
X88100000Y-100575000D01*
G75*
G02*
X88000000Y-100675000I-100000J0D01*
G01*
G37*
G36*
G01*
X88500000Y-100675000D02*
X88300000Y-100675000D01*
G75*
G02*
X88200000Y-100575000I0J100000D01*
G01*
X88200000Y-99200000D01*
G75*
G02*
X88300000Y-99100000I100000J0D01*
G01*
X88500000Y-99100000D01*
G75*
G02*
X88600000Y-99200000I0J-100000D01*
G01*
X88600000Y-100575000D01*
G75*
G02*
X88500000Y-100675000I-100000J0D01*
G01*
G37*
G36*
G01*
X89000000Y-100675000D02*
X88800000Y-100675000D01*
G75*
G02*
X88700000Y-100575000I0J100000D01*
G01*
X88700000Y-99200000D01*
G75*
G02*
X88800000Y-99100000I100000J0D01*
G01*
X89000000Y-99100000D01*
G75*
G02*
X89100000Y-99200000I0J-100000D01*
G01*
X89100000Y-100575000D01*
G75*
G02*
X89000000Y-100675000I-100000J0D01*
G01*
G37*
G36*
G01*
X89500000Y-100675000D02*
X89300000Y-100675000D01*
G75*
G02*
X89200000Y-100575000I0J100000D01*
G01*
X89200000Y-99200000D01*
G75*
G02*
X89300000Y-99100000I100000J0D01*
G01*
X89500000Y-99100000D01*
G75*
G02*
X89600000Y-99200000I0J-100000D01*
G01*
X89600000Y-100575000D01*
G75*
G02*
X89500000Y-100675000I-100000J0D01*
G01*
G37*
G36*
G01*
X90000000Y-100675000D02*
X89800000Y-100675000D01*
G75*
G02*
X89700000Y-100575000I0J100000D01*
G01*
X89700000Y-99200000D01*
G75*
G02*
X89800000Y-99100000I100000J0D01*
G01*
X90000000Y-99100000D01*
G75*
G02*
X90100000Y-99200000I0J-100000D01*
G01*
X90100000Y-100575000D01*
G75*
G02*
X90000000Y-100675000I-100000J0D01*
G01*
G37*
G36*
G01*
X90500000Y-100675000D02*
X90300000Y-100675000D01*
G75*
G02*
X90200000Y-100575000I0J100000D01*
G01*
X90200000Y-99200000D01*
G75*
G02*
X90300000Y-99100000I100000J0D01*
G01*
X90500000Y-99100000D01*
G75*
G02*
X90600000Y-99200000I0J-100000D01*
G01*
X90600000Y-100575000D01*
G75*
G02*
X90500000Y-100675000I-100000J0D01*
G01*
G37*
G36*
G01*
X91000000Y-100675000D02*
X90800000Y-100675000D01*
G75*
G02*
X90700000Y-100575000I0J100000D01*
G01*
X90700000Y-99200000D01*
G75*
G02*
X90800000Y-99100000I100000J0D01*
G01*
X91000000Y-99100000D01*
G75*
G02*
X91100000Y-99200000I0J-100000D01*
G01*
X91100000Y-100575000D01*
G75*
G02*
X91000000Y-100675000I-100000J0D01*
G01*
G37*
G36*
G01*
X91500000Y-100675000D02*
X91300000Y-100675000D01*
G75*
G02*
X91200000Y-100575000I0J100000D01*
G01*
X91200000Y-99200000D01*
G75*
G02*
X91300000Y-99100000I100000J0D01*
G01*
X91500000Y-99100000D01*
G75*
G02*
X91600000Y-99200000I0J-100000D01*
G01*
X91600000Y-100575000D01*
G75*
G02*
X91500000Y-100675000I-100000J0D01*
G01*
G37*
G36*
G01*
X92000000Y-100675000D02*
X91800000Y-100675000D01*
G75*
G02*
X91700000Y-100575000I0J100000D01*
G01*
X91700000Y-99200000D01*
G75*
G02*
X91800000Y-99100000I100000J0D01*
G01*
X92000000Y-99100000D01*
G75*
G02*
X92100000Y-99200000I0J-100000D01*
G01*
X92100000Y-100575000D01*
G75*
G02*
X92000000Y-100675000I-100000J0D01*
G01*
G37*
G36*
G01*
X94000000Y-101500000D02*
X92625000Y-101500000D01*
G75*
G02*
X92525000Y-101400000I0J100000D01*
G01*
X92525000Y-101200000D01*
G75*
G02*
X92625000Y-101100000I100000J0D01*
G01*
X94000000Y-101100000D01*
G75*
G02*
X94100000Y-101200000I0J-100000D01*
G01*
X94100000Y-101400000D01*
G75*
G02*
X94000000Y-101500000I-100000J0D01*
G01*
G37*
G36*
G01*
X94000000Y-102000000D02*
X92625000Y-102000000D01*
G75*
G02*
X92525000Y-101900000I0J100000D01*
G01*
X92525000Y-101700000D01*
G75*
G02*
X92625000Y-101600000I100000J0D01*
G01*
X94000000Y-101600000D01*
G75*
G02*
X94100000Y-101700000I0J-100000D01*
G01*
X94100000Y-101900000D01*
G75*
G02*
X94000000Y-102000000I-100000J0D01*
G01*
G37*
G36*
G01*
X94000000Y-102500000D02*
X92625000Y-102500000D01*
G75*
G02*
X92525000Y-102400000I0J100000D01*
G01*
X92525000Y-102200000D01*
G75*
G02*
X92625000Y-102100000I100000J0D01*
G01*
X94000000Y-102100000D01*
G75*
G02*
X94100000Y-102200000I0J-100000D01*
G01*
X94100000Y-102400000D01*
G75*
G02*
X94000000Y-102500000I-100000J0D01*
G01*
G37*
G36*
G01*
X94000000Y-103000000D02*
X92625000Y-103000000D01*
G75*
G02*
X92525000Y-102900000I0J100000D01*
G01*
X92525000Y-102700000D01*
G75*
G02*
X92625000Y-102600000I100000J0D01*
G01*
X94000000Y-102600000D01*
G75*
G02*
X94100000Y-102700000I0J-100000D01*
G01*
X94100000Y-102900000D01*
G75*
G02*
X94000000Y-103000000I-100000J0D01*
G01*
G37*
G36*
G01*
X94000000Y-103500000D02*
X92625000Y-103500000D01*
G75*
G02*
X92525000Y-103400000I0J100000D01*
G01*
X92525000Y-103200000D01*
G75*
G02*
X92625000Y-103100000I100000J0D01*
G01*
X94000000Y-103100000D01*
G75*
G02*
X94100000Y-103200000I0J-100000D01*
G01*
X94100000Y-103400000D01*
G75*
G02*
X94000000Y-103500000I-100000J0D01*
G01*
G37*
G36*
G01*
X94000000Y-104000000D02*
X92625000Y-104000000D01*
G75*
G02*
X92525000Y-103900000I0J100000D01*
G01*
X92525000Y-103700000D01*
G75*
G02*
X92625000Y-103600000I100000J0D01*
G01*
X94000000Y-103600000D01*
G75*
G02*
X94100000Y-103700000I0J-100000D01*
G01*
X94100000Y-103900000D01*
G75*
G02*
X94000000Y-104000000I-100000J0D01*
G01*
G37*
G36*
G01*
X94000000Y-104500000D02*
X92625000Y-104500000D01*
G75*
G02*
X92525000Y-104400000I0J100000D01*
G01*
X92525000Y-104200000D01*
G75*
G02*
X92625000Y-104100000I100000J0D01*
G01*
X94000000Y-104100000D01*
G75*
G02*
X94100000Y-104200000I0J-100000D01*
G01*
X94100000Y-104400000D01*
G75*
G02*
X94000000Y-104500000I-100000J0D01*
G01*
G37*
G36*
G01*
X94000000Y-105000000D02*
X92625000Y-105000000D01*
G75*
G02*
X92525000Y-104900000I0J100000D01*
G01*
X92525000Y-104700000D01*
G75*
G02*
X92625000Y-104600000I100000J0D01*
G01*
X94000000Y-104600000D01*
G75*
G02*
X94100000Y-104700000I0J-100000D01*
G01*
X94100000Y-104900000D01*
G75*
G02*
X94000000Y-105000000I-100000J0D01*
G01*
G37*
G36*
G01*
X94000000Y-105500000D02*
X92625000Y-105500000D01*
G75*
G02*
X92525000Y-105400000I0J100000D01*
G01*
X92525000Y-105200000D01*
G75*
G02*
X92625000Y-105100000I100000J0D01*
G01*
X94000000Y-105100000D01*
G75*
G02*
X94100000Y-105200000I0J-100000D01*
G01*
X94100000Y-105400000D01*
G75*
G02*
X94000000Y-105500000I-100000J0D01*
G01*
G37*
G36*
G01*
X94000000Y-106000000D02*
X92625000Y-106000000D01*
G75*
G02*
X92525000Y-105900000I0J100000D01*
G01*
X92525000Y-105700000D01*
G75*
G02*
X92625000Y-105600000I100000J0D01*
G01*
X94000000Y-105600000D01*
G75*
G02*
X94100000Y-105700000I0J-100000D01*
G01*
X94100000Y-105900000D01*
G75*
G02*
X94000000Y-106000000I-100000J0D01*
G01*
G37*
G36*
G01*
X94000000Y-106500000D02*
X92625000Y-106500000D01*
G75*
G02*
X92525000Y-106400000I0J100000D01*
G01*
X92525000Y-106200000D01*
G75*
G02*
X92625000Y-106100000I100000J0D01*
G01*
X94000000Y-106100000D01*
G75*
G02*
X94100000Y-106200000I0J-100000D01*
G01*
X94100000Y-106400000D01*
G75*
G02*
X94000000Y-106500000I-100000J0D01*
G01*
G37*
G36*
G01*
X94000000Y-107000000D02*
X92625000Y-107000000D01*
G75*
G02*
X92525000Y-106900000I0J100000D01*
G01*
X92525000Y-106700000D01*
G75*
G02*
X92625000Y-106600000I100000J0D01*
G01*
X94000000Y-106600000D01*
G75*
G02*
X94100000Y-106700000I0J-100000D01*
G01*
X94100000Y-106900000D01*
G75*
G02*
X94000000Y-107000000I-100000J0D01*
G01*
G37*
G36*
G01*
X92000000Y-109000000D02*
X91800000Y-109000000D01*
G75*
G02*
X91700000Y-108900000I0J100000D01*
G01*
X91700000Y-107525000D01*
G75*
G02*
X91800000Y-107425000I100000J0D01*
G01*
X92000000Y-107425000D01*
G75*
G02*
X92100000Y-107525000I0J-100000D01*
G01*
X92100000Y-108900000D01*
G75*
G02*
X92000000Y-109000000I-100000J0D01*
G01*
G37*
G36*
G01*
X91500000Y-109000000D02*
X91300000Y-109000000D01*
G75*
G02*
X91200000Y-108900000I0J100000D01*
G01*
X91200000Y-107525000D01*
G75*
G02*
X91300000Y-107425000I100000J0D01*
G01*
X91500000Y-107425000D01*
G75*
G02*
X91600000Y-107525000I0J-100000D01*
G01*
X91600000Y-108900000D01*
G75*
G02*
X91500000Y-109000000I-100000J0D01*
G01*
G37*
G36*
G01*
X91000000Y-109000000D02*
X90800000Y-109000000D01*
G75*
G02*
X90700000Y-108900000I0J100000D01*
G01*
X90700000Y-107525000D01*
G75*
G02*
X90800000Y-107425000I100000J0D01*
G01*
X91000000Y-107425000D01*
G75*
G02*
X91100000Y-107525000I0J-100000D01*
G01*
X91100000Y-108900000D01*
G75*
G02*
X91000000Y-109000000I-100000J0D01*
G01*
G37*
G36*
G01*
X90500000Y-109000000D02*
X90300000Y-109000000D01*
G75*
G02*
X90200000Y-108900000I0J100000D01*
G01*
X90200000Y-107525000D01*
G75*
G02*
X90300000Y-107425000I100000J0D01*
G01*
X90500000Y-107425000D01*
G75*
G02*
X90600000Y-107525000I0J-100000D01*
G01*
X90600000Y-108900000D01*
G75*
G02*
X90500000Y-109000000I-100000J0D01*
G01*
G37*
G36*
G01*
X90000000Y-109000000D02*
X89800000Y-109000000D01*
G75*
G02*
X89700000Y-108900000I0J100000D01*
G01*
X89700000Y-107525000D01*
G75*
G02*
X89800000Y-107425000I100000J0D01*
G01*
X90000000Y-107425000D01*
G75*
G02*
X90100000Y-107525000I0J-100000D01*
G01*
X90100000Y-108900000D01*
G75*
G02*
X90000000Y-109000000I-100000J0D01*
G01*
G37*
G36*
G01*
X89500000Y-109000000D02*
X89300000Y-109000000D01*
G75*
G02*
X89200000Y-108900000I0J100000D01*
G01*
X89200000Y-107525000D01*
G75*
G02*
X89300000Y-107425000I100000J0D01*
G01*
X89500000Y-107425000D01*
G75*
G02*
X89600000Y-107525000I0J-100000D01*
G01*
X89600000Y-108900000D01*
G75*
G02*
X89500000Y-109000000I-100000J0D01*
G01*
G37*
G36*
G01*
X89000000Y-109000000D02*
X88800000Y-109000000D01*
G75*
G02*
X88700000Y-108900000I0J100000D01*
G01*
X88700000Y-107525000D01*
G75*
G02*
X88800000Y-107425000I100000J0D01*
G01*
X89000000Y-107425000D01*
G75*
G02*
X89100000Y-107525000I0J-100000D01*
G01*
X89100000Y-108900000D01*
G75*
G02*
X89000000Y-109000000I-100000J0D01*
G01*
G37*
G36*
G01*
X88500000Y-109000000D02*
X88300000Y-109000000D01*
G75*
G02*
X88200000Y-108900000I0J100000D01*
G01*
X88200000Y-107525000D01*
G75*
G02*
X88300000Y-107425000I100000J0D01*
G01*
X88500000Y-107425000D01*
G75*
G02*
X88600000Y-107525000I0J-100000D01*
G01*
X88600000Y-108900000D01*
G75*
G02*
X88500000Y-109000000I-100000J0D01*
G01*
G37*
G36*
G01*
X88000000Y-109000000D02*
X87800000Y-109000000D01*
G75*
G02*
X87700000Y-108900000I0J100000D01*
G01*
X87700000Y-107525000D01*
G75*
G02*
X87800000Y-107425000I100000J0D01*
G01*
X88000000Y-107425000D01*
G75*
G02*
X88100000Y-107525000I0J-100000D01*
G01*
X88100000Y-108900000D01*
G75*
G02*
X88000000Y-109000000I-100000J0D01*
G01*
G37*
G36*
G01*
X87500000Y-109000000D02*
X87300000Y-109000000D01*
G75*
G02*
X87200000Y-108900000I0J100000D01*
G01*
X87200000Y-107525000D01*
G75*
G02*
X87300000Y-107425000I100000J0D01*
G01*
X87500000Y-107425000D01*
G75*
G02*
X87600000Y-107525000I0J-100000D01*
G01*
X87600000Y-108900000D01*
G75*
G02*
X87500000Y-109000000I-100000J0D01*
G01*
G37*
G36*
G01*
X87000000Y-109000000D02*
X86800000Y-109000000D01*
G75*
G02*
X86700000Y-108900000I0J100000D01*
G01*
X86700000Y-107525000D01*
G75*
G02*
X86800000Y-107425000I100000J0D01*
G01*
X87000000Y-107425000D01*
G75*
G02*
X87100000Y-107525000I0J-100000D01*
G01*
X87100000Y-108900000D01*
G75*
G02*
X87000000Y-109000000I-100000J0D01*
G01*
G37*
G36*
G01*
X86500000Y-109000000D02*
X86300000Y-109000000D01*
G75*
G02*
X86200000Y-108900000I0J100000D01*
G01*
X86200000Y-107525000D01*
G75*
G02*
X86300000Y-107425000I100000J0D01*
G01*
X86500000Y-107425000D01*
G75*
G02*
X86600000Y-107525000I0J-100000D01*
G01*
X86600000Y-108900000D01*
G75*
G02*
X86500000Y-109000000I-100000J0D01*
G01*
G37*
G36*
G01*
X114375000Y-93525000D02*
X114375000Y-92725000D01*
G75*
G02*
X114425000Y-92675000I50000J0D01*
G01*
X115325000Y-92675000D01*
G75*
G02*
X115375000Y-92725000I0J-50000D01*
G01*
X115375000Y-93525000D01*
G75*
G02*
X115325000Y-93575000I-50000J0D01*
G01*
X114425000Y-93575000D01*
G75*
G02*
X114375000Y-93525000I0J50000D01*
G01*
G37*
G36*
G01*
X112375000Y-94475000D02*
X112375000Y-93675000D01*
G75*
G02*
X112425000Y-93625000I50000J0D01*
G01*
X113325000Y-93625000D01*
G75*
G02*
X113375000Y-93675000I0J-50000D01*
G01*
X113375000Y-94475000D01*
G75*
G02*
X113325000Y-94525000I-50000J0D01*
G01*
X112425000Y-94525000D01*
G75*
G02*
X112375000Y-94475000I0J50000D01*
G01*
G37*
G36*
G01*
X112375000Y-92575000D02*
X112375000Y-91775000D01*
G75*
G02*
X112425000Y-91725000I50000J0D01*
G01*
X113325000Y-91725000D01*
G75*
G02*
X113375000Y-91775000I0J-50000D01*
G01*
X113375000Y-92575000D01*
G75*
G02*
X113325000Y-92625000I-50000J0D01*
G01*
X112425000Y-92625000D01*
G75*
G02*
X112375000Y-92575000I0J50000D01*
G01*
G37*
G36*
G01*
X108250000Y-95325000D02*
X106650000Y-95325000D01*
G75*
G02*
X106600000Y-95275000I0J50000D01*
G01*
X106600000Y-93095000D01*
G75*
G02*
X106650000Y-93045000I50000J0D01*
G01*
X108250000Y-93045000D01*
G75*
G02*
X108300000Y-93095000I0J-50000D01*
G01*
X108300000Y-95275000D01*
G75*
G02*
X108250000Y-95325000I-50000J0D01*
G01*
G37*
G36*
G01*
X108250000Y-104505000D02*
X106650000Y-104505000D01*
G75*
G02*
X106600000Y-104455000I0J50000D01*
G01*
X106600000Y-102275000D01*
G75*
G02*
X106650000Y-102225000I50000J0D01*
G01*
X108250000Y-102225000D01*
G75*
G02*
X108300000Y-102275000I0J-50000D01*
G01*
X108300000Y-104455000D01*
G75*
G02*
X108250000Y-104505000I-50000J0D01*
G01*
G37*
G36*
G01*
X98450000Y-96850000D02*
X97050000Y-96850000D01*
G75*
G02*
X97000000Y-96800000I0J50000D01*
G01*
X97000000Y-95200000D01*
G75*
G02*
X97050000Y-95150000I50000J0D01*
G01*
X98450000Y-95150000D01*
G75*
G02*
X98500000Y-95200000I0J-50000D01*
G01*
X98500000Y-96800000D01*
G75*
G02*
X98450000Y-96850000I-50000J0D01*
G01*
G37*
G36*
G01*
X98450000Y-104850000D02*
X97050000Y-104850000D01*
G75*
G02*
X97000000Y-104800000I0J50000D01*
G01*
X97000000Y-103200000D01*
G75*
G02*
X97050000Y-103150000I50000J0D01*
G01*
X98450000Y-103150000D01*
G75*
G02*
X98500000Y-103200000I0J-50000D01*
G01*
X98500000Y-104800000D01*
G75*
G02*
X98450000Y-104850000I-50000J0D01*
G01*
G37*
G36*
G01*
X102950000Y-96850000D02*
X101550000Y-96850000D01*
G75*
G02*
X101500000Y-96800000I0J50000D01*
G01*
X101500000Y-95200000D01*
G75*
G02*
X101550000Y-95150000I50000J0D01*
G01*
X102950000Y-95150000D01*
G75*
G02*
X103000000Y-95200000I0J-50000D01*
G01*
X103000000Y-96800000D01*
G75*
G02*
X102950000Y-96850000I-50000J0D01*
G01*
G37*
G36*
G01*
X102950000Y-104850000D02*
X101550000Y-104850000D01*
G75*
G02*
X101500000Y-104800000I0J50000D01*
G01*
X101500000Y-103200000D01*
G75*
G02*
X101550000Y-103150000I50000J0D01*
G01*
X102950000Y-103150000D01*
G75*
G02*
X103000000Y-103200000I0J-50000D01*
G01*
X103000000Y-104800000D01*
G75*
G02*
X102950000Y-104850000I-50000J0D01*
G01*
G37*
G36*
G01*
X113275000Y-86825000D02*
X112625000Y-86825000D01*
G75*
G02*
X112575000Y-86775000I0J50000D01*
G01*
X112575000Y-85555000D01*
G75*
G02*
X112625000Y-85505000I50000J0D01*
G01*
X113275000Y-85505000D01*
G75*
G02*
X113325000Y-85555000I0J-50000D01*
G01*
X113325000Y-86775000D01*
G75*
G02*
X113275000Y-86825000I-50000J0D01*
G01*
G37*
G36*
G01*
X115175000Y-86825000D02*
X114525000Y-86825000D01*
G75*
G02*
X114475000Y-86775000I0J50000D01*
G01*
X114475000Y-85555000D01*
G75*
G02*
X114525000Y-85505000I50000J0D01*
G01*
X115175000Y-85505000D01*
G75*
G02*
X115225000Y-85555000I0J-50000D01*
G01*
X115225000Y-86775000D01*
G75*
G02*
X115175000Y-86825000I-50000J0D01*
G01*
G37*
G36*
G01*
X115175000Y-89445000D02*
X114525000Y-89445000D01*
G75*
G02*
X114475000Y-89395000I0J50000D01*
G01*
X114475000Y-88175000D01*
G75*
G02*
X114525000Y-88125000I50000J0D01*
G01*
X115175000Y-88125000D01*
G75*
G02*
X115225000Y-88175000I0J-50000D01*
G01*
X115225000Y-89395000D01*
G75*
G02*
X115175000Y-89445000I-50000J0D01*
G01*
G37*
G36*
G01*
X114225000Y-89445000D02*
X113575000Y-89445000D01*
G75*
G02*
X113525000Y-89395000I0J50000D01*
G01*
X113525000Y-88175000D01*
G75*
G02*
X113575000Y-88125000I50000J0D01*
G01*
X114225000Y-88125000D01*
G75*
G02*
X114275000Y-88175000I0J-50000D01*
G01*
X114275000Y-89395000D01*
G75*
G02*
X114225000Y-89445000I-50000J0D01*
G01*
G37*
G36*
G01*
X113275000Y-89445000D02*
X112625000Y-89445000D01*
G75*
G02*
X112575000Y-89395000I0J50000D01*
G01*
X112575000Y-88175000D01*
G75*
G02*
X112625000Y-88125000I50000J0D01*
G01*
X113275000Y-88125000D01*
G75*
G02*
X113325000Y-88175000I0J-50000D01*
G01*
X113325000Y-89395000D01*
G75*
G02*
X113275000Y-89445000I-50000J0D01*
G01*
G37*
G36*
G01*
X113800000Y-107150000D02*
X113800000Y-107750000D01*
G75*
G02*
X113575000Y-107975000I-225000J0D01*
G01*
X113125000Y-107975000D01*
G75*
G02*
X112900000Y-107750000I0J225000D01*
G01*
X112900000Y-107150000D01*
G75*
G02*
X113125000Y-106925000I225000J0D01*
G01*
X113575000Y-106925000D01*
G75*
G02*
X113800000Y-107150000I0J-225000D01*
G01*
G37*
G36*
G01*
X115450000Y-107150000D02*
X115450000Y-107750000D01*
G75*
G02*
X115225000Y-107975000I-225000J0D01*
G01*
X114775000Y-107975000D01*
G75*
G02*
X114550000Y-107750000I0J225000D01*
G01*
X114550000Y-107150000D01*
G75*
G02*
X114775000Y-106925000I225000J0D01*
G01*
X115225000Y-106925000D01*
G75*
G02*
X115450000Y-107150000I0J-225000D01*
G01*
G37*
G36*
G01*
X82250000Y-104750000D02*
X82850000Y-104750000D01*
G75*
G02*
X83075000Y-104975000I0J-225000D01*
G01*
X83075000Y-105425000D01*
G75*
G02*
X82850000Y-105650000I-225000J0D01*
G01*
X82250000Y-105650000D01*
G75*
G02*
X82025000Y-105425000I0J225000D01*
G01*
X82025000Y-104975000D01*
G75*
G02*
X82250000Y-104750000I225000J0D01*
G01*
G37*
G36*
G01*
X82250000Y-103100000D02*
X82850000Y-103100000D01*
G75*
G02*
X83075000Y-103325000I0J-225000D01*
G01*
X83075000Y-103775000D01*
G75*
G02*
X82850000Y-104000000I-225000J0D01*
G01*
X82250000Y-104000000D01*
G75*
G02*
X82025000Y-103775000I0J225000D01*
G01*
X82025000Y-103325000D01*
G75*
G02*
X82250000Y-103100000I225000J0D01*
G01*
G37*
G36*
G01*
X103300000Y-90525000D02*
X103300000Y-91125000D01*
G75*
G02*
X103075000Y-91350000I-225000J0D01*
G01*
X102625000Y-91350000D01*
G75*
G02*
X102400000Y-91125000I0J225000D01*
G01*
X102400000Y-90525000D01*
G75*
G02*
X102625000Y-90300000I225000J0D01*
G01*
X103075000Y-90300000D01*
G75*
G02*
X103300000Y-90525000I0J-225000D01*
G01*
G37*
G36*
G01*
X104950000Y-90525000D02*
X104950000Y-91125000D01*
G75*
G02*
X104725000Y-91350000I-225000J0D01*
G01*
X104275000Y-91350000D01*
G75*
G02*
X104050000Y-91125000I0J225000D01*
G01*
X104050000Y-90525000D01*
G75*
G02*
X104275000Y-90300000I225000J0D01*
G01*
X104725000Y-90300000D01*
G75*
G02*
X104950000Y-90525000I0J-225000D01*
G01*
G37*
G36*
G01*
X104725000Y-86825000D02*
X104125000Y-86825000D01*
G75*
G02*
X103900000Y-86600000I0J225000D01*
G01*
X103900000Y-86150000D01*
G75*
G02*
X104125000Y-85925000I225000J0D01*
G01*
X104725000Y-85925000D01*
G75*
G02*
X104950000Y-86150000I0J-225000D01*
G01*
X104950000Y-86600000D01*
G75*
G02*
X104725000Y-86825000I-225000J0D01*
G01*
G37*
G36*
G01*
X104725000Y-88475000D02*
X104125000Y-88475000D01*
G75*
G02*
X103900000Y-88250000I0J225000D01*
G01*
X103900000Y-87800000D01*
G75*
G02*
X104125000Y-87575000I225000J0D01*
G01*
X104725000Y-87575000D01*
G75*
G02*
X104950000Y-87800000I0J-225000D01*
G01*
X104950000Y-88250000D01*
G75*
G02*
X104725000Y-88475000I-225000J0D01*
G01*
G37*
G36*
G01*
X113775000Y-112650000D02*
X113775000Y-113250000D01*
G75*
G02*
X113550000Y-113475000I-225000J0D01*
G01*
X113100000Y-113475000D01*
G75*
G02*
X112875000Y-113250000I0J225000D01*
G01*
X112875000Y-112650000D01*
G75*
G02*
X113100000Y-112425000I225000J0D01*
G01*
X113550000Y-112425000D01*
G75*
G02*
X113775000Y-112650000I0J-225000D01*
G01*
G37*
G36*
G01*
X115425000Y-112650000D02*
X115425000Y-113250000D01*
G75*
G02*
X115200000Y-113475000I-225000J0D01*
G01*
X114750000Y-113475000D01*
G75*
G02*
X114525000Y-113250000I0J225000D01*
G01*
X114525000Y-112650000D01*
G75*
G02*
X114750000Y-112425000I225000J0D01*
G01*
X115200000Y-112425000D01*
G75*
G02*
X115425000Y-112650000I0J-225000D01*
G01*
G37*
G36*
G01*
X98450000Y-114000000D02*
X98450000Y-114600000D01*
G75*
G02*
X98225000Y-114825000I-225000J0D01*
G01*
X97775000Y-114825000D01*
G75*
G02*
X97550000Y-114600000I0J225000D01*
G01*
X97550000Y-114000000D01*
G75*
G02*
X97775000Y-113775000I225000J0D01*
G01*
X98225000Y-113775000D01*
G75*
G02*
X98450000Y-114000000I0J-225000D01*
G01*
G37*
G36*
G01*
X100100000Y-114000000D02*
X100100000Y-114600000D01*
G75*
G02*
X99875000Y-114825000I-225000J0D01*
G01*
X99425000Y-114825000D01*
G75*
G02*
X99200000Y-114600000I0J225000D01*
G01*
X99200000Y-114000000D01*
G75*
G02*
X99425000Y-113775000I225000J0D01*
G01*
X99875000Y-113775000D01*
G75*
G02*
X100100000Y-114000000I0J-225000D01*
G01*
G37*
G36*
G01*
X108350000Y-85000000D02*
X108350000Y-85600000D01*
G75*
G02*
X108125000Y-85825000I-225000J0D01*
G01*
X107675000Y-85825000D01*
G75*
G02*
X107450000Y-85600000I0J225000D01*
G01*
X107450000Y-85000000D01*
G75*
G02*
X107675000Y-84775000I225000J0D01*
G01*
X108125000Y-84775000D01*
G75*
G02*
X108350000Y-85000000I0J-225000D01*
G01*
G37*
G36*
G01*
X110000000Y-85000000D02*
X110000000Y-85600000D01*
G75*
G02*
X109775000Y-85825000I-225000J0D01*
G01*
X109325000Y-85825000D01*
G75*
G02*
X109100000Y-85600000I0J225000D01*
G01*
X109100000Y-85000000D01*
G75*
G02*
X109325000Y-84775000I225000J0D01*
G01*
X109775000Y-84775000D01*
G75*
G02*
X110000000Y-85000000I0J-225000D01*
G01*
G37*
G36*
G01*
X108350000Y-86725000D02*
X108350000Y-87325000D01*
G75*
G02*
X108125000Y-87550000I-225000J0D01*
G01*
X107675000Y-87550000D01*
G75*
G02*
X107450000Y-87325000I0J225000D01*
G01*
X107450000Y-86725000D01*
G75*
G02*
X107675000Y-86500000I225000J0D01*
G01*
X108125000Y-86500000D01*
G75*
G02*
X108350000Y-86725000I0J-225000D01*
G01*
G37*
G36*
G01*
X110000000Y-86725000D02*
X110000000Y-87325000D01*
G75*
G02*
X109775000Y-87550000I-225000J0D01*
G01*
X109325000Y-87550000D01*
G75*
G02*
X109100000Y-87325000I0J225000D01*
G01*
X109100000Y-86725000D01*
G75*
G02*
X109325000Y-86500000I225000J0D01*
G01*
X109775000Y-86500000D01*
G75*
G02*
X110000000Y-86725000I0J-225000D01*
G01*
G37*
G36*
G01*
X102681250Y-86875000D02*
X102118750Y-86875000D01*
G75*
G02*
X101875000Y-86631250I0J243750D01*
G01*
X101875000Y-86143750D01*
G75*
G02*
X102118750Y-85900000I243750J0D01*
G01*
X102681250Y-85900000D01*
G75*
G02*
X102925000Y-86143750I0J-243750D01*
G01*
X102925000Y-86631250D01*
G75*
G02*
X102681250Y-86875000I-243750J0D01*
G01*
G37*
G36*
G01*
X102681250Y-88450000D02*
X102118750Y-88450000D01*
G75*
G02*
X101875000Y-88206250I0J243750D01*
G01*
X101875000Y-87718750D01*
G75*
G02*
X102118750Y-87475000I243750J0D01*
G01*
X102681250Y-87475000D01*
G75*
G02*
X102925000Y-87718750I0J-243750D01*
G01*
X102925000Y-88206250D01*
G75*
G02*
X102681250Y-88450000I-243750J0D01*
G01*
G37*
G36*
G01*
X111012500Y-113256250D02*
X111012500Y-112693750D01*
G75*
G02*
X111256250Y-112450000I243750J0D01*
G01*
X111743750Y-112450000D01*
G75*
G02*
X111987500Y-112693750I0J-243750D01*
G01*
X111987500Y-113256250D01*
G75*
G02*
X111743750Y-113500000I-243750J0D01*
G01*
X111256250Y-113500000D01*
G75*
G02*
X111012500Y-113256250I0J243750D01*
G01*
G37*
G36*
G01*
X109437500Y-113256250D02*
X109437500Y-112693750D01*
G75*
G02*
X109681250Y-112450000I243750J0D01*
G01*
X110168750Y-112450000D01*
G75*
G02*
X110412500Y-112693750I0J-243750D01*
G01*
X110412500Y-113256250D01*
G75*
G02*
X110168750Y-113500000I-243750J0D01*
G01*
X109681250Y-113500000D01*
G75*
G02*
X109437500Y-113256250I0J243750D01*
G01*
G37*
G36*
G01*
X95543750Y-113862500D02*
X96106250Y-113862500D01*
G75*
G02*
X96350000Y-114106250I0J-243750D01*
G01*
X96350000Y-114593750D01*
G75*
G02*
X96106250Y-114837500I-243750J0D01*
G01*
X95543750Y-114837500D01*
G75*
G02*
X95300000Y-114593750I0J243750D01*
G01*
X95300000Y-114106250D01*
G75*
G02*
X95543750Y-113862500I243750J0D01*
G01*
G37*
G36*
G01*
X95543750Y-112287500D02*
X96106250Y-112287500D01*
G75*
G02*
X96350000Y-112531250I0J-243750D01*
G01*
X96350000Y-113018750D01*
G75*
G02*
X96106250Y-113262500I-243750J0D01*
G01*
X95543750Y-113262500D01*
G75*
G02*
X95300000Y-113018750I0J243750D01*
G01*
X95300000Y-112531250D01*
G75*
G02*
X95543750Y-112287500I243750J0D01*
G01*
G37*
G36*
G01*
X108425000Y-88493750D02*
X108425000Y-89056250D01*
G75*
G02*
X108181250Y-89300000I-243750J0D01*
G01*
X107693750Y-89300000D01*
G75*
G02*
X107450000Y-89056250I0J243750D01*
G01*
X107450000Y-88493750D01*
G75*
G02*
X107693750Y-88250000I243750J0D01*
G01*
X108181250Y-88250000D01*
G75*
G02*
X108425000Y-88493750I0J-243750D01*
G01*
G37*
G36*
G01*
X110000000Y-88493750D02*
X110000000Y-89056250D01*
G75*
G02*
X109756250Y-89300000I-243750J0D01*
G01*
X109268750Y-89300000D01*
G75*
G02*
X109025000Y-89056250I0J243750D01*
G01*
X109025000Y-88493750D01*
G75*
G02*
X109268750Y-88250000I243750J0D01*
G01*
X109756250Y-88250000D01*
G75*
G02*
X110000000Y-88493750I0J-243750D01*
G01*
G37*
G36*
G01*
X114450000Y-109550000D02*
X114450000Y-109000000D01*
G75*
G02*
X114700000Y-108750000I250000J0D01*
G01*
X115200000Y-108750000D01*
G75*
G02*
X115450000Y-109000000I0J-250000D01*
G01*
X115450000Y-109550000D01*
G75*
G02*
X115200000Y-109800000I-250000J0D01*
G01*
X114700000Y-109800000D01*
G75*
G02*
X114450000Y-109550000I0J250000D01*
G01*
G37*
G36*
G01*
X112900000Y-109550000D02*
X112900000Y-109000000D01*
G75*
G02*
X113150000Y-108750000I250000J0D01*
G01*
X113650000Y-108750000D01*
G75*
G02*
X113900000Y-109000000I0J-250000D01*
G01*
X113900000Y-109550000D01*
G75*
G02*
X113650000Y-109800000I-250000J0D01*
G01*
X113150000Y-109800000D01*
G75*
G02*
X112900000Y-109550000I0J250000D01*
G01*
G37*
G36*
G01*
X92575000Y-114575000D02*
X92575000Y-114025000D01*
G75*
G02*
X92825000Y-113775000I250000J0D01*
G01*
X93325000Y-113775000D01*
G75*
G02*
X93575000Y-114025000I0J-250000D01*
G01*
X93575000Y-114575000D01*
G75*
G02*
X93325000Y-114825000I-250000J0D01*
G01*
X92825000Y-114825000D01*
G75*
G02*
X92575000Y-114575000I0J250000D01*
G01*
G37*
G36*
G01*
X91025000Y-114575000D02*
X91025000Y-114025000D01*
G75*
G02*
X91275000Y-113775000I250000J0D01*
G01*
X91775000Y-113775000D01*
G75*
G02*
X92025000Y-114025000I0J-250000D01*
G01*
X92025000Y-114575000D01*
G75*
G02*
X91775000Y-114825000I-250000J0D01*
G01*
X91275000Y-114825000D01*
G75*
G02*
X91025000Y-114575000I0J250000D01*
G01*
G37*
G36*
G01*
X83875000Y-113200000D02*
X83325000Y-113200000D01*
G75*
G02*
X83075000Y-112950000I0J250000D01*
G01*
X83075000Y-112450000D01*
G75*
G02*
X83325000Y-112200000I250000J0D01*
G01*
X83875000Y-112200000D01*
G75*
G02*
X84125000Y-112450000I0J-250000D01*
G01*
X84125000Y-112950000D01*
G75*
G02*
X83875000Y-113200000I-250000J0D01*
G01*
G37*
G36*
G01*
X83875000Y-114750000D02*
X83325000Y-114750000D01*
G75*
G02*
X83075000Y-114500000I0J250000D01*
G01*
X83075000Y-114000000D01*
G75*
G02*
X83325000Y-113750000I250000J0D01*
G01*
X83875000Y-113750000D01*
G75*
G02*
X84125000Y-114000000I0J-250000D01*
G01*
X84125000Y-114500000D01*
G75*
G02*
X83875000Y-114750000I-250000J0D01*
G01*
G37*
G36*
G01*
X117525000Y-89900000D02*
X116975000Y-89900000D01*
G75*
G02*
X116725000Y-89650000I0J250000D01*
G01*
X116725000Y-89150000D01*
G75*
G02*
X116975000Y-88900000I250000J0D01*
G01*
X117525000Y-88900000D01*
G75*
G02*
X117775000Y-89150000I0J-250000D01*
G01*
X117775000Y-89650000D01*
G75*
G02*
X117525000Y-89900000I-250000J0D01*
G01*
G37*
G36*
G01*
X117525000Y-91450000D02*
X116975000Y-91450000D01*
G75*
G02*
X116725000Y-91200000I0J250000D01*
G01*
X116725000Y-90700000D01*
G75*
G02*
X116975000Y-90450000I250000J0D01*
G01*
X117525000Y-90450000D01*
G75*
G02*
X117775000Y-90700000I0J-250000D01*
G01*
X117775000Y-91200000D01*
G75*
G02*
X117525000Y-91450000I-250000J0D01*
G01*
G37*
G36*
G01*
X82800000Y-107625000D02*
X82250000Y-107625000D01*
G75*
G02*
X82000000Y-107375000I0J250000D01*
G01*
X82000000Y-106875000D01*
G75*
G02*
X82250000Y-106625000I250000J0D01*
G01*
X82800000Y-106625000D01*
G75*
G02*
X83050000Y-106875000I0J-250000D01*
G01*
X83050000Y-107375000D01*
G75*
G02*
X82800000Y-107625000I-250000J0D01*
G01*
G37*
G36*
G01*
X82800000Y-109175000D02*
X82250000Y-109175000D01*
G75*
G02*
X82000000Y-108925000I0J250000D01*
G01*
X82000000Y-108425000D01*
G75*
G02*
X82250000Y-108175000I250000J0D01*
G01*
X82800000Y-108175000D01*
G75*
G02*
X83050000Y-108425000I0J-250000D01*
G01*
X83050000Y-108925000D01*
G75*
G02*
X82800000Y-109175000I-250000J0D01*
G01*
G37*
G36*
G01*
X116975000Y-93675000D02*
X117525000Y-93675000D01*
G75*
G02*
X117775000Y-93925000I0J-250000D01*
G01*
X117775000Y-94425000D01*
G75*
G02*
X117525000Y-94675000I-250000J0D01*
G01*
X116975000Y-94675000D01*
G75*
G02*
X116725000Y-94425000I0J250000D01*
G01*
X116725000Y-93925000D01*
G75*
G02*
X116975000Y-93675000I250000J0D01*
G01*
G37*
G36*
G01*
X116975000Y-92125000D02*
X117525000Y-92125000D01*
G75*
G02*
X117775000Y-92375000I0J-250000D01*
G01*
X117775000Y-92875000D01*
G75*
G02*
X117525000Y-93125000I-250000J0D01*
G01*
X116975000Y-93125000D01*
G75*
G02*
X116725000Y-92875000I0J250000D01*
G01*
X116725000Y-92375000D01*
G75*
G02*
X116975000Y-92125000I250000J0D01*
G01*
G37*
G36*
G01*
X116975000Y-87075000D02*
X117525000Y-87075000D01*
G75*
G02*
X117775000Y-87325000I0J-250000D01*
G01*
X117775000Y-87825000D01*
G75*
G02*
X117525000Y-88075000I-250000J0D01*
G01*
X116975000Y-88075000D01*
G75*
G02*
X116725000Y-87825000I0J250000D01*
G01*
X116725000Y-87325000D01*
G75*
G02*
X116975000Y-87075000I250000J0D01*
G01*
G37*
G36*
G01*
X116975000Y-85525000D02*
X117525000Y-85525000D01*
G75*
G02*
X117775000Y-85775000I0J-250000D01*
G01*
X117775000Y-86275000D01*
G75*
G02*
X117525000Y-86525000I-250000J0D01*
G01*
X116975000Y-86525000D01*
G75*
G02*
X116725000Y-86275000I0J250000D01*
G01*
X116725000Y-85775000D01*
G75*
G02*
X116975000Y-85525000I250000J0D01*
G01*
G37*
M02*
