M48
; DRILL file {KiCad 5.1.8} date Sat Jan 23 15:50:59 2021
; FORMAT={-:-/ absolute / metric / decimal}
; #@! TF.CreationDate,2021-01-23T15:50:59+08:00
; #@! TF.GenerationSoftware,Kicad,Pcbnew,5.1.8
FMAT,2
METRIC
T1C0.400
T2C0.800
%
G90
G05
T1
X82.218Y-86.192
X82.218Y-95.542
X82.218Y-98.942
X82.218Y-102.343
X82.218Y-109.992
X82.218Y-113.392
X84.768Y-89.593
X85.618Y-82.792
X85.618Y-86.192
X85.618Y-98.093
X85.618Y-109.142
X87.318Y-102.343
X89.018Y-80.242
X89.018Y-83.642
X89.018Y-87.892
X89.175Y-98.125
X89.4Y-106.525
X89.868Y-91.292
X89.868Y-113.392
X90.175Y-94.675
X90.175Y-98.15
X90.625Y-103.9
X91.45Y-112.7
X91.568Y-94.692
X91.568Y-98.093
X91.568Y-102.343
X92.418Y-77.692
X92.418Y-81.093
X92.418Y-85.343
X93.1Y-112.0
X93.268Y-115.942
X94.968Y-93.843
X94.968Y-100.642
X94.968Y-105.742
X95.818Y-79.392
X95.818Y-86.192
X95.818Y-97.242
X96.55Y-83.325
X96.668Y-109.992
X97.775Y-97.525
X97.775Y-102.55
X98.368Y-91.292
X98.368Y-105.742
X99.218Y-81.942
X99.218Y-85.343
X99.218Y-94.692
X99.218Y-100.642
X100.068Y-109.142
X100.918Y-112.542
X101.525Y-89.725
X101.768Y-105.742
X102.225Y-97.525
X102.25Y-102.55
X102.618Y-85.343
X102.95Y-83.325
X103.468Y-89.593
X103.468Y-92.992
X103.468Y-96.392
X103.468Y-99.792
X103.55Y-106.475
X104.318Y-79.392
X104.318Y-114.242
X105.168Y-103.192
X106.868Y-83.642
X106.868Y-87.042
X106.868Y-92.142
X106.868Y-96.392
X106.868Y-99.792
X107.718Y-77.692
X107.718Y-110.843
X107.718Y-114.242
X109.418Y-104.042
X110.268Y-83.642
X110.268Y-92.992
X110.268Y-96.392
X110.268Y-99.792
X111.118Y-80.242
X111.118Y-87.892
X111.118Y-107.442
X111.118Y-110.843
X111.118Y-114.242
X113.668Y-84.492
X113.668Y-95.542
X113.668Y-98.942
X113.668Y-102.343
X114.518Y-110.843
X115.368Y-115.942
X116.218Y-87.892
X116.218Y-91.292
X116.218Y-105.742
X117.068Y-95.542
X117.068Y-99.792
X117.918Y-109.142
X117.918Y-112.542
T2
X83.275Y-87.5
X83.275Y-89.5
X83.275Y-91.5
X83.275Y-93.5
X87.4Y-87.5
X87.4Y-89.5
X87.4Y-91.5
X87.4Y-93.5
T0
M30
