G04 #@! TF.GenerationSoftware,KiCad,Pcbnew,5.1.8*
G04 #@! TF.CreationDate,2021-01-23T15:50:44+08:00*
G04 #@! TF.ProjectId,medicine_timer_pcb,6d656469-6369-46e6-955f-74696d65725f,rev?*
G04 #@! TF.SameCoordinates,Original*
G04 #@! TF.FileFunction,Legend,Top*
G04 #@! TF.FilePolarity,Positive*
%FSLAX46Y46*%
G04 Gerber Fmt 4.6, Leading zero omitted, Abs format (unit mm)*
G04 Created by KiCad (PCBNEW 5.1.8) date 2021-01-23 15:50:44*
%MOMM*%
%LPD*%
G01*
G04 APERTURE LIST*
%ADD10C,0.150000*%
%ADD11C,0.120000*%
%ADD12C,2.100000*%
%ADD13O,1.450000X1.450000*%
G04 APERTURE END LIST*
D10*
X114228571Y-104438095D02*
X114276190Y-104295238D01*
X114323809Y-104247619D01*
X114419047Y-104200000D01*
X114561904Y-104200000D01*
X114657142Y-104247619D01*
X114704761Y-104295238D01*
X114752380Y-104390476D01*
X114752380Y-104771428D01*
X113752380Y-104771428D01*
X113752380Y-104438095D01*
X113800000Y-104342857D01*
X113847619Y-104295238D01*
X113942857Y-104247619D01*
X114038095Y-104247619D01*
X114133333Y-104295238D01*
X114180952Y-104342857D01*
X114228571Y-104438095D01*
X114228571Y-104771428D01*
X114466666Y-103819047D02*
X114466666Y-103342857D01*
X114752380Y-103914285D02*
X113752380Y-103580952D01*
X114752380Y-103247619D01*
X113752380Y-103057142D02*
X113752380Y-102485714D01*
X114752380Y-102771428D02*
X113752380Y-102771428D01*
X113752380Y-102295238D02*
X113752380Y-101723809D01*
X114752380Y-102009523D02*
X113752380Y-102009523D01*
X114371428Y-101390476D02*
X114371428Y-100628571D01*
X114228571Y-99238095D02*
X114276190Y-99095238D01*
X114323809Y-99047619D01*
X114419047Y-99000000D01*
X114561904Y-99000000D01*
X114657142Y-99047619D01*
X114704761Y-99095238D01*
X114752380Y-99190476D01*
X114752380Y-99571428D01*
X113752380Y-99571428D01*
X113752380Y-99238095D01*
X113800000Y-99142857D01*
X113847619Y-99095238D01*
X113942857Y-99047619D01*
X114038095Y-99047619D01*
X114133333Y-99095238D01*
X114180952Y-99142857D01*
X114228571Y-99238095D01*
X114228571Y-99571428D01*
X114466666Y-98619047D02*
X114466666Y-98142857D01*
X114752380Y-98714285D02*
X113752380Y-98380952D01*
X114752380Y-98047619D01*
X113752380Y-97857142D02*
X113752380Y-97285714D01*
X114752380Y-97571428D02*
X113752380Y-97571428D01*
X113752380Y-97095238D02*
X113752380Y-96523809D01*
X114752380Y-96809523D02*
X113752380Y-96809523D01*
X114371428Y-96190476D02*
X114371428Y-95428571D01*
X114752380Y-95809523D02*
X113990476Y-95809523D01*
X89438095Y-93200000D02*
X89342857Y-93152380D01*
X89200000Y-93152380D01*
X89057142Y-93200000D01*
X88961904Y-93295238D01*
X88914285Y-93390476D01*
X88866666Y-93580952D01*
X88866666Y-93723809D01*
X88914285Y-93914285D01*
X88961904Y-94009523D01*
X89057142Y-94104761D01*
X89200000Y-94152380D01*
X89295238Y-94152380D01*
X89438095Y-94104761D01*
X89485714Y-94057142D01*
X89485714Y-93723809D01*
X89295238Y-93723809D01*
X89914285Y-94152380D02*
X89914285Y-93152380D01*
X90485714Y-94152380D01*
X90485714Y-93152380D01*
X90961904Y-94152380D02*
X90961904Y-93152380D01*
X91200000Y-93152380D01*
X91342857Y-93200000D01*
X91438095Y-93295238D01*
X91485714Y-93390476D01*
X91533333Y-93580952D01*
X91533333Y-93723809D01*
X91485714Y-93914285D01*
X91438095Y-94009523D01*
X91342857Y-94104761D01*
X91200000Y-94152380D01*
X90961904Y-94152380D01*
X89238095Y-91052380D02*
X89809523Y-91052380D01*
X89523809Y-92052380D02*
X89523809Y-91052380D01*
X90047619Y-91052380D02*
X90714285Y-92052380D01*
X90714285Y-91052380D02*
X90047619Y-92052380D01*
X89733333Y-89852380D02*
X89400000Y-89376190D01*
X89161904Y-89852380D02*
X89161904Y-88852380D01*
X89542857Y-88852380D01*
X89638095Y-88900000D01*
X89685714Y-88947619D01*
X89733333Y-89042857D01*
X89733333Y-89185714D01*
X89685714Y-89280952D01*
X89638095Y-89328571D01*
X89542857Y-89376190D01*
X89161904Y-89376190D01*
X90066666Y-88852380D02*
X90733333Y-89852380D01*
X90733333Y-88852380D02*
X90066666Y-89852380D01*
X88861904Y-86452380D02*
X89480952Y-86452380D01*
X89147619Y-86833333D01*
X89290476Y-86833333D01*
X89385714Y-86880952D01*
X89433333Y-86928571D01*
X89480952Y-87023809D01*
X89480952Y-87261904D01*
X89433333Y-87357142D01*
X89385714Y-87404761D01*
X89290476Y-87452380D01*
X89004761Y-87452380D01*
X88909523Y-87404761D01*
X88861904Y-87357142D01*
X89766666Y-86452380D02*
X90100000Y-87452380D01*
X90433333Y-86452380D01*
X90671428Y-86452380D02*
X91290476Y-86452380D01*
X90957142Y-86833333D01*
X91100000Y-86833333D01*
X91195238Y-86880952D01*
X91242857Y-86928571D01*
X91290476Y-87023809D01*
X91290476Y-87261904D01*
X91242857Y-87357142D01*
X91195238Y-87404761D01*
X91100000Y-87452380D01*
X90814285Y-87452380D01*
X90719047Y-87404761D01*
X90671428Y-87357142D01*
X82161904Y-85052380D02*
X82780952Y-85052380D01*
X82447619Y-85433333D01*
X82590476Y-85433333D01*
X82685714Y-85480952D01*
X82733333Y-85528571D01*
X82780952Y-85623809D01*
X82780952Y-85861904D01*
X82733333Y-85957142D01*
X82685714Y-86004761D01*
X82590476Y-86052380D01*
X82304761Y-86052380D01*
X82209523Y-86004761D01*
X82161904Y-85957142D01*
X83066666Y-85052380D02*
X83400000Y-86052380D01*
X83733333Y-85052380D01*
X83971428Y-85052380D02*
X84590476Y-85052380D01*
X84257142Y-85433333D01*
X84400000Y-85433333D01*
X84495238Y-85480952D01*
X84542857Y-85528571D01*
X84590476Y-85623809D01*
X84590476Y-85861904D01*
X84542857Y-85957142D01*
X84495238Y-86004761D01*
X84400000Y-86052380D01*
X84114285Y-86052380D01*
X84019047Y-86004761D01*
X83971428Y-85957142D01*
X85852380Y-89923809D02*
X84852380Y-89923809D01*
X84852380Y-89685714D01*
X84900000Y-89542857D01*
X84995238Y-89447619D01*
X85090476Y-89400000D01*
X85280952Y-89352380D01*
X85423809Y-89352380D01*
X85614285Y-89400000D01*
X85709523Y-89447619D01*
X85804761Y-89542857D01*
X85852380Y-89685714D01*
X85852380Y-89923809D01*
X85852380Y-88923809D02*
X84852380Y-88923809D01*
X84852380Y-88257142D02*
X84852380Y-88066666D01*
X84900000Y-87971428D01*
X84995238Y-87876190D01*
X85185714Y-87828571D01*
X85519047Y-87828571D01*
X85709523Y-87876190D01*
X85804761Y-87971428D01*
X85852380Y-88066666D01*
X85852380Y-88257142D01*
X85804761Y-88352380D01*
X85709523Y-88447619D01*
X85519047Y-88495238D01*
X85185714Y-88495238D01*
X84995238Y-88447619D01*
X84900000Y-88352380D01*
X84852380Y-88257142D01*
X85757142Y-92095238D02*
X85804761Y-92142857D01*
X85852380Y-92285714D01*
X85852380Y-92380952D01*
X85804761Y-92523809D01*
X85709523Y-92619047D01*
X85614285Y-92666666D01*
X85423809Y-92714285D01*
X85280952Y-92714285D01*
X85090476Y-92666666D01*
X84995238Y-92619047D01*
X84900000Y-92523809D01*
X84852380Y-92380952D01*
X84852380Y-92285714D01*
X84900000Y-92142857D01*
X84947619Y-92095238D01*
X85852380Y-91190476D02*
X85852380Y-91666666D01*
X84852380Y-91666666D01*
X85852380Y-90857142D02*
X84852380Y-90857142D01*
X85852380Y-90285714D02*
X85280952Y-90714285D01*
X84852380Y-90285714D02*
X85423809Y-90857142D01*
X83838095Y-94800000D02*
X83742857Y-94752380D01*
X83600000Y-94752380D01*
X83457142Y-94800000D01*
X83361904Y-94895238D01*
X83314285Y-94990476D01*
X83266666Y-95180952D01*
X83266666Y-95323809D01*
X83314285Y-95514285D01*
X83361904Y-95609523D01*
X83457142Y-95704761D01*
X83600000Y-95752380D01*
X83695238Y-95752380D01*
X83838095Y-95704761D01*
X83885714Y-95657142D01*
X83885714Y-95323809D01*
X83695238Y-95323809D01*
X84314285Y-95752380D02*
X84314285Y-94752380D01*
X84885714Y-95752380D01*
X84885714Y-94752380D01*
X85361904Y-95752380D02*
X85361904Y-94752380D01*
X85600000Y-94752380D01*
X85742857Y-94800000D01*
X85838095Y-94895238D01*
X85885714Y-94990476D01*
X85933333Y-95180952D01*
X85933333Y-95323809D01*
X85885714Y-95514285D01*
X85838095Y-95609523D01*
X85742857Y-95704761D01*
X85600000Y-95752380D01*
X85361904Y-95752380D01*
X127214285Y-93183333D02*
X126547619Y-93183333D01*
X127595238Y-92945238D02*
X126880952Y-92707142D01*
X126880952Y-93326190D01*
X127547619Y-93897619D02*
X127547619Y-93992857D01*
X127500000Y-94088095D01*
X127452380Y-94135714D01*
X127357142Y-94183333D01*
X127166666Y-94230952D01*
X126928571Y-94230952D01*
X126738095Y-94183333D01*
X126642857Y-94135714D01*
X126595238Y-94088095D01*
X126547619Y-93992857D01*
X126547619Y-93897619D01*
X126595238Y-93802380D01*
X126642857Y-93754761D01*
X126738095Y-93707142D01*
X126928571Y-93659523D01*
X127166666Y-93659523D01*
X127357142Y-93707142D01*
X127452380Y-93754761D01*
X127500000Y-93802380D01*
X127547619Y-93897619D01*
X126642857Y-94659523D02*
X126595238Y-94707142D01*
X126547619Y-94659523D01*
X126595238Y-94611904D01*
X126642857Y-94659523D01*
X126547619Y-94659523D01*
X126547619Y-95659523D02*
X126547619Y-95088095D01*
X126547619Y-95373809D02*
X127547619Y-95373809D01*
X127404761Y-95278571D01*
X127309523Y-95183333D01*
X127261904Y-95088095D01*
X127547619Y-96278571D02*
X127547619Y-96373809D01*
X127500000Y-96469047D01*
X127452380Y-96516666D01*
X127357142Y-96564285D01*
X127166666Y-96611904D01*
X126928571Y-96611904D01*
X126738095Y-96564285D01*
X126642857Y-96516666D01*
X126595238Y-96469047D01*
X126547619Y-96373809D01*
X126547619Y-96278571D01*
X126595238Y-96183333D01*
X126642857Y-96135714D01*
X126738095Y-96088095D01*
X126928571Y-96040476D01*
X127166666Y-96040476D01*
X127357142Y-96088095D01*
X127452380Y-96135714D01*
X127500000Y-96183333D01*
X127547619Y-96278571D01*
X127547619Y-97230952D02*
X127547619Y-97326190D01*
X127500000Y-97421428D01*
X127452380Y-97469047D01*
X127357142Y-97516666D01*
X127166666Y-97564285D01*
X126928571Y-97564285D01*
X126738095Y-97516666D01*
X126642857Y-97469047D01*
X126595238Y-97421428D01*
X126547619Y-97326190D01*
X126547619Y-97230952D01*
X126595238Y-97135714D01*
X126642857Y-97088095D01*
X126738095Y-97040476D01*
X126928571Y-96992857D01*
X127166666Y-96992857D01*
X127357142Y-97040476D01*
X127452380Y-97088095D01*
X127500000Y-97135714D01*
X127547619Y-97230952D01*
X126547619Y-98754761D02*
X127214285Y-98754761D01*
X127119047Y-98754761D02*
X127166666Y-98802380D01*
X127214285Y-98897619D01*
X127214285Y-99040476D01*
X127166666Y-99135714D01*
X127071428Y-99183333D01*
X126547619Y-99183333D01*
X127071428Y-99183333D02*
X127166666Y-99230952D01*
X127214285Y-99326190D01*
X127214285Y-99469047D01*
X127166666Y-99564285D01*
X127071428Y-99611904D01*
X126547619Y-99611904D01*
X126547619Y-100088095D02*
X127214285Y-100088095D01*
X127119047Y-100088095D02*
X127166666Y-100135714D01*
X127214285Y-100230952D01*
X127214285Y-100373809D01*
X127166666Y-100469047D01*
X127071428Y-100516666D01*
X126547619Y-100516666D01*
X127071428Y-100516666D02*
X127166666Y-100564285D01*
X127214285Y-100659523D01*
X127214285Y-100802380D01*
X127166666Y-100897619D01*
X127071428Y-100945238D01*
X126547619Y-100945238D01*
X125700000Y-76800000D02*
X125700000Y-116900000D01*
X100000000Y-76800000D02*
X126286421Y-76800000D01*
X100000000Y-116900000D02*
X126286421Y-116900000D01*
X125700000Y-116900000D02*
X125113579Y-115773496D01*
X125700000Y-116900000D02*
X126286421Y-115773496D01*
X125700000Y-76800000D02*
X125113579Y-77926504D01*
X125700000Y-76800000D02*
X126286421Y-77926504D01*
X95809523Y-122352380D02*
X96428571Y-122352380D01*
X96095238Y-122733333D01*
X96238095Y-122733333D01*
X96333333Y-122780952D01*
X96380952Y-122828571D01*
X96428571Y-122923809D01*
X96428571Y-123161904D01*
X96380952Y-123257142D01*
X96333333Y-123304761D01*
X96238095Y-123352380D01*
X95952380Y-123352380D01*
X95857142Y-123304761D01*
X95809523Y-123257142D01*
X96761904Y-122352380D02*
X97428571Y-122352380D01*
X97000000Y-123352380D01*
X97809523Y-123257142D02*
X97857142Y-123304761D01*
X97809523Y-123352380D01*
X97761904Y-123304761D01*
X97809523Y-123257142D01*
X97809523Y-123352380D01*
X98428571Y-122780952D02*
X98333333Y-122733333D01*
X98285714Y-122685714D01*
X98238095Y-122590476D01*
X98238095Y-122542857D01*
X98285714Y-122447619D01*
X98333333Y-122400000D01*
X98428571Y-122352380D01*
X98619047Y-122352380D01*
X98714285Y-122400000D01*
X98761904Y-122447619D01*
X98809523Y-122542857D01*
X98809523Y-122590476D01*
X98761904Y-122685714D01*
X98714285Y-122733333D01*
X98619047Y-122780952D01*
X98428571Y-122780952D01*
X98333333Y-122828571D01*
X98285714Y-122876190D01*
X98238095Y-122971428D01*
X98238095Y-123161904D01*
X98285714Y-123257142D01*
X98333333Y-123304761D01*
X98428571Y-123352380D01*
X98619047Y-123352380D01*
X98714285Y-123304761D01*
X98761904Y-123257142D01*
X98809523Y-123161904D01*
X98809523Y-122971428D01*
X98761904Y-122876190D01*
X98714285Y-122828571D01*
X98619047Y-122780952D01*
X99428571Y-122352380D02*
X99523809Y-122352380D01*
X99619047Y-122400000D01*
X99666666Y-122447619D01*
X99714285Y-122542857D01*
X99761904Y-122733333D01*
X99761904Y-122971428D01*
X99714285Y-123161904D01*
X99666666Y-123257142D01*
X99619047Y-123304761D01*
X99523809Y-123352380D01*
X99428571Y-123352380D01*
X99333333Y-123304761D01*
X99285714Y-123257142D01*
X99238095Y-123161904D01*
X99190476Y-122971428D01*
X99190476Y-122733333D01*
X99238095Y-122542857D01*
X99285714Y-122447619D01*
X99333333Y-122400000D01*
X99428571Y-122352380D01*
X100380952Y-122352380D02*
X100476190Y-122352380D01*
X100571428Y-122400000D01*
X100619047Y-122447619D01*
X100666666Y-122542857D01*
X100714285Y-122733333D01*
X100714285Y-122971428D01*
X100666666Y-123161904D01*
X100619047Y-123257142D01*
X100571428Y-123304761D01*
X100476190Y-123352380D01*
X100380952Y-123352380D01*
X100285714Y-123304761D01*
X100238095Y-123257142D01*
X100190476Y-123161904D01*
X100142857Y-122971428D01*
X100142857Y-122733333D01*
X100190476Y-122542857D01*
X100238095Y-122447619D01*
X100285714Y-122400000D01*
X100380952Y-122352380D01*
X101904761Y-123352380D02*
X101904761Y-122685714D01*
X101904761Y-122780952D02*
X101952380Y-122733333D01*
X102047619Y-122685714D01*
X102190476Y-122685714D01*
X102285714Y-122733333D01*
X102333333Y-122828571D01*
X102333333Y-123352380D01*
X102333333Y-122828571D02*
X102380952Y-122733333D01*
X102476190Y-122685714D01*
X102619047Y-122685714D01*
X102714285Y-122733333D01*
X102761904Y-122828571D01*
X102761904Y-123352380D01*
X103238095Y-123352380D02*
X103238095Y-122685714D01*
X103238095Y-122780952D02*
X103285714Y-122733333D01*
X103380952Y-122685714D01*
X103523809Y-122685714D01*
X103619047Y-122733333D01*
X103666666Y-122828571D01*
X103666666Y-123352380D01*
X103666666Y-122828571D02*
X103714285Y-122733333D01*
X103809523Y-122685714D01*
X103952380Y-122685714D01*
X104047619Y-122733333D01*
X104095238Y-122828571D01*
X104095238Y-123352380D01*
X81100000Y-121600000D02*
X118900000Y-121600000D01*
X81100000Y-115800000D02*
X81100000Y-122186421D01*
X118900000Y-115800000D02*
X118900000Y-122186421D01*
X118900000Y-121600000D02*
X117773496Y-122186421D01*
X118900000Y-121600000D02*
X117773496Y-121013579D01*
X81100000Y-121600000D02*
X82226504Y-122186421D01*
X81100000Y-121600000D02*
X82226504Y-121013579D01*
D11*
X103810000Y-76200000D02*
X103810000Y-76460000D01*
X103810000Y-78740000D02*
X103810000Y-80510000D01*
X103810000Y-80510000D02*
X103430000Y-80510000D01*
X96190000Y-80510000D02*
X96190000Y-78740000D01*
X96190000Y-76460000D02*
X96190000Y-76200000D01*
X96190000Y-80510000D02*
X96570000Y-80510000D01*
X88275000Y-115175000D02*
X86925000Y-115175000D01*
X88275000Y-113425000D02*
X86925000Y-113425000D01*
X117200000Y-95900000D02*
X118000000Y-96700000D01*
X118000000Y-96700000D02*
X118000000Y-104100000D01*
X118000000Y-104100000D02*
X115000000Y-104100000D01*
X115000000Y-104100000D02*
X115000000Y-95900000D01*
X115000000Y-95900000D02*
X117200000Y-95900000D01*
X97137742Y-84077500D02*
X97612258Y-84077500D01*
X97137742Y-85122500D02*
X97612258Y-85122500D01*
X110125000Y-82750000D02*
X110125000Y-80750000D01*
X110125000Y-80750000D02*
X106225000Y-80750000D01*
X110125000Y-82750000D02*
X106225000Y-82750000D01*
X84335000Y-94560000D02*
X83275000Y-94560000D01*
X84335000Y-93500000D02*
X84335000Y-94560000D01*
X84335000Y-92500000D02*
X82215000Y-92500000D01*
X82215000Y-92500000D02*
X82215000Y-86440000D01*
X84335000Y-92500000D02*
X84335000Y-86440000D01*
X84335000Y-86440000D02*
X82215000Y-86440000D01*
X88460000Y-94560000D02*
X87400000Y-94560000D01*
X88460000Y-93500000D02*
X88460000Y-94560000D01*
X88460000Y-92500000D02*
X86340000Y-92500000D01*
X86340000Y-92500000D02*
X86340000Y-86440000D01*
X88460000Y-92500000D02*
X88460000Y-86440000D01*
X88460000Y-86440000D02*
X86340000Y-86440000D01*
X85990000Y-107660000D02*
X85990000Y-108950000D01*
X85540000Y-107660000D02*
X85990000Y-107660000D01*
X85540000Y-107210000D02*
X85540000Y-107660000D01*
X85540000Y-100440000D02*
X85990000Y-100440000D01*
X85540000Y-100890000D02*
X85540000Y-100440000D01*
X92760000Y-107660000D02*
X92310000Y-107660000D01*
X92760000Y-107210000D02*
X92760000Y-107660000D01*
X92760000Y-100440000D02*
X92310000Y-100440000D01*
X92760000Y-100890000D02*
X92760000Y-100440000D01*
X114635000Y-94705000D02*
X113175000Y-94705000D01*
X114635000Y-91545000D02*
X112475000Y-91545000D01*
X114635000Y-91545000D02*
X114635000Y-92475000D01*
X114635000Y-94705000D02*
X114635000Y-93775000D01*
X109260000Y-101835000D02*
X105640000Y-101835000D01*
X109260000Y-95715000D02*
X109260000Y-101835000D01*
X105640000Y-95715000D02*
X109260000Y-95715000D01*
X105640000Y-101835000D02*
X105640000Y-95715000D01*
X103300000Y-94900000D02*
X103300000Y-95900000D01*
X102300000Y-94900000D02*
X103300000Y-94900000D01*
X101300000Y-96900000D02*
X98700000Y-96900000D01*
X101300000Y-103100000D02*
X98700000Y-103100000D01*
X96750000Y-103000000D02*
X96750000Y-97000000D01*
X103250000Y-102900000D02*
X103250000Y-97100000D01*
X115460000Y-88355000D02*
X115460000Y-86595000D01*
X112390000Y-86595000D02*
X112390000Y-89025000D01*
X114412258Y-107972500D02*
X113937742Y-107972500D01*
X114412258Y-106927500D02*
X113937742Y-106927500D01*
X83072500Y-104137742D02*
X83072500Y-104612258D01*
X82027500Y-104137742D02*
X82027500Y-104612258D01*
X103912258Y-91347500D02*
X103437742Y-91347500D01*
X103912258Y-90302500D02*
X103437742Y-90302500D01*
X103902500Y-87437258D02*
X103902500Y-86962742D01*
X104947500Y-87437258D02*
X104947500Y-86962742D01*
X114387258Y-113472500D02*
X113912742Y-113472500D01*
X114387258Y-112427500D02*
X113912742Y-112427500D01*
X99062258Y-114822500D02*
X98587742Y-114822500D01*
X99062258Y-113777500D02*
X98587742Y-113777500D01*
X108962258Y-85822500D02*
X108487742Y-85822500D01*
X108962258Y-84777500D02*
X108487742Y-84777500D01*
X108962258Y-87547500D02*
X108487742Y-87547500D01*
X108962258Y-86502500D02*
X108487742Y-86502500D01*
X101665000Y-86375000D02*
X101665000Y-88660000D01*
X101665000Y-88660000D02*
X103135000Y-88660000D01*
X103135000Y-88660000D02*
X103135000Y-86375000D01*
X111512500Y-112240000D02*
X109227500Y-112240000D01*
X109227500Y-112240000D02*
X109227500Y-113710000D01*
X109227500Y-113710000D02*
X111512500Y-113710000D01*
X96560000Y-114362500D02*
X96560000Y-112077500D01*
X96560000Y-112077500D02*
X95090000Y-112077500D01*
X95090000Y-112077500D02*
X95090000Y-114362500D01*
X107925000Y-89510000D02*
X110210000Y-89510000D01*
X110210000Y-89510000D02*
X110210000Y-88040000D01*
X110210000Y-88040000D02*
X107925000Y-88040000D01*
X114034420Y-108765000D02*
X114315580Y-108765000D01*
X114034420Y-109785000D02*
X114315580Y-109785000D01*
X92159420Y-113790000D02*
X92440580Y-113790000D01*
X92159420Y-114810000D02*
X92440580Y-114810000D01*
X83090000Y-113615580D02*
X83090000Y-113334420D01*
X84110000Y-113615580D02*
X84110000Y-113334420D01*
X116740000Y-90315580D02*
X116740000Y-90034420D01*
X117760000Y-90315580D02*
X117760000Y-90034420D01*
X82015000Y-108040580D02*
X82015000Y-107759420D01*
X83035000Y-108040580D02*
X83035000Y-107759420D01*
X117760000Y-93259420D02*
X117760000Y-93540580D01*
X116740000Y-93259420D02*
X116740000Y-93540580D01*
X117760000Y-86659420D02*
X117760000Y-86940580D01*
X116740000Y-86659420D02*
X116740000Y-86940580D01*
D10*
X99666666Y-81552380D02*
X99666666Y-82266666D01*
X99619047Y-82409523D01*
X99523809Y-82504761D01*
X99380952Y-82552380D01*
X99285714Y-82552380D01*
X100666666Y-82552380D02*
X100095238Y-82552380D01*
X100380952Y-82552380D02*
X100380952Y-81552380D01*
X100285714Y-81695238D01*
X100190476Y-81790476D01*
X100095238Y-81838095D01*
X86023809Y-112476190D02*
X86023809Y-112952380D01*
X85690476Y-111952380D02*
X86023809Y-112476190D01*
X86357142Y-111952380D01*
X86642857Y-112047619D02*
X86690476Y-112000000D01*
X86785714Y-111952380D01*
X87023809Y-111952380D01*
X87119047Y-112000000D01*
X87166666Y-112047619D01*
X87214285Y-112142857D01*
X87214285Y-112238095D01*
X87166666Y-112380952D01*
X86595238Y-112952380D01*
X87214285Y-112952380D01*
X117052380Y-105533333D02*
X117766666Y-105533333D01*
X117909523Y-105580952D01*
X118004761Y-105676190D01*
X118052380Y-105819047D01*
X118052380Y-105914285D01*
X117147619Y-105104761D02*
X117100000Y-105057142D01*
X117052380Y-104961904D01*
X117052380Y-104723809D01*
X117100000Y-104628571D01*
X117147619Y-104580952D01*
X117242857Y-104533333D01*
X117338095Y-104533333D01*
X117480952Y-104580952D01*
X118052380Y-105152380D01*
X118052380Y-104533333D01*
X96732142Y-83622380D02*
X96398809Y-83146190D01*
X96160714Y-83622380D02*
X96160714Y-82622380D01*
X96541666Y-82622380D01*
X96636904Y-82670000D01*
X96684523Y-82717619D01*
X96732142Y-82812857D01*
X96732142Y-82955714D01*
X96684523Y-83050952D01*
X96636904Y-83098571D01*
X96541666Y-83146190D01*
X96160714Y-83146190D01*
X97684523Y-83622380D02*
X97113095Y-83622380D01*
X97398809Y-83622380D02*
X97398809Y-82622380D01*
X97303571Y-82765238D01*
X97208333Y-82860476D01*
X97113095Y-82908095D01*
X98303571Y-82622380D02*
X98398809Y-82622380D01*
X98494047Y-82670000D01*
X98541666Y-82717619D01*
X98589285Y-82812857D01*
X98636904Y-83003333D01*
X98636904Y-83241428D01*
X98589285Y-83431904D01*
X98541666Y-83527142D01*
X98494047Y-83574761D01*
X98398809Y-83622380D01*
X98303571Y-83622380D01*
X98208333Y-83574761D01*
X98160714Y-83527142D01*
X98113095Y-83431904D01*
X98065476Y-83241428D01*
X98065476Y-83003333D01*
X98113095Y-82812857D01*
X98160714Y-82717619D01*
X98208333Y-82670000D01*
X98303571Y-82622380D01*
X105961904Y-80352380D02*
X105961904Y-79352380D01*
X106200000Y-79352380D01*
X106342857Y-79400000D01*
X106438095Y-79495238D01*
X106485714Y-79590476D01*
X106533333Y-79780952D01*
X106533333Y-79923809D01*
X106485714Y-80114285D01*
X106438095Y-80209523D01*
X106342857Y-80304761D01*
X106200000Y-80352380D01*
X105961904Y-80352380D01*
X107438095Y-79352380D02*
X106961904Y-79352380D01*
X106914285Y-79828571D01*
X106961904Y-79780952D01*
X107057142Y-79733333D01*
X107295238Y-79733333D01*
X107390476Y-79780952D01*
X107438095Y-79828571D01*
X107485714Y-79923809D01*
X107485714Y-80161904D01*
X107438095Y-80257142D01*
X107390476Y-80304761D01*
X107295238Y-80352380D01*
X107057142Y-80352380D01*
X106961904Y-80304761D01*
X106914285Y-80257142D01*
X81652380Y-96233333D02*
X82366666Y-96233333D01*
X82509523Y-96280952D01*
X82604761Y-96376190D01*
X82652380Y-96519047D01*
X82652380Y-96614285D01*
X81985714Y-95328571D02*
X82652380Y-95328571D01*
X81604761Y-95566666D02*
X82319047Y-95804761D01*
X82319047Y-95185714D01*
X87066666Y-95012380D02*
X87066666Y-95726666D01*
X87019047Y-95869523D01*
X86923809Y-95964761D01*
X86780952Y-96012380D01*
X86685714Y-96012380D01*
X87447619Y-95012380D02*
X88066666Y-95012380D01*
X87733333Y-95393333D01*
X87876190Y-95393333D01*
X87971428Y-95440952D01*
X88019047Y-95488571D01*
X88066666Y-95583809D01*
X88066666Y-95821904D01*
X88019047Y-95917142D01*
X87971428Y-95964761D01*
X87876190Y-96012380D01*
X87590476Y-96012380D01*
X87495238Y-95964761D01*
X87447619Y-95917142D01*
X84238095Y-99352380D02*
X84238095Y-100161904D01*
X84285714Y-100257142D01*
X84333333Y-100304761D01*
X84428571Y-100352380D01*
X84619047Y-100352380D01*
X84714285Y-100304761D01*
X84761904Y-100257142D01*
X84809523Y-100161904D01*
X84809523Y-99352380D01*
X85190476Y-99352380D02*
X85809523Y-99352380D01*
X85476190Y-99733333D01*
X85619047Y-99733333D01*
X85714285Y-99780952D01*
X85761904Y-99828571D01*
X85809523Y-99923809D01*
X85809523Y-100161904D01*
X85761904Y-100257142D01*
X85714285Y-100304761D01*
X85619047Y-100352380D01*
X85333333Y-100352380D01*
X85238095Y-100304761D01*
X85190476Y-100257142D01*
X112138095Y-90052380D02*
X112138095Y-90861904D01*
X112185714Y-90957142D01*
X112233333Y-91004761D01*
X112328571Y-91052380D01*
X112519047Y-91052380D01*
X112614285Y-91004761D01*
X112661904Y-90957142D01*
X112709523Y-90861904D01*
X112709523Y-90052380D01*
X113709523Y-91052380D02*
X113138095Y-91052380D01*
X113423809Y-91052380D02*
X113423809Y-90052380D01*
X113328571Y-90195238D01*
X113233333Y-90290476D01*
X113138095Y-90338095D01*
X105254761Y-100108333D02*
X105302380Y-99965476D01*
X105302380Y-99727380D01*
X105254761Y-99632142D01*
X105207142Y-99584523D01*
X105111904Y-99536904D01*
X105016666Y-99536904D01*
X104921428Y-99584523D01*
X104873809Y-99632142D01*
X104826190Y-99727380D01*
X104778571Y-99917857D01*
X104730952Y-100013095D01*
X104683333Y-100060714D01*
X104588095Y-100108333D01*
X104492857Y-100108333D01*
X104397619Y-100060714D01*
X104350000Y-100013095D01*
X104302380Y-99917857D01*
X104302380Y-99679761D01*
X104350000Y-99536904D01*
X104302380Y-99203571D02*
X105302380Y-98965476D01*
X104588095Y-98775000D01*
X105302380Y-98584523D01*
X104302380Y-98346428D01*
X104397619Y-98013095D02*
X104350000Y-97965476D01*
X104302380Y-97870238D01*
X104302380Y-97632142D01*
X104350000Y-97536904D01*
X104397619Y-97489285D01*
X104492857Y-97441666D01*
X104588095Y-97441666D01*
X104730952Y-97489285D01*
X105302380Y-98060714D01*
X105302380Y-97441666D01*
X96304761Y-102733333D02*
X96352380Y-102590476D01*
X96352380Y-102352380D01*
X96304761Y-102257142D01*
X96257142Y-102209523D01*
X96161904Y-102161904D01*
X96066666Y-102161904D01*
X95971428Y-102209523D01*
X95923809Y-102257142D01*
X95876190Y-102352380D01*
X95828571Y-102542857D01*
X95780952Y-102638095D01*
X95733333Y-102685714D01*
X95638095Y-102733333D01*
X95542857Y-102733333D01*
X95447619Y-102685714D01*
X95400000Y-102638095D01*
X95352380Y-102542857D01*
X95352380Y-102304761D01*
X95400000Y-102161904D01*
X95352380Y-101828571D02*
X96352380Y-101590476D01*
X95638095Y-101400000D01*
X96352380Y-101209523D01*
X95352380Y-100971428D01*
X96352380Y-100066666D02*
X96352380Y-100638095D01*
X96352380Y-100352380D02*
X95352380Y-100352380D01*
X95495238Y-100447619D01*
X95590476Y-100542857D01*
X95638095Y-100638095D01*
X112338095Y-83952380D02*
X112338095Y-84761904D01*
X112385714Y-84857142D01*
X112433333Y-84904761D01*
X112528571Y-84952380D01*
X112719047Y-84952380D01*
X112814285Y-84904761D01*
X112861904Y-84857142D01*
X112909523Y-84761904D01*
X112909523Y-83952380D01*
X113338095Y-84047619D02*
X113385714Y-84000000D01*
X113480952Y-83952380D01*
X113719047Y-83952380D01*
X113814285Y-84000000D01*
X113861904Y-84047619D01*
X113909523Y-84142857D01*
X113909523Y-84238095D01*
X113861904Y-84380952D01*
X113290476Y-84952380D01*
X113909523Y-84952380D01*
X113733333Y-106652380D02*
X113400000Y-106176190D01*
X113161904Y-106652380D02*
X113161904Y-105652380D01*
X113542857Y-105652380D01*
X113638095Y-105700000D01*
X113685714Y-105747619D01*
X113733333Y-105842857D01*
X113733333Y-105985714D01*
X113685714Y-106080952D01*
X113638095Y-106128571D01*
X113542857Y-106176190D01*
X113161904Y-106176190D01*
X114209523Y-106652380D02*
X114400000Y-106652380D01*
X114495238Y-106604761D01*
X114542857Y-106557142D01*
X114638095Y-106414285D01*
X114685714Y-106223809D01*
X114685714Y-105842857D01*
X114638095Y-105747619D01*
X114590476Y-105700000D01*
X114495238Y-105652380D01*
X114304761Y-105652380D01*
X114209523Y-105700000D01*
X114161904Y-105747619D01*
X114114285Y-105842857D01*
X114114285Y-106080952D01*
X114161904Y-106176190D01*
X114209523Y-106223809D01*
X114304761Y-106271428D01*
X114495238Y-106271428D01*
X114590476Y-106223809D01*
X114638095Y-106176190D01*
X114685714Y-106080952D01*
X83152380Y-102066666D02*
X82676190Y-102400000D01*
X83152380Y-102638095D02*
X82152380Y-102638095D01*
X82152380Y-102257142D01*
X82200000Y-102161904D01*
X82247619Y-102114285D01*
X82342857Y-102066666D01*
X82485714Y-102066666D01*
X82580952Y-102114285D01*
X82628571Y-102161904D01*
X82676190Y-102257142D01*
X82676190Y-102638095D01*
X82152380Y-101733333D02*
X82152380Y-101066666D01*
X83152380Y-101495238D01*
X103508333Y-92707380D02*
X103175000Y-92231190D01*
X102936904Y-92707380D02*
X102936904Y-91707380D01*
X103317857Y-91707380D01*
X103413095Y-91755000D01*
X103460714Y-91802619D01*
X103508333Y-91897857D01*
X103508333Y-92040714D01*
X103460714Y-92135952D01*
X103413095Y-92183571D01*
X103317857Y-92231190D01*
X102936904Y-92231190D01*
X104365476Y-91707380D02*
X104175000Y-91707380D01*
X104079761Y-91755000D01*
X104032142Y-91802619D01*
X103936904Y-91945476D01*
X103889285Y-92135952D01*
X103889285Y-92516904D01*
X103936904Y-92612142D01*
X103984523Y-92659761D01*
X104079761Y-92707380D01*
X104270238Y-92707380D01*
X104365476Y-92659761D01*
X104413095Y-92612142D01*
X104460714Y-92516904D01*
X104460714Y-92278809D01*
X104413095Y-92183571D01*
X104365476Y-92135952D01*
X104270238Y-92088333D01*
X104079761Y-92088333D01*
X103984523Y-92135952D01*
X103936904Y-92183571D01*
X103889285Y-92278809D01*
X104852380Y-85066666D02*
X104376190Y-85400000D01*
X104852380Y-85638095D02*
X103852380Y-85638095D01*
X103852380Y-85257142D01*
X103900000Y-85161904D01*
X103947619Y-85114285D01*
X104042857Y-85066666D01*
X104185714Y-85066666D01*
X104280952Y-85114285D01*
X104328571Y-85161904D01*
X104376190Y-85257142D01*
X104376190Y-85638095D01*
X103852380Y-84161904D02*
X103852380Y-84638095D01*
X104328571Y-84685714D01*
X104280952Y-84638095D01*
X104233333Y-84542857D01*
X104233333Y-84304761D01*
X104280952Y-84209523D01*
X104328571Y-84161904D01*
X104423809Y-84114285D01*
X104661904Y-84114285D01*
X104757142Y-84161904D01*
X104804761Y-84209523D01*
X104852380Y-84304761D01*
X104852380Y-84542857D01*
X104804761Y-84638095D01*
X104757142Y-84685714D01*
X113983333Y-114832380D02*
X113650000Y-114356190D01*
X113411904Y-114832380D02*
X113411904Y-113832380D01*
X113792857Y-113832380D01*
X113888095Y-113880000D01*
X113935714Y-113927619D01*
X113983333Y-114022857D01*
X113983333Y-114165714D01*
X113935714Y-114260952D01*
X113888095Y-114308571D01*
X113792857Y-114356190D01*
X113411904Y-114356190D01*
X114840476Y-114165714D02*
X114840476Y-114832380D01*
X114602380Y-113784761D02*
X114364285Y-114499047D01*
X114983333Y-114499047D01*
X98658333Y-116182380D02*
X98325000Y-115706190D01*
X98086904Y-116182380D02*
X98086904Y-115182380D01*
X98467857Y-115182380D01*
X98563095Y-115230000D01*
X98610714Y-115277619D01*
X98658333Y-115372857D01*
X98658333Y-115515714D01*
X98610714Y-115610952D01*
X98563095Y-115658571D01*
X98467857Y-115706190D01*
X98086904Y-115706190D01*
X98991666Y-115182380D02*
X99610714Y-115182380D01*
X99277380Y-115563333D01*
X99420238Y-115563333D01*
X99515476Y-115610952D01*
X99563095Y-115658571D01*
X99610714Y-115753809D01*
X99610714Y-115991904D01*
X99563095Y-116087142D01*
X99515476Y-116134761D01*
X99420238Y-116182380D01*
X99134523Y-116182380D01*
X99039285Y-116134761D01*
X98991666Y-116087142D01*
X106133333Y-85652380D02*
X105800000Y-85176190D01*
X105561904Y-85652380D02*
X105561904Y-84652380D01*
X105942857Y-84652380D01*
X106038095Y-84700000D01*
X106085714Y-84747619D01*
X106133333Y-84842857D01*
X106133333Y-84985714D01*
X106085714Y-85080952D01*
X106038095Y-85128571D01*
X105942857Y-85176190D01*
X105561904Y-85176190D01*
X106514285Y-84747619D02*
X106561904Y-84700000D01*
X106657142Y-84652380D01*
X106895238Y-84652380D01*
X106990476Y-84700000D01*
X107038095Y-84747619D01*
X107085714Y-84842857D01*
X107085714Y-84938095D01*
X107038095Y-85080952D01*
X106466666Y-85652380D01*
X107085714Y-85652380D01*
X106333333Y-87352380D02*
X106000000Y-86876190D01*
X105761904Y-87352380D02*
X105761904Y-86352380D01*
X106142857Y-86352380D01*
X106238095Y-86400000D01*
X106285714Y-86447619D01*
X106333333Y-86542857D01*
X106333333Y-86685714D01*
X106285714Y-86780952D01*
X106238095Y-86828571D01*
X106142857Y-86876190D01*
X105761904Y-86876190D01*
X107285714Y-87352380D02*
X106714285Y-87352380D01*
X107000000Y-87352380D02*
X107000000Y-86352380D01*
X106904761Y-86495238D01*
X106809523Y-86590476D01*
X106714285Y-86638095D01*
X102952380Y-85538095D02*
X101952380Y-85538095D01*
X101952380Y-85300000D01*
X102000000Y-85157142D01*
X102095238Y-85061904D01*
X102190476Y-85014285D01*
X102380952Y-84966666D01*
X102523809Y-84966666D01*
X102714285Y-85014285D01*
X102809523Y-85061904D01*
X102904761Y-85157142D01*
X102952380Y-85300000D01*
X102952380Y-85538095D01*
X102285714Y-84109523D02*
X102952380Y-84109523D01*
X101904761Y-84347619D02*
X102619047Y-84585714D01*
X102619047Y-83966666D01*
X109974404Y-111997380D02*
X109974404Y-110997380D01*
X110212500Y-110997380D01*
X110355357Y-111045000D01*
X110450595Y-111140238D01*
X110498214Y-111235476D01*
X110545833Y-111425952D01*
X110545833Y-111568809D01*
X110498214Y-111759285D01*
X110450595Y-111854523D01*
X110355357Y-111949761D01*
X110212500Y-111997380D01*
X109974404Y-111997380D01*
X110879166Y-110997380D02*
X111498214Y-110997380D01*
X111164880Y-111378333D01*
X111307738Y-111378333D01*
X111402976Y-111425952D01*
X111450595Y-111473571D01*
X111498214Y-111568809D01*
X111498214Y-111806904D01*
X111450595Y-111902142D01*
X111402976Y-111949761D01*
X111307738Y-111997380D01*
X111022023Y-111997380D01*
X110926785Y-111949761D01*
X110879166Y-111902142D01*
X95061904Y-116152380D02*
X95061904Y-115152380D01*
X95300000Y-115152380D01*
X95442857Y-115200000D01*
X95538095Y-115295238D01*
X95585714Y-115390476D01*
X95633333Y-115580952D01*
X95633333Y-115723809D01*
X95585714Y-115914285D01*
X95538095Y-116009523D01*
X95442857Y-116104761D01*
X95300000Y-116152380D01*
X95061904Y-116152380D01*
X96014285Y-115247619D02*
X96061904Y-115200000D01*
X96157142Y-115152380D01*
X96395238Y-115152380D01*
X96490476Y-115200000D01*
X96538095Y-115247619D01*
X96585714Y-115342857D01*
X96585714Y-115438095D01*
X96538095Y-115580952D01*
X95966666Y-116152380D01*
X96585714Y-116152380D01*
X105661904Y-89152380D02*
X105661904Y-88152380D01*
X105900000Y-88152380D01*
X106042857Y-88200000D01*
X106138095Y-88295238D01*
X106185714Y-88390476D01*
X106233333Y-88580952D01*
X106233333Y-88723809D01*
X106185714Y-88914285D01*
X106138095Y-89009523D01*
X106042857Y-89104761D01*
X105900000Y-89152380D01*
X105661904Y-89152380D01*
X107185714Y-89152380D02*
X106614285Y-89152380D01*
X106900000Y-89152380D02*
X106900000Y-88152380D01*
X106804761Y-88295238D01*
X106709523Y-88390476D01*
X106614285Y-88438095D01*
X113633333Y-110957142D02*
X113585714Y-111004761D01*
X113442857Y-111052380D01*
X113347619Y-111052380D01*
X113204761Y-111004761D01*
X113109523Y-110909523D01*
X113061904Y-110814285D01*
X113014285Y-110623809D01*
X113014285Y-110480952D01*
X113061904Y-110290476D01*
X113109523Y-110195238D01*
X113204761Y-110100000D01*
X113347619Y-110052380D01*
X113442857Y-110052380D01*
X113585714Y-110100000D01*
X113633333Y-110147619D01*
X114109523Y-111052380D02*
X114300000Y-111052380D01*
X114395238Y-111004761D01*
X114442857Y-110957142D01*
X114538095Y-110814285D01*
X114585714Y-110623809D01*
X114585714Y-110242857D01*
X114538095Y-110147619D01*
X114490476Y-110100000D01*
X114395238Y-110052380D01*
X114204761Y-110052380D01*
X114109523Y-110100000D01*
X114061904Y-110147619D01*
X114014285Y-110242857D01*
X114014285Y-110480952D01*
X114061904Y-110576190D01*
X114109523Y-110623809D01*
X114204761Y-110671428D01*
X114395238Y-110671428D01*
X114490476Y-110623809D01*
X114538095Y-110576190D01*
X114585714Y-110480952D01*
X92133333Y-113227142D02*
X92085714Y-113274761D01*
X91942857Y-113322380D01*
X91847619Y-113322380D01*
X91704761Y-113274761D01*
X91609523Y-113179523D01*
X91561904Y-113084285D01*
X91514285Y-112893809D01*
X91514285Y-112750952D01*
X91561904Y-112560476D01*
X91609523Y-112465238D01*
X91704761Y-112370000D01*
X91847619Y-112322380D01*
X91942857Y-112322380D01*
X92085714Y-112370000D01*
X92133333Y-112417619D01*
X92704761Y-112750952D02*
X92609523Y-112703333D01*
X92561904Y-112655714D01*
X92514285Y-112560476D01*
X92514285Y-112512857D01*
X92561904Y-112417619D01*
X92609523Y-112370000D01*
X92704761Y-112322380D01*
X92895238Y-112322380D01*
X92990476Y-112370000D01*
X93038095Y-112417619D01*
X93085714Y-112512857D01*
X93085714Y-112560476D01*
X93038095Y-112655714D01*
X92990476Y-112703333D01*
X92895238Y-112750952D01*
X92704761Y-112750952D01*
X92609523Y-112798571D01*
X92561904Y-112846190D01*
X92514285Y-112941428D01*
X92514285Y-113131904D01*
X92561904Y-113227142D01*
X92609523Y-113274761D01*
X92704761Y-113322380D01*
X92895238Y-113322380D01*
X92990476Y-113274761D01*
X93038095Y-113227142D01*
X93085714Y-113131904D01*
X93085714Y-112941428D01*
X93038095Y-112846190D01*
X92990476Y-112798571D01*
X92895238Y-112750952D01*
X82527142Y-113641666D02*
X82574761Y-113689285D01*
X82622380Y-113832142D01*
X82622380Y-113927380D01*
X82574761Y-114070238D01*
X82479523Y-114165476D01*
X82384285Y-114213095D01*
X82193809Y-114260714D01*
X82050952Y-114260714D01*
X81860476Y-114213095D01*
X81765238Y-114165476D01*
X81670000Y-114070238D01*
X81622380Y-113927380D01*
X81622380Y-113832142D01*
X81670000Y-113689285D01*
X81717619Y-113641666D01*
X81622380Y-113308333D02*
X81622380Y-112641666D01*
X82622380Y-113070238D01*
X116177142Y-90341666D02*
X116224761Y-90389285D01*
X116272380Y-90532142D01*
X116272380Y-90627380D01*
X116224761Y-90770238D01*
X116129523Y-90865476D01*
X116034285Y-90913095D01*
X115843809Y-90960714D01*
X115700952Y-90960714D01*
X115510476Y-90913095D01*
X115415238Y-90865476D01*
X115320000Y-90770238D01*
X115272380Y-90627380D01*
X115272380Y-90532142D01*
X115320000Y-90389285D01*
X115367619Y-90341666D01*
X115605714Y-89484523D02*
X116272380Y-89484523D01*
X115224761Y-89722619D02*
X115939047Y-89960714D01*
X115939047Y-89341666D01*
X83257142Y-110366666D02*
X83304761Y-110414285D01*
X83352380Y-110557142D01*
X83352380Y-110652380D01*
X83304761Y-110795238D01*
X83209523Y-110890476D01*
X83114285Y-110938095D01*
X82923809Y-110985714D01*
X82780952Y-110985714D01*
X82590476Y-110938095D01*
X82495238Y-110890476D01*
X82400000Y-110795238D01*
X82352380Y-110652380D01*
X82352380Y-110557142D01*
X82400000Y-110414285D01*
X82447619Y-110366666D01*
X82352380Y-110033333D02*
X82352380Y-109414285D01*
X82733333Y-109747619D01*
X82733333Y-109604761D01*
X82780952Y-109509523D01*
X82828571Y-109461904D01*
X82923809Y-109414285D01*
X83161904Y-109414285D01*
X83257142Y-109461904D01*
X83304761Y-109509523D01*
X83352380Y-109604761D01*
X83352380Y-109890476D01*
X83304761Y-109985714D01*
X83257142Y-110033333D01*
X116057142Y-94666666D02*
X116104761Y-94714285D01*
X116152380Y-94857142D01*
X116152380Y-94952380D01*
X116104761Y-95095238D01*
X116009523Y-95190476D01*
X115914285Y-95238095D01*
X115723809Y-95285714D01*
X115580952Y-95285714D01*
X115390476Y-95238095D01*
X115295238Y-95190476D01*
X115200000Y-95095238D01*
X115152380Y-94952380D01*
X115152380Y-94857142D01*
X115200000Y-94714285D01*
X115247619Y-94666666D01*
X115247619Y-94285714D02*
X115200000Y-94238095D01*
X115152380Y-94142857D01*
X115152380Y-93904761D01*
X115200000Y-93809523D01*
X115247619Y-93761904D01*
X115342857Y-93714285D01*
X115438095Y-93714285D01*
X115580952Y-93761904D01*
X116152380Y-94333333D01*
X116152380Y-93714285D01*
X116557142Y-84666666D02*
X116604761Y-84714285D01*
X116652380Y-84857142D01*
X116652380Y-84952380D01*
X116604761Y-85095238D01*
X116509523Y-85190476D01*
X116414285Y-85238095D01*
X116223809Y-85285714D01*
X116080952Y-85285714D01*
X115890476Y-85238095D01*
X115795238Y-85190476D01*
X115700000Y-85095238D01*
X115652380Y-84952380D01*
X115652380Y-84857142D01*
X115700000Y-84714285D01*
X115747619Y-84666666D01*
X116652380Y-83714285D02*
X116652380Y-84285714D01*
X116652380Y-84000000D02*
X115652380Y-84000000D01*
X115795238Y-84095238D01*
X115890476Y-84190476D01*
X115938095Y-84285714D01*
%LPC*%
G36*
G01*
X101575000Y-79570000D02*
X101575000Y-80950000D01*
G75*
G02*
X101525000Y-81000000I-50000J0D01*
G01*
X101075000Y-81000000D01*
G75*
G02*
X101025000Y-80950000I0J50000D01*
G01*
X101025000Y-79570000D01*
G75*
G02*
X101075000Y-79520000I50000J0D01*
G01*
X101525000Y-79520000D01*
G75*
G02*
X101575000Y-79570000I0J-50000D01*
G01*
G37*
G36*
G01*
X100925000Y-79570000D02*
X100925000Y-80950000D01*
G75*
G02*
X100875000Y-81000000I-50000J0D01*
G01*
X100425000Y-81000000D01*
G75*
G02*
X100375000Y-80950000I0J50000D01*
G01*
X100375000Y-79570000D01*
G75*
G02*
X100425000Y-79520000I50000J0D01*
G01*
X100875000Y-79520000D01*
G75*
G02*
X100925000Y-79570000I0J-50000D01*
G01*
G37*
G36*
G01*
X100275000Y-79570000D02*
X100275000Y-80950000D01*
G75*
G02*
X100225000Y-81000000I-50000J0D01*
G01*
X99775000Y-81000000D01*
G75*
G02*
X99725000Y-80950000I0J50000D01*
G01*
X99725000Y-79570000D01*
G75*
G02*
X99775000Y-79520000I50000J0D01*
G01*
X100225000Y-79520000D01*
G75*
G02*
X100275000Y-79570000I0J-50000D01*
G01*
G37*
G36*
G01*
X99625000Y-79570000D02*
X99625000Y-80950000D01*
G75*
G02*
X99575000Y-81000000I-50000J0D01*
G01*
X99125000Y-81000000D01*
G75*
G02*
X99075000Y-80950000I0J50000D01*
G01*
X99075000Y-79570000D01*
G75*
G02*
X99125000Y-79520000I50000J0D01*
G01*
X99575000Y-79520000D01*
G75*
G02*
X99625000Y-79570000I0J-50000D01*
G01*
G37*
G36*
G01*
X98975000Y-79570000D02*
X98975000Y-80950000D01*
G75*
G02*
X98925000Y-81000000I-50000J0D01*
G01*
X98475000Y-81000000D01*
G75*
G02*
X98425000Y-80950000I0J50000D01*
G01*
X98425000Y-79570000D01*
G75*
G02*
X98475000Y-79520000I50000J0D01*
G01*
X98925000Y-79520000D01*
G75*
G02*
X98975000Y-79570000I0J-50000D01*
G01*
G37*
G36*
G01*
X103250000Y-79400000D02*
X103250000Y-80950000D01*
G75*
G02*
X103200000Y-81000000I-50000J0D01*
G01*
X101775000Y-81000000D01*
G75*
G02*
X101725000Y-80950000I0J50000D01*
G01*
X101725000Y-79400000D01*
G75*
G02*
X101775000Y-79350000I50000J0D01*
G01*
X103200000Y-79350000D01*
G75*
G02*
X103250000Y-79400000I0J-50000D01*
G01*
G37*
G36*
G01*
X98275000Y-79400000D02*
X98275000Y-80950000D01*
G75*
G02*
X98225000Y-81000000I-50000J0D01*
G01*
X96800000Y-81000000D01*
G75*
G02*
X96750000Y-80950000I0J50000D01*
G01*
X96750000Y-79400000D01*
G75*
G02*
X96800000Y-79350000I50000J0D01*
G01*
X98225000Y-79350000D01*
G75*
G02*
X98275000Y-79400000I0J-50000D01*
G01*
G37*
G36*
G01*
X104250000Y-77150000D02*
X104250000Y-78250000D01*
G75*
G02*
X104200000Y-78300000I-50000J0D01*
G01*
X102550000Y-78300000D01*
G75*
G02*
X102500000Y-78250000I0J50000D01*
G01*
X102500000Y-77150000D01*
G75*
G02*
X102550000Y-77100000I50000J0D01*
G01*
X104200000Y-77100000D01*
G75*
G02*
X104250000Y-77150000I0J-50000D01*
G01*
G37*
G36*
G01*
X97500000Y-77150000D02*
X97500000Y-78250000D01*
G75*
G02*
X97450000Y-78300000I-50000J0D01*
G01*
X95800000Y-78300000D01*
G75*
G02*
X95750000Y-78250000I0J50000D01*
G01*
X95750000Y-77150000D01*
G75*
G02*
X95800000Y-77100000I50000J0D01*
G01*
X97450000Y-77100000D01*
G75*
G02*
X97500000Y-77150000I0J-50000D01*
G01*
G37*
G36*
G01*
X89400000Y-113400000D02*
X89400000Y-115200000D01*
G75*
G02*
X89350000Y-115250000I-50000J0D01*
G01*
X88350000Y-115250000D01*
G75*
G02*
X88300000Y-115200000I0J50000D01*
G01*
X88300000Y-113400000D01*
G75*
G02*
X88350000Y-113350000I50000J0D01*
G01*
X89350000Y-113350000D01*
G75*
G02*
X89400000Y-113400000I0J-50000D01*
G01*
G37*
G36*
G01*
X86900000Y-113400000D02*
X86900000Y-115200000D01*
G75*
G02*
X86850000Y-115250000I-50000J0D01*
G01*
X85850000Y-115250000D01*
G75*
G02*
X85800000Y-115200000I0J50000D01*
G01*
X85800000Y-113400000D01*
G75*
G02*
X85850000Y-113350000I50000J0D01*
G01*
X86850000Y-113350000D01*
G75*
G02*
X86900000Y-113400000I0J-50000D01*
G01*
G37*
G36*
G01*
X117550000Y-96400000D02*
X117550000Y-98600000D01*
G75*
G02*
X117500000Y-98650000I-50000J0D01*
G01*
X115500000Y-98650000D01*
G75*
G02*
X115450000Y-98600000I0J50000D01*
G01*
X115450000Y-96400000D01*
G75*
G02*
X115500000Y-96350000I50000J0D01*
G01*
X117500000Y-96350000D01*
G75*
G02*
X117550000Y-96400000I0J-50000D01*
G01*
G37*
D12*
X116500000Y-102500000D03*
G36*
G01*
X97750000Y-84900000D02*
X97750000Y-84300000D01*
G75*
G02*
X97975000Y-84075000I225000J0D01*
G01*
X98425000Y-84075000D01*
G75*
G02*
X98650000Y-84300000I0J-225000D01*
G01*
X98650000Y-84900000D01*
G75*
G02*
X98425000Y-85125000I-225000J0D01*
G01*
X97975000Y-85125000D01*
G75*
G02*
X97750000Y-84900000I0J225000D01*
G01*
G37*
G36*
G01*
X96100000Y-84900000D02*
X96100000Y-84300000D01*
G75*
G02*
X96325000Y-84075000I225000J0D01*
G01*
X96775000Y-84075000D01*
G75*
G02*
X97000000Y-84300000I0J-225000D01*
G01*
X97000000Y-84900000D01*
G75*
G02*
X96775000Y-85125000I-225000J0D01*
G01*
X96325000Y-85125000D01*
G75*
G02*
X96100000Y-84900000I0J225000D01*
G01*
G37*
G36*
G01*
X106725000Y-81150000D02*
X106725000Y-82350000D01*
G75*
G02*
X106675000Y-82400000I-50000J0D01*
G01*
X105775000Y-82400000D01*
G75*
G02*
X105725000Y-82350000I0J50000D01*
G01*
X105725000Y-81150000D01*
G75*
G02*
X105775000Y-81100000I50000J0D01*
G01*
X106675000Y-81100000D01*
G75*
G02*
X106725000Y-81150000I0J-50000D01*
G01*
G37*
G36*
G01*
X110025000Y-81150000D02*
X110025000Y-82350000D01*
G75*
G02*
X109975000Y-82400000I-50000J0D01*
G01*
X109075000Y-82400000D01*
G75*
G02*
X109025000Y-82350000I0J50000D01*
G01*
X109025000Y-81150000D01*
G75*
G02*
X109075000Y-81100000I50000J0D01*
G01*
X109975000Y-81100000D01*
G75*
G02*
X110025000Y-81150000I0J-50000D01*
G01*
G37*
D13*
X83275000Y-87500000D03*
X83275000Y-89500000D03*
X83275000Y-91500000D03*
G36*
G01*
X84000000Y-92825000D02*
X84000000Y-94175000D01*
G75*
G02*
X83950000Y-94225000I-50000J0D01*
G01*
X82600000Y-94225000D01*
G75*
G02*
X82550000Y-94175000I0J50000D01*
G01*
X82550000Y-92825000D01*
G75*
G02*
X82600000Y-92775000I50000J0D01*
G01*
X83950000Y-92775000D01*
G75*
G02*
X84000000Y-92825000I0J-50000D01*
G01*
G37*
X87400000Y-87500000D03*
X87400000Y-89500000D03*
X87400000Y-91500000D03*
G36*
G01*
X88125000Y-92825000D02*
X88125000Y-94175000D01*
G75*
G02*
X88075000Y-94225000I-50000J0D01*
G01*
X86725000Y-94225000D01*
G75*
G02*
X86675000Y-94175000I0J50000D01*
G01*
X86675000Y-92825000D01*
G75*
G02*
X86725000Y-92775000I50000J0D01*
G01*
X88075000Y-92775000D01*
G75*
G02*
X88125000Y-92825000I0J-50000D01*
G01*
G37*
G36*
G01*
X85675000Y-107000000D02*
X84300000Y-107000000D01*
G75*
G02*
X84200000Y-106900000I0J100000D01*
G01*
X84200000Y-106700000D01*
G75*
G02*
X84300000Y-106600000I100000J0D01*
G01*
X85675000Y-106600000D01*
G75*
G02*
X85775000Y-106700000I0J-100000D01*
G01*
X85775000Y-106900000D01*
G75*
G02*
X85675000Y-107000000I-100000J0D01*
G01*
G37*
G36*
G01*
X85675000Y-106500000D02*
X84300000Y-106500000D01*
G75*
G02*
X84200000Y-106400000I0J100000D01*
G01*
X84200000Y-106200000D01*
G75*
G02*
X84300000Y-106100000I100000J0D01*
G01*
X85675000Y-106100000D01*
G75*
G02*
X85775000Y-106200000I0J-100000D01*
G01*
X85775000Y-106400000D01*
G75*
G02*
X85675000Y-106500000I-100000J0D01*
G01*
G37*
G36*
G01*
X85675000Y-106000000D02*
X84300000Y-106000000D01*
G75*
G02*
X84200000Y-105900000I0J100000D01*
G01*
X84200000Y-105700000D01*
G75*
G02*
X84300000Y-105600000I100000J0D01*
G01*
X85675000Y-105600000D01*
G75*
G02*
X85775000Y-105700000I0J-100000D01*
G01*
X85775000Y-105900000D01*
G75*
G02*
X85675000Y-106000000I-100000J0D01*
G01*
G37*
G36*
G01*
X85675000Y-105500000D02*
X84300000Y-105500000D01*
G75*
G02*
X84200000Y-105400000I0J100000D01*
G01*
X84200000Y-105200000D01*
G75*
G02*
X84300000Y-105100000I100000J0D01*
G01*
X85675000Y-105100000D01*
G75*
G02*
X85775000Y-105200000I0J-100000D01*
G01*
X85775000Y-105400000D01*
G75*
G02*
X85675000Y-105500000I-100000J0D01*
G01*
G37*
G36*
G01*
X85675000Y-105000000D02*
X84300000Y-105000000D01*
G75*
G02*
X84200000Y-104900000I0J100000D01*
G01*
X84200000Y-104700000D01*
G75*
G02*
X84300000Y-104600000I100000J0D01*
G01*
X85675000Y-104600000D01*
G75*
G02*
X85775000Y-104700000I0J-100000D01*
G01*
X85775000Y-104900000D01*
G75*
G02*
X85675000Y-105000000I-100000J0D01*
G01*
G37*
G36*
G01*
X85675000Y-104500000D02*
X84300000Y-104500000D01*
G75*
G02*
X84200000Y-104400000I0J100000D01*
G01*
X84200000Y-104200000D01*
G75*
G02*
X84300000Y-104100000I100000J0D01*
G01*
X85675000Y-104100000D01*
G75*
G02*
X85775000Y-104200000I0J-100000D01*
G01*
X85775000Y-104400000D01*
G75*
G02*
X85675000Y-104500000I-100000J0D01*
G01*
G37*
G36*
G01*
X85675000Y-104000000D02*
X84300000Y-104000000D01*
G75*
G02*
X84200000Y-103900000I0J100000D01*
G01*
X84200000Y-103700000D01*
G75*
G02*
X84300000Y-103600000I100000J0D01*
G01*
X85675000Y-103600000D01*
G75*
G02*
X85775000Y-103700000I0J-100000D01*
G01*
X85775000Y-103900000D01*
G75*
G02*
X85675000Y-104000000I-100000J0D01*
G01*
G37*
G36*
G01*
X85675000Y-103500000D02*
X84300000Y-103500000D01*
G75*
G02*
X84200000Y-103400000I0J100000D01*
G01*
X84200000Y-103200000D01*
G75*
G02*
X84300000Y-103100000I100000J0D01*
G01*
X85675000Y-103100000D01*
G75*
G02*
X85775000Y-103200000I0J-100000D01*
G01*
X85775000Y-103400000D01*
G75*
G02*
X85675000Y-103500000I-100000J0D01*
G01*
G37*
G36*
G01*
X85675000Y-103000000D02*
X84300000Y-103000000D01*
G75*
G02*
X84200000Y-102900000I0J100000D01*
G01*
X84200000Y-102700000D01*
G75*
G02*
X84300000Y-102600000I100000J0D01*
G01*
X85675000Y-102600000D01*
G75*
G02*
X85775000Y-102700000I0J-100000D01*
G01*
X85775000Y-102900000D01*
G75*
G02*
X85675000Y-103000000I-100000J0D01*
G01*
G37*
G36*
G01*
X85675000Y-102500000D02*
X84300000Y-102500000D01*
G75*
G02*
X84200000Y-102400000I0J100000D01*
G01*
X84200000Y-102200000D01*
G75*
G02*
X84300000Y-102100000I100000J0D01*
G01*
X85675000Y-102100000D01*
G75*
G02*
X85775000Y-102200000I0J-100000D01*
G01*
X85775000Y-102400000D01*
G75*
G02*
X85675000Y-102500000I-100000J0D01*
G01*
G37*
G36*
G01*
X85675000Y-102000000D02*
X84300000Y-102000000D01*
G75*
G02*
X84200000Y-101900000I0J100000D01*
G01*
X84200000Y-101700000D01*
G75*
G02*
X84300000Y-101600000I100000J0D01*
G01*
X85675000Y-101600000D01*
G75*
G02*
X85775000Y-101700000I0J-100000D01*
G01*
X85775000Y-101900000D01*
G75*
G02*
X85675000Y-102000000I-100000J0D01*
G01*
G37*
G36*
G01*
X85675000Y-101500000D02*
X84300000Y-101500000D01*
G75*
G02*
X84200000Y-101400000I0J100000D01*
G01*
X84200000Y-101200000D01*
G75*
G02*
X84300000Y-101100000I100000J0D01*
G01*
X85675000Y-101100000D01*
G75*
G02*
X85775000Y-101200000I0J-100000D01*
G01*
X85775000Y-101400000D01*
G75*
G02*
X85675000Y-101500000I-100000J0D01*
G01*
G37*
G36*
G01*
X86500000Y-100675000D02*
X86300000Y-100675000D01*
G75*
G02*
X86200000Y-100575000I0J100000D01*
G01*
X86200000Y-99200000D01*
G75*
G02*
X86300000Y-99100000I100000J0D01*
G01*
X86500000Y-99100000D01*
G75*
G02*
X86600000Y-99200000I0J-100000D01*
G01*
X86600000Y-100575000D01*
G75*
G02*
X86500000Y-100675000I-100000J0D01*
G01*
G37*
G36*
G01*
X87000000Y-100675000D02*
X86800000Y-100675000D01*
G75*
G02*
X86700000Y-100575000I0J100000D01*
G01*
X86700000Y-99200000D01*
G75*
G02*
X86800000Y-99100000I100000J0D01*
G01*
X87000000Y-99100000D01*
G75*
G02*
X87100000Y-99200000I0J-100000D01*
G01*
X87100000Y-100575000D01*
G75*
G02*
X87000000Y-100675000I-100000J0D01*
G01*
G37*
G36*
G01*
X87500000Y-100675000D02*
X87300000Y-100675000D01*
G75*
G02*
X87200000Y-100575000I0J100000D01*
G01*
X87200000Y-99200000D01*
G75*
G02*
X87300000Y-99100000I100000J0D01*
G01*
X87500000Y-99100000D01*
G75*
G02*
X87600000Y-99200000I0J-100000D01*
G01*
X87600000Y-100575000D01*
G75*
G02*
X87500000Y-100675000I-100000J0D01*
G01*
G37*
G36*
G01*
X88000000Y-100675000D02*
X87800000Y-100675000D01*
G75*
G02*
X87700000Y-100575000I0J100000D01*
G01*
X87700000Y-99200000D01*
G75*
G02*
X87800000Y-99100000I100000J0D01*
G01*
X88000000Y-99100000D01*
G75*
G02*
X88100000Y-99200000I0J-100000D01*
G01*
X88100000Y-100575000D01*
G75*
G02*
X88000000Y-100675000I-100000J0D01*
G01*
G37*
G36*
G01*
X88500000Y-100675000D02*
X88300000Y-100675000D01*
G75*
G02*
X88200000Y-100575000I0J100000D01*
G01*
X88200000Y-99200000D01*
G75*
G02*
X88300000Y-99100000I100000J0D01*
G01*
X88500000Y-99100000D01*
G75*
G02*
X88600000Y-99200000I0J-100000D01*
G01*
X88600000Y-100575000D01*
G75*
G02*
X88500000Y-100675000I-100000J0D01*
G01*
G37*
G36*
G01*
X89000000Y-100675000D02*
X88800000Y-100675000D01*
G75*
G02*
X88700000Y-100575000I0J100000D01*
G01*
X88700000Y-99200000D01*
G75*
G02*
X88800000Y-99100000I100000J0D01*
G01*
X89000000Y-99100000D01*
G75*
G02*
X89100000Y-99200000I0J-100000D01*
G01*
X89100000Y-100575000D01*
G75*
G02*
X89000000Y-100675000I-100000J0D01*
G01*
G37*
G36*
G01*
X89500000Y-100675000D02*
X89300000Y-100675000D01*
G75*
G02*
X89200000Y-100575000I0J100000D01*
G01*
X89200000Y-99200000D01*
G75*
G02*
X89300000Y-99100000I100000J0D01*
G01*
X89500000Y-99100000D01*
G75*
G02*
X89600000Y-99200000I0J-100000D01*
G01*
X89600000Y-100575000D01*
G75*
G02*
X89500000Y-100675000I-100000J0D01*
G01*
G37*
G36*
G01*
X90000000Y-100675000D02*
X89800000Y-100675000D01*
G75*
G02*
X89700000Y-100575000I0J100000D01*
G01*
X89700000Y-99200000D01*
G75*
G02*
X89800000Y-99100000I100000J0D01*
G01*
X90000000Y-99100000D01*
G75*
G02*
X90100000Y-99200000I0J-100000D01*
G01*
X90100000Y-100575000D01*
G75*
G02*
X90000000Y-100675000I-100000J0D01*
G01*
G37*
G36*
G01*
X90500000Y-100675000D02*
X90300000Y-100675000D01*
G75*
G02*
X90200000Y-100575000I0J100000D01*
G01*
X90200000Y-99200000D01*
G75*
G02*
X90300000Y-99100000I100000J0D01*
G01*
X90500000Y-99100000D01*
G75*
G02*
X90600000Y-99200000I0J-100000D01*
G01*
X90600000Y-100575000D01*
G75*
G02*
X90500000Y-100675000I-100000J0D01*
G01*
G37*
G36*
G01*
X91000000Y-100675000D02*
X90800000Y-100675000D01*
G75*
G02*
X90700000Y-100575000I0J100000D01*
G01*
X90700000Y-99200000D01*
G75*
G02*
X90800000Y-99100000I100000J0D01*
G01*
X91000000Y-99100000D01*
G75*
G02*
X91100000Y-99200000I0J-100000D01*
G01*
X91100000Y-100575000D01*
G75*
G02*
X91000000Y-100675000I-100000J0D01*
G01*
G37*
G36*
G01*
X91500000Y-100675000D02*
X91300000Y-100675000D01*
G75*
G02*
X91200000Y-100575000I0J100000D01*
G01*
X91200000Y-99200000D01*
G75*
G02*
X91300000Y-99100000I100000J0D01*
G01*
X91500000Y-99100000D01*
G75*
G02*
X91600000Y-99200000I0J-100000D01*
G01*
X91600000Y-100575000D01*
G75*
G02*
X91500000Y-100675000I-100000J0D01*
G01*
G37*
G36*
G01*
X92000000Y-100675000D02*
X91800000Y-100675000D01*
G75*
G02*
X91700000Y-100575000I0J100000D01*
G01*
X91700000Y-99200000D01*
G75*
G02*
X91800000Y-99100000I100000J0D01*
G01*
X92000000Y-99100000D01*
G75*
G02*
X92100000Y-99200000I0J-100000D01*
G01*
X92100000Y-100575000D01*
G75*
G02*
X92000000Y-100675000I-100000J0D01*
G01*
G37*
G36*
G01*
X94000000Y-101500000D02*
X92625000Y-101500000D01*
G75*
G02*
X92525000Y-101400000I0J100000D01*
G01*
X92525000Y-101200000D01*
G75*
G02*
X92625000Y-101100000I100000J0D01*
G01*
X94000000Y-101100000D01*
G75*
G02*
X94100000Y-101200000I0J-100000D01*
G01*
X94100000Y-101400000D01*
G75*
G02*
X94000000Y-101500000I-100000J0D01*
G01*
G37*
G36*
G01*
X94000000Y-102000000D02*
X92625000Y-102000000D01*
G75*
G02*
X92525000Y-101900000I0J100000D01*
G01*
X92525000Y-101700000D01*
G75*
G02*
X92625000Y-101600000I100000J0D01*
G01*
X94000000Y-101600000D01*
G75*
G02*
X94100000Y-101700000I0J-100000D01*
G01*
X94100000Y-101900000D01*
G75*
G02*
X94000000Y-102000000I-100000J0D01*
G01*
G37*
G36*
G01*
X94000000Y-102500000D02*
X92625000Y-102500000D01*
G75*
G02*
X92525000Y-102400000I0J100000D01*
G01*
X92525000Y-102200000D01*
G75*
G02*
X92625000Y-102100000I100000J0D01*
G01*
X94000000Y-102100000D01*
G75*
G02*
X94100000Y-102200000I0J-100000D01*
G01*
X94100000Y-102400000D01*
G75*
G02*
X94000000Y-102500000I-100000J0D01*
G01*
G37*
G36*
G01*
X94000000Y-103000000D02*
X92625000Y-103000000D01*
G75*
G02*
X92525000Y-102900000I0J100000D01*
G01*
X92525000Y-102700000D01*
G75*
G02*
X92625000Y-102600000I100000J0D01*
G01*
X94000000Y-102600000D01*
G75*
G02*
X94100000Y-102700000I0J-100000D01*
G01*
X94100000Y-102900000D01*
G75*
G02*
X94000000Y-103000000I-100000J0D01*
G01*
G37*
G36*
G01*
X94000000Y-103500000D02*
X92625000Y-103500000D01*
G75*
G02*
X92525000Y-103400000I0J100000D01*
G01*
X92525000Y-103200000D01*
G75*
G02*
X92625000Y-103100000I100000J0D01*
G01*
X94000000Y-103100000D01*
G75*
G02*
X94100000Y-103200000I0J-100000D01*
G01*
X94100000Y-103400000D01*
G75*
G02*
X94000000Y-103500000I-100000J0D01*
G01*
G37*
G36*
G01*
X94000000Y-104000000D02*
X92625000Y-104000000D01*
G75*
G02*
X92525000Y-103900000I0J100000D01*
G01*
X92525000Y-103700000D01*
G75*
G02*
X92625000Y-103600000I100000J0D01*
G01*
X94000000Y-103600000D01*
G75*
G02*
X94100000Y-103700000I0J-100000D01*
G01*
X94100000Y-103900000D01*
G75*
G02*
X94000000Y-104000000I-100000J0D01*
G01*
G37*
G36*
G01*
X94000000Y-104500000D02*
X92625000Y-104500000D01*
G75*
G02*
X92525000Y-104400000I0J100000D01*
G01*
X92525000Y-104200000D01*
G75*
G02*
X92625000Y-104100000I100000J0D01*
G01*
X94000000Y-104100000D01*
G75*
G02*
X94100000Y-104200000I0J-100000D01*
G01*
X94100000Y-104400000D01*
G75*
G02*
X94000000Y-104500000I-100000J0D01*
G01*
G37*
G36*
G01*
X94000000Y-105000000D02*
X92625000Y-105000000D01*
G75*
G02*
X92525000Y-104900000I0J100000D01*
G01*
X92525000Y-104700000D01*
G75*
G02*
X92625000Y-104600000I100000J0D01*
G01*
X94000000Y-104600000D01*
G75*
G02*
X94100000Y-104700000I0J-100000D01*
G01*
X94100000Y-104900000D01*
G75*
G02*
X94000000Y-105000000I-100000J0D01*
G01*
G37*
G36*
G01*
X94000000Y-105500000D02*
X92625000Y-105500000D01*
G75*
G02*
X92525000Y-105400000I0J100000D01*
G01*
X92525000Y-105200000D01*
G75*
G02*
X92625000Y-105100000I100000J0D01*
G01*
X94000000Y-105100000D01*
G75*
G02*
X94100000Y-105200000I0J-100000D01*
G01*
X94100000Y-105400000D01*
G75*
G02*
X94000000Y-105500000I-100000J0D01*
G01*
G37*
G36*
G01*
X94000000Y-106000000D02*
X92625000Y-106000000D01*
G75*
G02*
X92525000Y-105900000I0J100000D01*
G01*
X92525000Y-105700000D01*
G75*
G02*
X92625000Y-105600000I100000J0D01*
G01*
X94000000Y-105600000D01*
G75*
G02*
X94100000Y-105700000I0J-100000D01*
G01*
X94100000Y-105900000D01*
G75*
G02*
X94000000Y-106000000I-100000J0D01*
G01*
G37*
G36*
G01*
X94000000Y-106500000D02*
X92625000Y-106500000D01*
G75*
G02*
X92525000Y-106400000I0J100000D01*
G01*
X92525000Y-106200000D01*
G75*
G02*
X92625000Y-106100000I100000J0D01*
G01*
X94000000Y-106100000D01*
G75*
G02*
X94100000Y-106200000I0J-100000D01*
G01*
X94100000Y-106400000D01*
G75*
G02*
X94000000Y-106500000I-100000J0D01*
G01*
G37*
G36*
G01*
X94000000Y-107000000D02*
X92625000Y-107000000D01*
G75*
G02*
X92525000Y-106900000I0J100000D01*
G01*
X92525000Y-106700000D01*
G75*
G02*
X92625000Y-106600000I100000J0D01*
G01*
X94000000Y-106600000D01*
G75*
G02*
X94100000Y-106700000I0J-100000D01*
G01*
X94100000Y-106900000D01*
G75*
G02*
X94000000Y-107000000I-100000J0D01*
G01*
G37*
G36*
G01*
X92000000Y-109000000D02*
X91800000Y-109000000D01*
G75*
G02*
X91700000Y-108900000I0J100000D01*
G01*
X91700000Y-107525000D01*
G75*
G02*
X91800000Y-107425000I100000J0D01*
G01*
X92000000Y-107425000D01*
G75*
G02*
X92100000Y-107525000I0J-100000D01*
G01*
X92100000Y-108900000D01*
G75*
G02*
X92000000Y-109000000I-100000J0D01*
G01*
G37*
G36*
G01*
X91500000Y-109000000D02*
X91300000Y-109000000D01*
G75*
G02*
X91200000Y-108900000I0J100000D01*
G01*
X91200000Y-107525000D01*
G75*
G02*
X91300000Y-107425000I100000J0D01*
G01*
X91500000Y-107425000D01*
G75*
G02*
X91600000Y-107525000I0J-100000D01*
G01*
X91600000Y-108900000D01*
G75*
G02*
X91500000Y-109000000I-100000J0D01*
G01*
G37*
G36*
G01*
X91000000Y-109000000D02*
X90800000Y-109000000D01*
G75*
G02*
X90700000Y-108900000I0J100000D01*
G01*
X90700000Y-107525000D01*
G75*
G02*
X90800000Y-107425000I100000J0D01*
G01*
X91000000Y-107425000D01*
G75*
G02*
X91100000Y-107525000I0J-100000D01*
G01*
X91100000Y-108900000D01*
G75*
G02*
X91000000Y-109000000I-100000J0D01*
G01*
G37*
G36*
G01*
X90500000Y-109000000D02*
X90300000Y-109000000D01*
G75*
G02*
X90200000Y-108900000I0J100000D01*
G01*
X90200000Y-107525000D01*
G75*
G02*
X90300000Y-107425000I100000J0D01*
G01*
X90500000Y-107425000D01*
G75*
G02*
X90600000Y-107525000I0J-100000D01*
G01*
X90600000Y-108900000D01*
G75*
G02*
X90500000Y-109000000I-100000J0D01*
G01*
G37*
G36*
G01*
X90000000Y-109000000D02*
X89800000Y-109000000D01*
G75*
G02*
X89700000Y-108900000I0J100000D01*
G01*
X89700000Y-107525000D01*
G75*
G02*
X89800000Y-107425000I100000J0D01*
G01*
X90000000Y-107425000D01*
G75*
G02*
X90100000Y-107525000I0J-100000D01*
G01*
X90100000Y-108900000D01*
G75*
G02*
X90000000Y-109000000I-100000J0D01*
G01*
G37*
G36*
G01*
X89500000Y-109000000D02*
X89300000Y-109000000D01*
G75*
G02*
X89200000Y-108900000I0J100000D01*
G01*
X89200000Y-107525000D01*
G75*
G02*
X89300000Y-107425000I100000J0D01*
G01*
X89500000Y-107425000D01*
G75*
G02*
X89600000Y-107525000I0J-100000D01*
G01*
X89600000Y-108900000D01*
G75*
G02*
X89500000Y-109000000I-100000J0D01*
G01*
G37*
G36*
G01*
X89000000Y-109000000D02*
X88800000Y-109000000D01*
G75*
G02*
X88700000Y-108900000I0J100000D01*
G01*
X88700000Y-107525000D01*
G75*
G02*
X88800000Y-107425000I100000J0D01*
G01*
X89000000Y-107425000D01*
G75*
G02*
X89100000Y-107525000I0J-100000D01*
G01*
X89100000Y-108900000D01*
G75*
G02*
X89000000Y-109000000I-100000J0D01*
G01*
G37*
G36*
G01*
X88500000Y-109000000D02*
X88300000Y-109000000D01*
G75*
G02*
X88200000Y-108900000I0J100000D01*
G01*
X88200000Y-107525000D01*
G75*
G02*
X88300000Y-107425000I100000J0D01*
G01*
X88500000Y-107425000D01*
G75*
G02*
X88600000Y-107525000I0J-100000D01*
G01*
X88600000Y-108900000D01*
G75*
G02*
X88500000Y-109000000I-100000J0D01*
G01*
G37*
G36*
G01*
X88000000Y-109000000D02*
X87800000Y-109000000D01*
G75*
G02*
X87700000Y-108900000I0J100000D01*
G01*
X87700000Y-107525000D01*
G75*
G02*
X87800000Y-107425000I100000J0D01*
G01*
X88000000Y-107425000D01*
G75*
G02*
X88100000Y-107525000I0J-100000D01*
G01*
X88100000Y-108900000D01*
G75*
G02*
X88000000Y-109000000I-100000J0D01*
G01*
G37*
G36*
G01*
X87500000Y-109000000D02*
X87300000Y-109000000D01*
G75*
G02*
X87200000Y-108900000I0J100000D01*
G01*
X87200000Y-107525000D01*
G75*
G02*
X87300000Y-107425000I100000J0D01*
G01*
X87500000Y-107425000D01*
G75*
G02*
X87600000Y-107525000I0J-100000D01*
G01*
X87600000Y-108900000D01*
G75*
G02*
X87500000Y-109000000I-100000J0D01*
G01*
G37*
G36*
G01*
X87000000Y-109000000D02*
X86800000Y-109000000D01*
G75*
G02*
X86700000Y-108900000I0J100000D01*
G01*
X86700000Y-107525000D01*
G75*
G02*
X86800000Y-107425000I100000J0D01*
G01*
X87000000Y-107425000D01*
G75*
G02*
X87100000Y-107525000I0J-100000D01*
G01*
X87100000Y-108900000D01*
G75*
G02*
X87000000Y-109000000I-100000J0D01*
G01*
G37*
G36*
G01*
X86500000Y-109000000D02*
X86300000Y-109000000D01*
G75*
G02*
X86200000Y-108900000I0J100000D01*
G01*
X86200000Y-107525000D01*
G75*
G02*
X86300000Y-107425000I100000J0D01*
G01*
X86500000Y-107425000D01*
G75*
G02*
X86600000Y-107525000I0J-100000D01*
G01*
X86600000Y-108900000D01*
G75*
G02*
X86500000Y-109000000I-100000J0D01*
G01*
G37*
G36*
G01*
X114375000Y-93525000D02*
X114375000Y-92725000D01*
G75*
G02*
X114425000Y-92675000I50000J0D01*
G01*
X115325000Y-92675000D01*
G75*
G02*
X115375000Y-92725000I0J-50000D01*
G01*
X115375000Y-93525000D01*
G75*
G02*
X115325000Y-93575000I-50000J0D01*
G01*
X114425000Y-93575000D01*
G75*
G02*
X114375000Y-93525000I0J50000D01*
G01*
G37*
G36*
G01*
X112375000Y-94475000D02*
X112375000Y-93675000D01*
G75*
G02*
X112425000Y-93625000I50000J0D01*
G01*
X113325000Y-93625000D01*
G75*
G02*
X113375000Y-93675000I0J-50000D01*
G01*
X113375000Y-94475000D01*
G75*
G02*
X113325000Y-94525000I-50000J0D01*
G01*
X112425000Y-94525000D01*
G75*
G02*
X112375000Y-94475000I0J50000D01*
G01*
G37*
G36*
G01*
X112375000Y-92575000D02*
X112375000Y-91775000D01*
G75*
G02*
X112425000Y-91725000I50000J0D01*
G01*
X113325000Y-91725000D01*
G75*
G02*
X113375000Y-91775000I0J-50000D01*
G01*
X113375000Y-92575000D01*
G75*
G02*
X113325000Y-92625000I-50000J0D01*
G01*
X112425000Y-92625000D01*
G75*
G02*
X112375000Y-92575000I0J50000D01*
G01*
G37*
G36*
G01*
X108250000Y-95325000D02*
X106650000Y-95325000D01*
G75*
G02*
X106600000Y-95275000I0J50000D01*
G01*
X106600000Y-93095000D01*
G75*
G02*
X106650000Y-93045000I50000J0D01*
G01*
X108250000Y-93045000D01*
G75*
G02*
X108300000Y-93095000I0J-50000D01*
G01*
X108300000Y-95275000D01*
G75*
G02*
X108250000Y-95325000I-50000J0D01*
G01*
G37*
G36*
G01*
X108250000Y-104505000D02*
X106650000Y-104505000D01*
G75*
G02*
X106600000Y-104455000I0J50000D01*
G01*
X106600000Y-102275000D01*
G75*
G02*
X106650000Y-102225000I50000J0D01*
G01*
X108250000Y-102225000D01*
G75*
G02*
X108300000Y-102275000I0J-50000D01*
G01*
X108300000Y-104455000D01*
G75*
G02*
X108250000Y-104505000I-50000J0D01*
G01*
G37*
G36*
G01*
X98450000Y-96850000D02*
X97050000Y-96850000D01*
G75*
G02*
X97000000Y-96800000I0J50000D01*
G01*
X97000000Y-95200000D01*
G75*
G02*
X97050000Y-95150000I50000J0D01*
G01*
X98450000Y-95150000D01*
G75*
G02*
X98500000Y-95200000I0J-50000D01*
G01*
X98500000Y-96800000D01*
G75*
G02*
X98450000Y-96850000I-50000J0D01*
G01*
G37*
G36*
G01*
X98450000Y-104850000D02*
X97050000Y-104850000D01*
G75*
G02*
X97000000Y-104800000I0J50000D01*
G01*
X97000000Y-103200000D01*
G75*
G02*
X97050000Y-103150000I50000J0D01*
G01*
X98450000Y-103150000D01*
G75*
G02*
X98500000Y-103200000I0J-50000D01*
G01*
X98500000Y-104800000D01*
G75*
G02*
X98450000Y-104850000I-50000J0D01*
G01*
G37*
G36*
G01*
X102950000Y-96850000D02*
X101550000Y-96850000D01*
G75*
G02*
X101500000Y-96800000I0J50000D01*
G01*
X101500000Y-95200000D01*
G75*
G02*
X101550000Y-95150000I50000J0D01*
G01*
X102950000Y-95150000D01*
G75*
G02*
X103000000Y-95200000I0J-50000D01*
G01*
X103000000Y-96800000D01*
G75*
G02*
X102950000Y-96850000I-50000J0D01*
G01*
G37*
G36*
G01*
X102950000Y-104850000D02*
X101550000Y-104850000D01*
G75*
G02*
X101500000Y-104800000I0J50000D01*
G01*
X101500000Y-103200000D01*
G75*
G02*
X101550000Y-103150000I50000J0D01*
G01*
X102950000Y-103150000D01*
G75*
G02*
X103000000Y-103200000I0J-50000D01*
G01*
X103000000Y-104800000D01*
G75*
G02*
X102950000Y-104850000I-50000J0D01*
G01*
G37*
G36*
G01*
X113275000Y-86825000D02*
X112625000Y-86825000D01*
G75*
G02*
X112575000Y-86775000I0J50000D01*
G01*
X112575000Y-85555000D01*
G75*
G02*
X112625000Y-85505000I50000J0D01*
G01*
X113275000Y-85505000D01*
G75*
G02*
X113325000Y-85555000I0J-50000D01*
G01*
X113325000Y-86775000D01*
G75*
G02*
X113275000Y-86825000I-50000J0D01*
G01*
G37*
G36*
G01*
X115175000Y-86825000D02*
X114525000Y-86825000D01*
G75*
G02*
X114475000Y-86775000I0J50000D01*
G01*
X114475000Y-85555000D01*
G75*
G02*
X114525000Y-85505000I50000J0D01*
G01*
X115175000Y-85505000D01*
G75*
G02*
X115225000Y-85555000I0J-50000D01*
G01*
X115225000Y-86775000D01*
G75*
G02*
X115175000Y-86825000I-50000J0D01*
G01*
G37*
G36*
G01*
X115175000Y-89445000D02*
X114525000Y-89445000D01*
G75*
G02*
X114475000Y-89395000I0J50000D01*
G01*
X114475000Y-88175000D01*
G75*
G02*
X114525000Y-88125000I50000J0D01*
G01*
X115175000Y-88125000D01*
G75*
G02*
X115225000Y-88175000I0J-50000D01*
G01*
X115225000Y-89395000D01*
G75*
G02*
X115175000Y-89445000I-50000J0D01*
G01*
G37*
G36*
G01*
X114225000Y-89445000D02*
X113575000Y-89445000D01*
G75*
G02*
X113525000Y-89395000I0J50000D01*
G01*
X113525000Y-88175000D01*
G75*
G02*
X113575000Y-88125000I50000J0D01*
G01*
X114225000Y-88125000D01*
G75*
G02*
X114275000Y-88175000I0J-50000D01*
G01*
X114275000Y-89395000D01*
G75*
G02*
X114225000Y-89445000I-50000J0D01*
G01*
G37*
G36*
G01*
X113275000Y-89445000D02*
X112625000Y-89445000D01*
G75*
G02*
X112575000Y-89395000I0J50000D01*
G01*
X112575000Y-88175000D01*
G75*
G02*
X112625000Y-88125000I50000J0D01*
G01*
X113275000Y-88125000D01*
G75*
G02*
X113325000Y-88175000I0J-50000D01*
G01*
X113325000Y-89395000D01*
G75*
G02*
X113275000Y-89445000I-50000J0D01*
G01*
G37*
G36*
G01*
X113800000Y-107150000D02*
X113800000Y-107750000D01*
G75*
G02*
X113575000Y-107975000I-225000J0D01*
G01*
X113125000Y-107975000D01*
G75*
G02*
X112900000Y-107750000I0J225000D01*
G01*
X112900000Y-107150000D01*
G75*
G02*
X113125000Y-106925000I225000J0D01*
G01*
X113575000Y-106925000D01*
G75*
G02*
X113800000Y-107150000I0J-225000D01*
G01*
G37*
G36*
G01*
X115450000Y-107150000D02*
X115450000Y-107750000D01*
G75*
G02*
X115225000Y-107975000I-225000J0D01*
G01*
X114775000Y-107975000D01*
G75*
G02*
X114550000Y-107750000I0J225000D01*
G01*
X114550000Y-107150000D01*
G75*
G02*
X114775000Y-106925000I225000J0D01*
G01*
X115225000Y-106925000D01*
G75*
G02*
X115450000Y-107150000I0J-225000D01*
G01*
G37*
G36*
G01*
X82250000Y-104750000D02*
X82850000Y-104750000D01*
G75*
G02*
X83075000Y-104975000I0J-225000D01*
G01*
X83075000Y-105425000D01*
G75*
G02*
X82850000Y-105650000I-225000J0D01*
G01*
X82250000Y-105650000D01*
G75*
G02*
X82025000Y-105425000I0J225000D01*
G01*
X82025000Y-104975000D01*
G75*
G02*
X82250000Y-104750000I225000J0D01*
G01*
G37*
G36*
G01*
X82250000Y-103100000D02*
X82850000Y-103100000D01*
G75*
G02*
X83075000Y-103325000I0J-225000D01*
G01*
X83075000Y-103775000D01*
G75*
G02*
X82850000Y-104000000I-225000J0D01*
G01*
X82250000Y-104000000D01*
G75*
G02*
X82025000Y-103775000I0J225000D01*
G01*
X82025000Y-103325000D01*
G75*
G02*
X82250000Y-103100000I225000J0D01*
G01*
G37*
G36*
G01*
X103300000Y-90525000D02*
X103300000Y-91125000D01*
G75*
G02*
X103075000Y-91350000I-225000J0D01*
G01*
X102625000Y-91350000D01*
G75*
G02*
X102400000Y-91125000I0J225000D01*
G01*
X102400000Y-90525000D01*
G75*
G02*
X102625000Y-90300000I225000J0D01*
G01*
X103075000Y-90300000D01*
G75*
G02*
X103300000Y-90525000I0J-225000D01*
G01*
G37*
G36*
G01*
X104950000Y-90525000D02*
X104950000Y-91125000D01*
G75*
G02*
X104725000Y-91350000I-225000J0D01*
G01*
X104275000Y-91350000D01*
G75*
G02*
X104050000Y-91125000I0J225000D01*
G01*
X104050000Y-90525000D01*
G75*
G02*
X104275000Y-90300000I225000J0D01*
G01*
X104725000Y-90300000D01*
G75*
G02*
X104950000Y-90525000I0J-225000D01*
G01*
G37*
G36*
G01*
X104725000Y-86825000D02*
X104125000Y-86825000D01*
G75*
G02*
X103900000Y-86600000I0J225000D01*
G01*
X103900000Y-86150000D01*
G75*
G02*
X104125000Y-85925000I225000J0D01*
G01*
X104725000Y-85925000D01*
G75*
G02*
X104950000Y-86150000I0J-225000D01*
G01*
X104950000Y-86600000D01*
G75*
G02*
X104725000Y-86825000I-225000J0D01*
G01*
G37*
G36*
G01*
X104725000Y-88475000D02*
X104125000Y-88475000D01*
G75*
G02*
X103900000Y-88250000I0J225000D01*
G01*
X103900000Y-87800000D01*
G75*
G02*
X104125000Y-87575000I225000J0D01*
G01*
X104725000Y-87575000D01*
G75*
G02*
X104950000Y-87800000I0J-225000D01*
G01*
X104950000Y-88250000D01*
G75*
G02*
X104725000Y-88475000I-225000J0D01*
G01*
G37*
G36*
G01*
X113775000Y-112650000D02*
X113775000Y-113250000D01*
G75*
G02*
X113550000Y-113475000I-225000J0D01*
G01*
X113100000Y-113475000D01*
G75*
G02*
X112875000Y-113250000I0J225000D01*
G01*
X112875000Y-112650000D01*
G75*
G02*
X113100000Y-112425000I225000J0D01*
G01*
X113550000Y-112425000D01*
G75*
G02*
X113775000Y-112650000I0J-225000D01*
G01*
G37*
G36*
G01*
X115425000Y-112650000D02*
X115425000Y-113250000D01*
G75*
G02*
X115200000Y-113475000I-225000J0D01*
G01*
X114750000Y-113475000D01*
G75*
G02*
X114525000Y-113250000I0J225000D01*
G01*
X114525000Y-112650000D01*
G75*
G02*
X114750000Y-112425000I225000J0D01*
G01*
X115200000Y-112425000D01*
G75*
G02*
X115425000Y-112650000I0J-225000D01*
G01*
G37*
G36*
G01*
X98450000Y-114000000D02*
X98450000Y-114600000D01*
G75*
G02*
X98225000Y-114825000I-225000J0D01*
G01*
X97775000Y-114825000D01*
G75*
G02*
X97550000Y-114600000I0J225000D01*
G01*
X97550000Y-114000000D01*
G75*
G02*
X97775000Y-113775000I225000J0D01*
G01*
X98225000Y-113775000D01*
G75*
G02*
X98450000Y-114000000I0J-225000D01*
G01*
G37*
G36*
G01*
X100100000Y-114000000D02*
X100100000Y-114600000D01*
G75*
G02*
X99875000Y-114825000I-225000J0D01*
G01*
X99425000Y-114825000D01*
G75*
G02*
X99200000Y-114600000I0J225000D01*
G01*
X99200000Y-114000000D01*
G75*
G02*
X99425000Y-113775000I225000J0D01*
G01*
X99875000Y-113775000D01*
G75*
G02*
X100100000Y-114000000I0J-225000D01*
G01*
G37*
G36*
G01*
X108350000Y-85000000D02*
X108350000Y-85600000D01*
G75*
G02*
X108125000Y-85825000I-225000J0D01*
G01*
X107675000Y-85825000D01*
G75*
G02*
X107450000Y-85600000I0J225000D01*
G01*
X107450000Y-85000000D01*
G75*
G02*
X107675000Y-84775000I225000J0D01*
G01*
X108125000Y-84775000D01*
G75*
G02*
X108350000Y-85000000I0J-225000D01*
G01*
G37*
G36*
G01*
X110000000Y-85000000D02*
X110000000Y-85600000D01*
G75*
G02*
X109775000Y-85825000I-225000J0D01*
G01*
X109325000Y-85825000D01*
G75*
G02*
X109100000Y-85600000I0J225000D01*
G01*
X109100000Y-85000000D01*
G75*
G02*
X109325000Y-84775000I225000J0D01*
G01*
X109775000Y-84775000D01*
G75*
G02*
X110000000Y-85000000I0J-225000D01*
G01*
G37*
G36*
G01*
X108350000Y-86725000D02*
X108350000Y-87325000D01*
G75*
G02*
X108125000Y-87550000I-225000J0D01*
G01*
X107675000Y-87550000D01*
G75*
G02*
X107450000Y-87325000I0J225000D01*
G01*
X107450000Y-86725000D01*
G75*
G02*
X107675000Y-86500000I225000J0D01*
G01*
X108125000Y-86500000D01*
G75*
G02*
X108350000Y-86725000I0J-225000D01*
G01*
G37*
G36*
G01*
X110000000Y-86725000D02*
X110000000Y-87325000D01*
G75*
G02*
X109775000Y-87550000I-225000J0D01*
G01*
X109325000Y-87550000D01*
G75*
G02*
X109100000Y-87325000I0J225000D01*
G01*
X109100000Y-86725000D01*
G75*
G02*
X109325000Y-86500000I225000J0D01*
G01*
X109775000Y-86500000D01*
G75*
G02*
X110000000Y-86725000I0J-225000D01*
G01*
G37*
G36*
G01*
X102681250Y-86875000D02*
X102118750Y-86875000D01*
G75*
G02*
X101875000Y-86631250I0J243750D01*
G01*
X101875000Y-86143750D01*
G75*
G02*
X102118750Y-85900000I243750J0D01*
G01*
X102681250Y-85900000D01*
G75*
G02*
X102925000Y-86143750I0J-243750D01*
G01*
X102925000Y-86631250D01*
G75*
G02*
X102681250Y-86875000I-243750J0D01*
G01*
G37*
G36*
G01*
X102681250Y-88450000D02*
X102118750Y-88450000D01*
G75*
G02*
X101875000Y-88206250I0J243750D01*
G01*
X101875000Y-87718750D01*
G75*
G02*
X102118750Y-87475000I243750J0D01*
G01*
X102681250Y-87475000D01*
G75*
G02*
X102925000Y-87718750I0J-243750D01*
G01*
X102925000Y-88206250D01*
G75*
G02*
X102681250Y-88450000I-243750J0D01*
G01*
G37*
G36*
G01*
X111012500Y-113256250D02*
X111012500Y-112693750D01*
G75*
G02*
X111256250Y-112450000I243750J0D01*
G01*
X111743750Y-112450000D01*
G75*
G02*
X111987500Y-112693750I0J-243750D01*
G01*
X111987500Y-113256250D01*
G75*
G02*
X111743750Y-113500000I-243750J0D01*
G01*
X111256250Y-113500000D01*
G75*
G02*
X111012500Y-113256250I0J243750D01*
G01*
G37*
G36*
G01*
X109437500Y-113256250D02*
X109437500Y-112693750D01*
G75*
G02*
X109681250Y-112450000I243750J0D01*
G01*
X110168750Y-112450000D01*
G75*
G02*
X110412500Y-112693750I0J-243750D01*
G01*
X110412500Y-113256250D01*
G75*
G02*
X110168750Y-113500000I-243750J0D01*
G01*
X109681250Y-113500000D01*
G75*
G02*
X109437500Y-113256250I0J243750D01*
G01*
G37*
G36*
G01*
X95543750Y-113862500D02*
X96106250Y-113862500D01*
G75*
G02*
X96350000Y-114106250I0J-243750D01*
G01*
X96350000Y-114593750D01*
G75*
G02*
X96106250Y-114837500I-243750J0D01*
G01*
X95543750Y-114837500D01*
G75*
G02*
X95300000Y-114593750I0J243750D01*
G01*
X95300000Y-114106250D01*
G75*
G02*
X95543750Y-113862500I243750J0D01*
G01*
G37*
G36*
G01*
X95543750Y-112287500D02*
X96106250Y-112287500D01*
G75*
G02*
X96350000Y-112531250I0J-243750D01*
G01*
X96350000Y-113018750D01*
G75*
G02*
X96106250Y-113262500I-243750J0D01*
G01*
X95543750Y-113262500D01*
G75*
G02*
X95300000Y-113018750I0J243750D01*
G01*
X95300000Y-112531250D01*
G75*
G02*
X95543750Y-112287500I243750J0D01*
G01*
G37*
G36*
G01*
X108425000Y-88493750D02*
X108425000Y-89056250D01*
G75*
G02*
X108181250Y-89300000I-243750J0D01*
G01*
X107693750Y-89300000D01*
G75*
G02*
X107450000Y-89056250I0J243750D01*
G01*
X107450000Y-88493750D01*
G75*
G02*
X107693750Y-88250000I243750J0D01*
G01*
X108181250Y-88250000D01*
G75*
G02*
X108425000Y-88493750I0J-243750D01*
G01*
G37*
G36*
G01*
X110000000Y-88493750D02*
X110000000Y-89056250D01*
G75*
G02*
X109756250Y-89300000I-243750J0D01*
G01*
X109268750Y-89300000D01*
G75*
G02*
X109025000Y-89056250I0J243750D01*
G01*
X109025000Y-88493750D01*
G75*
G02*
X109268750Y-88250000I243750J0D01*
G01*
X109756250Y-88250000D01*
G75*
G02*
X110000000Y-88493750I0J-243750D01*
G01*
G37*
G36*
G01*
X114450000Y-109550000D02*
X114450000Y-109000000D01*
G75*
G02*
X114700000Y-108750000I250000J0D01*
G01*
X115200000Y-108750000D01*
G75*
G02*
X115450000Y-109000000I0J-250000D01*
G01*
X115450000Y-109550000D01*
G75*
G02*
X115200000Y-109800000I-250000J0D01*
G01*
X114700000Y-109800000D01*
G75*
G02*
X114450000Y-109550000I0J250000D01*
G01*
G37*
G36*
G01*
X112900000Y-109550000D02*
X112900000Y-109000000D01*
G75*
G02*
X113150000Y-108750000I250000J0D01*
G01*
X113650000Y-108750000D01*
G75*
G02*
X113900000Y-109000000I0J-250000D01*
G01*
X113900000Y-109550000D01*
G75*
G02*
X113650000Y-109800000I-250000J0D01*
G01*
X113150000Y-109800000D01*
G75*
G02*
X112900000Y-109550000I0J250000D01*
G01*
G37*
G36*
G01*
X92575000Y-114575000D02*
X92575000Y-114025000D01*
G75*
G02*
X92825000Y-113775000I250000J0D01*
G01*
X93325000Y-113775000D01*
G75*
G02*
X93575000Y-114025000I0J-250000D01*
G01*
X93575000Y-114575000D01*
G75*
G02*
X93325000Y-114825000I-250000J0D01*
G01*
X92825000Y-114825000D01*
G75*
G02*
X92575000Y-114575000I0J250000D01*
G01*
G37*
G36*
G01*
X91025000Y-114575000D02*
X91025000Y-114025000D01*
G75*
G02*
X91275000Y-113775000I250000J0D01*
G01*
X91775000Y-113775000D01*
G75*
G02*
X92025000Y-114025000I0J-250000D01*
G01*
X92025000Y-114575000D01*
G75*
G02*
X91775000Y-114825000I-250000J0D01*
G01*
X91275000Y-114825000D01*
G75*
G02*
X91025000Y-114575000I0J250000D01*
G01*
G37*
G36*
G01*
X83875000Y-113200000D02*
X83325000Y-113200000D01*
G75*
G02*
X83075000Y-112950000I0J250000D01*
G01*
X83075000Y-112450000D01*
G75*
G02*
X83325000Y-112200000I250000J0D01*
G01*
X83875000Y-112200000D01*
G75*
G02*
X84125000Y-112450000I0J-250000D01*
G01*
X84125000Y-112950000D01*
G75*
G02*
X83875000Y-113200000I-250000J0D01*
G01*
G37*
G36*
G01*
X83875000Y-114750000D02*
X83325000Y-114750000D01*
G75*
G02*
X83075000Y-114500000I0J250000D01*
G01*
X83075000Y-114000000D01*
G75*
G02*
X83325000Y-113750000I250000J0D01*
G01*
X83875000Y-113750000D01*
G75*
G02*
X84125000Y-114000000I0J-250000D01*
G01*
X84125000Y-114500000D01*
G75*
G02*
X83875000Y-114750000I-250000J0D01*
G01*
G37*
G36*
G01*
X117525000Y-89900000D02*
X116975000Y-89900000D01*
G75*
G02*
X116725000Y-89650000I0J250000D01*
G01*
X116725000Y-89150000D01*
G75*
G02*
X116975000Y-88900000I250000J0D01*
G01*
X117525000Y-88900000D01*
G75*
G02*
X117775000Y-89150000I0J-250000D01*
G01*
X117775000Y-89650000D01*
G75*
G02*
X117525000Y-89900000I-250000J0D01*
G01*
G37*
G36*
G01*
X117525000Y-91450000D02*
X116975000Y-91450000D01*
G75*
G02*
X116725000Y-91200000I0J250000D01*
G01*
X116725000Y-90700000D01*
G75*
G02*
X116975000Y-90450000I250000J0D01*
G01*
X117525000Y-90450000D01*
G75*
G02*
X117775000Y-90700000I0J-250000D01*
G01*
X117775000Y-91200000D01*
G75*
G02*
X117525000Y-91450000I-250000J0D01*
G01*
G37*
G36*
G01*
X82800000Y-107625000D02*
X82250000Y-107625000D01*
G75*
G02*
X82000000Y-107375000I0J250000D01*
G01*
X82000000Y-106875000D01*
G75*
G02*
X82250000Y-106625000I250000J0D01*
G01*
X82800000Y-106625000D01*
G75*
G02*
X83050000Y-106875000I0J-250000D01*
G01*
X83050000Y-107375000D01*
G75*
G02*
X82800000Y-107625000I-250000J0D01*
G01*
G37*
G36*
G01*
X82800000Y-109175000D02*
X82250000Y-109175000D01*
G75*
G02*
X82000000Y-108925000I0J250000D01*
G01*
X82000000Y-108425000D01*
G75*
G02*
X82250000Y-108175000I250000J0D01*
G01*
X82800000Y-108175000D01*
G75*
G02*
X83050000Y-108425000I0J-250000D01*
G01*
X83050000Y-108925000D01*
G75*
G02*
X82800000Y-109175000I-250000J0D01*
G01*
G37*
G36*
G01*
X116975000Y-93675000D02*
X117525000Y-93675000D01*
G75*
G02*
X117775000Y-93925000I0J-250000D01*
G01*
X117775000Y-94425000D01*
G75*
G02*
X117525000Y-94675000I-250000J0D01*
G01*
X116975000Y-94675000D01*
G75*
G02*
X116725000Y-94425000I0J250000D01*
G01*
X116725000Y-93925000D01*
G75*
G02*
X116975000Y-93675000I250000J0D01*
G01*
G37*
G36*
G01*
X116975000Y-92125000D02*
X117525000Y-92125000D01*
G75*
G02*
X117775000Y-92375000I0J-250000D01*
G01*
X117775000Y-92875000D01*
G75*
G02*
X117525000Y-93125000I-250000J0D01*
G01*
X116975000Y-93125000D01*
G75*
G02*
X116725000Y-92875000I0J250000D01*
G01*
X116725000Y-92375000D01*
G75*
G02*
X116975000Y-92125000I250000J0D01*
G01*
G37*
G36*
G01*
X116975000Y-87075000D02*
X117525000Y-87075000D01*
G75*
G02*
X117775000Y-87325000I0J-250000D01*
G01*
X117775000Y-87825000D01*
G75*
G02*
X117525000Y-88075000I-250000J0D01*
G01*
X116975000Y-88075000D01*
G75*
G02*
X116725000Y-87825000I0J250000D01*
G01*
X116725000Y-87325000D01*
G75*
G02*
X116975000Y-87075000I250000J0D01*
G01*
G37*
G36*
G01*
X116975000Y-85525000D02*
X117525000Y-85525000D01*
G75*
G02*
X117775000Y-85775000I0J-250000D01*
G01*
X117775000Y-86275000D01*
G75*
G02*
X117525000Y-86525000I-250000J0D01*
G01*
X116975000Y-86525000D01*
G75*
G02*
X116725000Y-86275000I0J250000D01*
G01*
X116725000Y-85775000D01*
G75*
G02*
X116975000Y-85525000I250000J0D01*
G01*
G37*
M02*
